<?xml version="1.0" encoding="utf-8" standalone="no"?>
<!DOCTYPE svg PUBLIC "-//W3C//DTD SVG 1.1//EN" "http://www.w3.org/Graphics/SVG/1.1/DTD/svg11.dtd">
<svg width="300" height="200" version="1.1" xmlns:xlink="http://www.w3.org/1999/xlink" xmlns="http://www.w3.org/2000/svg">
  <polyline points="10.8119,184.5415 12.6679,184.1529 14.5239,183.7377 16.38,183.2939 18.236,182.8199 20.092,182.3136 21.948,181.7731 23.8041,181.1961 25.6601,180.5804 27.5161,179.9236 29.3722,179.2234 31.2282,178.4769 33.0842,177.6817 34.9402,176.8348 36.7963,175.9333 38.6523,174.9743 40.5083,173.9545 42.3643,172.8709 44.2204,171.72 46.0764,170.4985 47.9324,169.203 49.7885,167.8299 51.6445,166.3759 53.5005,164.8372 55.3565,163.2105 57.2126,161.4922 59.0686,159.6788 60.9246,157.767 62.7806,155.7535 64.6367,153.6354 66.4927,151.4096 68.3487,149.0735 70.2048,146.6248 72.0608,144.0614 73.9168,141.3816 75.7728,138.5843 77.6289,135.6687 79.4849,132.6345 81.3409,129.4823 83.1969,126.2131 85.053,122.8286 86.909,119.3316 88.765,115.7254 90.6211,112.0143 92.4771,108.2037 94.3331,104.2996 96.1891,100.3094 98.0452,96.2413 99.9012,92.1047 101.7572,87.9101 103.6132,83.6689 105.4693,79.3937 107.3253,75.0981 109.1813,70.7967 111.0373,66.505 112.8934,62.2394 114.7494,58.017 116.6054,53.8556 118.4615,49.7737 120.3175,45.79 122.1735,41.9235 124.0295,38.1936 125.8856,34.6192 127.7416,31.2193 129.5976,28.0123 131.4536,25.0162 133.3097,22.248 135.1657,19.7239 137.0217,17.4588 138.8778,15.4665 140.7338,13.7592 142.5898,12.3473 144.4458,11.2398 146.3019,10.4437 148.1579,9.964 150.0139,9.8037 151.8699,9.964 153.726,10.4437 155.582,11.2398 157.438,12.3473 159.2941,13.7592 161.1501,15.4665 163.0061,17.4588 164.8621,19.7239 166.7182,22.248 168.5742,25.0162 170.4302,28.0123 172.2862,31.2193 174.1423,34.6192 175.9983,38.1936 177.8543,41.9235 179.7104,45.79 181.5664,49.7737 183.4224,53.8556 185.2784,58.017 187.1345,62.2394 188.9905,66.505 190.8465,70.7967 192.7025,75.0981 194.5586,79.3937 196.4146,83.6689 198.2706,87.9101 200.1267,92.1047 201.9827,96.2413 203.8387,100.3094 205.6947,104.2996 207.5508,108.2037 209.4068,112.0143 211.2628,115.7254 213.1188,119.3316 214.9749,122.8286 216.8309,126.2131 218.6869,129.4823 220.543,132.6345 222.399,135.6687 224.255,138.5843 226.111,141.3816 227.9671,144.0614 229.8231,146.6248 231.6791,149.0735 233.5351,151.4096 235.3912,153.6354 237.2472,155.7535 239.1032,157.767 240.9593,159.6788 242.8153,161.4922 244.6713,163.2105 246.5273,164.8372 248.3834,166.3759 250.2394,167.8299 252.0954,169.203 253.9514,170.4985 255.8075,171.72 257.6635,172.8709 259.5195,173.9545 261.3756,174.9743 263.2316,175.9333 265.0876,176.8348 266.9436,177.6817 268.7997,178.4769 270.6557,179.2234 272.5117,179.9236 274.3677,180.5804 276.2238,181.1961 278.0798,181.7731 279.9358,182.3136 281.7919,182.8199 283.6479,183.2939 285.5039,183.7377 287.3599,184.1529 289.216,184.5415" style="fill:none;stroke:black;stroke-width:1;stroke-linejoin:bevel" />
  <polyline points="10.8119,184.5415 12.6679,184.1529 14.5239,183.7377 16.38,183.2939 18.236,182.8199 20.092,182.3136 21.948,181.7731 23.8041,181.1961 25.6601,180.5804 27.5161,179.9236 29.3722,179.2234 31.2282,178.4769 33.0842,177.6817 34.9402,176.8348 36.7963,175.9333 38.6523,174.9743 40.5083,173.9545 42.3643,172.8709 44.2204,171.72 46.0764,170.4985 47.9324,169.203 49.7885,167.8299 51.6445,166.3759 53.5005,164.8372 55.3565,163.2105 57.2126,161.4922 59.0686,159.6788 60.9246,157.767 62.7806,155.7535 64.6367,153.6354 66.4927,151.4096 68.3487,149.0735 70.2048,146.6248 72.0608,144.0614 73.9168,141.3816 75.7728,138.5843 77.6289,135.6687 79.4849,132.6345 81.3409,129.4823 83.1969,126.2131 85.053,122.8286 86.909,119.3316 88.765,115.7254 90.6211,112.0143 92.4771,108.2037 94.3331,104.2996 96.1891,100.3094 98.0452,96.2413 99.9012,92.1047 101.7572,87.9101 103.6132,83.6689 105.4693,79.3937 107.3253,75.0981 109.1813,70.7967 111.0373,66.505 112.8934,62.2394 114.7494,58.017 116.6054,53.8556 118.4615,49.7737 120.3175,45.79 122.1735,41.9235 124.0295,38.1936 125.8856,34.6192 127.7416,31.2193 129.5976,28.0123 131.4536,25.0162 133.3097,22.248 135.1657,19.7239 137.0217,17.4588 138.8778,15.4665 140.7338,13.7592 142.5898,12.3473 144.4458,11.2398 146.3019,10.4437 148.1579,9.964 150.0139,9.8037 151.8699,9.964 153.726,10.4437 155.582,11.2398 157.438,12.3473 159.2941,13.7592 161.1501,15.4665 163.0061,17.4588 164.8621,19.7239 166.7182,22.248 168.5742,25.0162 170.4302,28.0123 172.2862,31.2193 174.1423,34.6192 175.9983,38.1936 177.8543,41.9235 179.7104,45.79 181.5664,49.7737 183.4224,53.8556 185.2784,58.017 187.1345,62.2394 188.9905,66.505 190.8465,70.7967 192.7025,75.0981 194.5586,79.3937 196.4146,83.6689 198.2706,87.9101 200.1267,92.1047 201.9827,96.2413 203.8387,100.3094 205.6947,104.2996 207.5508,108.2037 209.4068,112.0143 211.2628,115.7254 213.1188,119.3316 214.9749,122.8286 216.8309,126.2131 218.6869,129.4823 220.543,132.6345 222.399,135.6687 224.255,138.5843 226.111,141.3816 227.9671,144.0614 229.8231,146.6248 231.6791,149.0735 233.5351,151.4096 235.0716,153.2599" style="fill:none;stroke:none;" />
  <polyline points="235.0716,190.1782 10.8119,190.1782" style="fill:none;stroke:none;" />
  <polygon points="235.0716,190.1782 10.8119,190.1782 10.8119,184.5415 12.6679,184.1529 14.5239,183.7377 16.38,183.2939 18.236,182.8199 20.092,182.3136 21.948,181.7731 23.8041,181.1961 25.6601,180.5804 27.5161,179.9236 29.3722,179.2234 31.2282,178.4769 33.0842,177.6817 34.9402,176.8348 36.7963,175.9333 38.6523,174.9743 40.5083,173.9545 42.3643,172.8709 44.2204,171.72 46.0764,170.4985 47.9324,169.203 49.7885,167.8299 51.6445,166.3759 53.5005,164.8372 55.3565,163.2105 57.2126,161.4922 59.0686,159.6788 60.9246,157.767 62.7806,155.7535 64.6367,153.6354 66.4927,151.4096 68.3487,149.0735 70.2048,146.6248 72.0608,144.0614 73.9168,141.3816 75.7728,138.5843 77.6289,135.6687 79.4849,132.6345 81.3409,129.4823 83.1969,126.2131 85.053,122.8286 86.909,119.3316 88.765,115.7254 90.6211,112.0143 92.4771,108.2037 94.3331,104.2996 96.1891,100.3094 98.0452,96.2413 99.9012,92.1047 101.7572,87.9101 103.6132,83.6689 105.4693,79.3937 107.3253,75.0981 109.1813,70.7967 111.0373,66.505 112.8934,62.2394 114.7494,58.017 116.6054,53.8556 118.4615,49.7737 120.3175,45.79 122.1735,41.9235 124.0295,38.1936 125.8856,34.6192 127.7416,31.2193 129.5976,28.0123 131.4536,25.0162 133.3097,22.248 135.1657,19.7239 137.0217,17.4588 138.8778,15.4665 140.7338,13.7592 142.5898,12.3473 144.4458,11.2398 146.3019,10.4437 148.1579,9.964 150.0139,9.8037 151.8699,9.964 153.726,10.4437 155.582,11.2398 157.438,12.3473 159.2941,13.7592 161.1501,15.4665 163.0061,17.4588 164.8621,19.7239 166.7182,22.248 168.5742,25.0162 170.4302,28.0123 172.2862,31.2193 174.1423,34.6192 175.9983,38.1936 177.8543,41.9235 179.7104,45.79 181.5664,49.7737 183.4224,53.8556 185.2784,58.017 187.1345,62.2394 188.9905,66.505 190.8465,70.7967 192.7025,75.0981 194.5586,79.3937 196.4146,83.6689 198.2706,87.9101 200.1267,92.1047 201.9827,96.2413 203.8387,100.3094 205.6947,104.2996 207.5508,108.2037 209.4068,112.0143 211.2628,115.7254 213.1188,119.3316 214.9749,122.8286 216.8309,126.2131 218.6869,129.4823 220.543,132.6345 222.399,135.6687 224.255,138.5843 226.111,141.3816 227.9671,144.0614 229.8231,146.6248 231.6791,149.0735 233.5351,151.4096 235.0716,153.2599" style="fill:rgb(255,255,255);fill-opacity:0.784313725490196;stroke:none;" />
  <polyline points="235.0716,153.2599 236.9276,155.3964 238.7837,157.4276 240.6397,159.3567 242.4957,161.1868 244.3517,162.9213 246.2078,164.5635 248.0638,166.1171 249.9198,167.5855 251.7759,168.9722 253.6319,170.2808 255.4879,171.5148 257.3439,172.6776 259.2,173.7726 261.056,174.8031 262.912,175.7724 264.768,176.6836 266.6241,177.5396 268.4801,178.3436 270.3361,179.0982 272.1921,179.8062 274.0482,180.4703 275.9042,181.0929 277.7602,181.6764 279.6163,182.223 281.4723,182.7351 283.3283,183.2145 285.1843,183.6633 287.0404,184.0834 288.8964,184.4764 289.216,184.5415" style="fill:none;stroke:none;" />
  <polyline points="289.216,190.1782 235.0716,190.1782" style="fill:none;stroke:none;" />
  <polygon points="289.216,190.1782 235.0716,190.1782 235.0716,153.2599 236.9276,155.3964 238.7837,157.4276 240.6397,159.3567 242.4957,161.1868 244.3517,162.9213 246.2078,164.5635 248.0638,166.1171 249.9198,167.5855 251.7759,168.9722 253.6319,170.2808 255.4879,171.5148 257.3439,172.6776 259.2,173.7726 261.056,174.8031 262.912,175.7724 264.768,176.6836 266.6241,177.5396 268.4801,178.3436 270.3361,179.0982 272.1921,179.8062 274.0482,180.4703 275.9042,181.0929 277.7602,181.6764 279.6163,182.223 281.4723,182.7351 283.3283,183.2145 285.1843,183.6633 287.0404,184.0834 288.8964,184.4764 289.216,184.5415" style="fill:rgb(0,0,255);fill-opacity:0.784313725490196;stroke:none;" />
  <polyline points="19.8939,190.1782 35.8939,190.1782" style="fill:none;stroke:rgb(255,0,0);stroke-width:1" />
  <polyline points="27.8939,182.1782 27.8939,198.1782" style="fill:none;stroke:rgb(255,0,0);stroke-width:1" />
  <polyline points="19.8939,182.1782 35.8939,198.1782" style="fill:none;stroke:rgb(255,0,0);stroke-width:1" />
  <polyline points="19.8939,198.1782 35.8939,182.1782" style="fill:none;stroke:rgb(255,0,0);stroke-width:1" />
  <polygon points="8,8 292,8 292,192 8,192" style="fill:none;stroke:black;stroke-width:1" />
</svg>