<?xml version="1.0" encoding="utf-8" standalone="no"?>
<!DOCTYPE svg PUBLIC "-//W3C//DTD SVG 1.1//EN" "http://www.w3.org/Graphics/SVG/1.1/DTD/svg11.dtd">
<svg width="300" height="200" version="1.1" xmlns:xlink="http://www.w3.org/1999/xlink" xmlns="http://www.w3.org/2000/svg">
  <polyline points="10.8119,184.5415 12.6679,184.1529 14.5239,183.7377 16.38,183.2939 18.236,182.8199 20.092,182.3136 21.948,181.7731 23.8041,181.1961 25.6601,180.5804 27.5161,179.9236 29.3722,179.2234 31.2282,178.4769 33.0842,177.6817 34.9402,176.8348 36.7963,175.9333 38.6523,174.9743 40.5083,173.9545 42.3643,172.8709 44.2204,171.72 46.0764,170.4985 47.9324,169.203 49.7885,167.8299 51.6445,166.3759 53.5005,164.8372 55.3565,163.2105 57.2126,161.4922 59.0686,159.6788 60.9246,157.767 62.7806,155.7535 64.6367,153.6354 66.4927,151.4096 68.3487,149.0735 70.2048,146.6248 72.0608,144.0614 73.9168,141.3816 75.7728,138.5843 77.6289,135.6687 79.4849,132.6345 81.3409,129.4823 83.1969,126.2131 85.053,122.8286 86.909,119.3316 88.765,115.7254 90.6211,112.0143 92.4771,108.2037 94.3331,104.2996 96.1891,100.3094 98.0452,96.2413 99.9012,92.1047 101.7572,87.9101 103.6132,83.6689 105.4693,79.3937 107.3253,75.0981 109.1813,70.7967 111.0373,66.505 112.8934,62.2394 114.7494,58.017 116.6054,53.8556 118.4615,49.7737 120.3175,45.79 122.1735,41.9235 124.0295,38.1936 125.8856,34.6192 127.7416,31.2193 129.5976,28.0123 131.4536,25.0162 133.3097,22.248 135.1657,19.7239 137.0217,17.4588 138.8778,15.4665 140.7338,13.7592 142.5898,12.3473 144.4458,11.2398 146.3019,10.4437 148.1579,9.964 150.0139,9.8037 151.8699,9.964 153.726,10.4437 155.582,11.2398 157.438,12.3473 159.2941,13.7592 161.1501,15.4665 163.0061,17.4588 164.8621,19.7239 166.7182,22.248 168.5742,25.0162 170.4302,28.0123 172.2862,31.2193 174.1423,34.6192 175.9983,38.1936 177.8543,41.9235 179.7104,45.79 181.5664,49.7737 183.4224,53.8556 185.2784,58.017 187.1345,62.2394 188.9905,66.505 190.8465,70.7967 192.7025,75.0981 194.5586,79.3937 196.4146,83.6689 198.2706,87.9101 200.1267,92.1047 201.9827,96.2413 203.8387,100.3094 205.6947,104.2996 207.5508,108.2037 209.4068,112.0143 211.2628,115.7254 213.1188,119.3316 214.9749,122.8286 216.8309,126.2131 218.6869,129.4823 220.543,132.6345 222.399,135.6687 224.255,138.5843 226.111,141.3816 227.9671,144.0614 229.8231,146.6248 231.6791,149.0735 233.5351,151.4096 235.3912,153.6354 237.2472,155.7535 239.1032,157.767 240.9593,159.6788 242.8153,161.4922 244.6713,163.2105 246.5273,164.8372 248.3834,166.3759 250.2394,167.8299 252.0954,169.203 253.9514,170.4985 255.8075,171.72 257.6635,172.8709 259.5195,173.9545 261.3756,174.9743 263.2316,175.9333 265.0876,176.8348 266.9436,177.6817 268.7997,178.4769 270.6557,179.2234 272.5117,179.9236 274.3677,180.5804 276.2238,181.1961 278.0798,181.7731 279.9358,182.3136 281.7919,182.8199 283.6479,183.2939 285.5039,183.7377 287.3599,184.1529 289.216,184.5415" style="fill:none;stroke:black;stroke-width:1;stroke-linejoin:bevel" />
  <polyline points="10.8119,184.5415 12.6679,184.1529 14.5239,183.7377 16.38,183.2939 18.236,182.8199 20.092,182.3136 21.948,181.7731 23.8041,181.1961 25.6601,180.5804 27.5161,179.9236 29.3722,179.2234 31.2282,178.4769 33.0842,177.6817 34.9402,176.8348 36.7963,175.9333 38.6523,174.9743 40.5083,173.9545 42.3643,172.8709 44.2204,171.72 45.0483,171.184" style="fill:none;stroke:none;" />
  <polyline points="45.0483,190.1782 10.8119,190.1782" style="fill:none;stroke:none;" />
  <polygon points="45.0483,190.1782 10.8119,190.1782 10.8119,184.5415 12.6679,184.1529 14.5239,183.7377 16.38,183.2939 18.236,182.8199 20.092,182.3136 21.948,181.7731 23.8041,181.1961 25.6601,180.5804 27.5161,179.9236 29.3722,179.2234 31.2282,178.4769 33.0842,177.6817 34.9402,176.8348 36.7963,175.9333 38.6523,174.9743 40.5083,173.9545 42.3643,172.8709 44.2204,171.72 45.0483,171.184" style="fill:rgb(0,0,255);fill-opacity:0.784313725490196;stroke:none;" />
  <polyline points="45.0483,171.184 46.9043,169.9299 48.7603,168.6003 50.6164,167.1915 52.4724,165.7002 54.3284,164.1227 56.1845,162.4555 58.0405,160.6952 59.8965,158.8383 61.7525,156.8816 63.6086,154.8218 65.4646,152.656 67.3206,150.3813 69.1766,147.9953 71.0327,145.4956 72.8887,142.8805 74.7447,140.1484 76.6008,137.2984 78.4568,134.3298 80.3128,131.2429 82.1688,128.0383 84.0249,124.7175 85.8809,121.2825 87.7369,117.7363 89.5929,114.0827 91.449,110.3265 93.305,106.4733 95.161,102.5298 97.0171,98.5038 98.8731,94.404 100.7291,90.2401 102.5851,86.0232 104.4412,81.7653 106.2972,77.4792 108.1532,73.1792 110.0092,68.8801 111.8653,64.598 113.7213,60.3495 115.5773,56.1521 117.4334,52.0239 119.2894,47.9834 121.1454,44.0496 123.0014,40.2417 124.8575,36.5788 126.7135,33.0799 128.5695,29.7638 130.4255,26.6487 132.2816,23.7522 134.1376,21.091 135.9936,18.6807 137.8496,16.5357 139.7057,14.6691 141.5617,13.0923 143.4177,11.8152 145.2738,10.8459 147.1298,10.1904 148.9858,9.8529 150.8418,9.8356 152.6979,10.1386 154.5539,10.76 156.4099,11.6958 158.2659,12.94 160.122,14.4849 161.978,16.3207 163.834,18.4363 165.6901,20.8187 167.5461,23.4536 169.4021,26.3255 171.2581,29.4178 173.1142,32.7131 174.9702,36.1932 176.8262,39.8393 178.6822,43.6325 180.5383,47.5536 182.3943,51.5835 184.2503,55.7032 186.1064,59.894 187.9624,64.1378 189.8184,68.4172 191.6744,72.7152 193.5305,77.0159 195.3865,81.3041 197.2425,85.5657 199.0985,89.7877 200.9546,93.9577 202.8106,98.065 204.6666,102.0994 206.5227,106.0522 208.3787,109.9154 210.2347,113.6824 212.0907,117.3473 213.9468,120.9053 215.8028,124.3524 217.6588,127.6857 219.5148,130.9029 221.3709,134.0026 223.2269,136.9839 225.0829,139.8467 226.939,142.5915 228.795,145.2191 230.651,147.7312 232.507,150.1293 234.3631,152.4159 236.2191,154.5934 238.0751,156.6644 239.9311,158.6321 241.7872,160.4996 243.6432,162.2702 245.4992,163.9473 247.3553,165.5343 249.2113,167.0347 251.0673,168.4522 252.9233,169.7902 254.7794,171.0523 254.9796,171.184" style="fill:none;stroke:none;" />
  <polyline points="254.9796,190.1782 45.0483,190.1782" style="fill:none;stroke:none;" />
  <polygon points="254.9796,190.1782 45.0483,190.1782 45.0483,171.184 46.9043,169.9299 48.7603,168.6003 50.6164,167.1915 52.4724,165.7002 54.3284,164.1227 56.1845,162.4555 58.0405,160.6952 59.8965,158.8383 61.7525,156.8816 63.6086,154.8218 65.4646,152.656 67.3206,150.3813 69.1766,147.9953 71.0327,145.4956 72.8887,142.8805 74.7447,140.1484 76.6008,137.2984 78.4568,134.3298 80.3128,131.2429 82.1688,128.0383 84.0249,124.7175 85.8809,121.2825 87.7369,117.7363 89.5929,114.0827 91.449,110.3265 93.305,106.4733 95.161,102.5298 97.0171,98.5038 98.8731,94.404 100.7291,90.2401 102.5851,86.0232 104.4412,81.7653 106.2972,77.4792 108.1532,73.1792 110.0092,68.8801 111.8653,64.598 113.7213,60.3495 115.5773,56.1521 117.4334,52.0239 119.2894,47.9834 121.1454,44.0496 123.0014,40.2417 124.8575,36.5788 126.7135,33.0799 128.5695,29.7638 130.4255,26.6487 132.2816,23.7522 134.1376,21.091 135.9936,18.6807 137.8496,16.5357 139.7057,14.6691 141.5617,13.0923 143.4177,11.8152 145.2738,10.8459 147.1298,10.1904 148.9858,9.8529 150.8418,9.8356 152.6979,10.1386 154.5539,10.76 156.4099,11.6958 158.2659,12.94 160.122,14.4849 161.978,16.3207 163.834,18.4363 165.6901,20.8187 167.5461,23.4536 169.4021,26.3255 171.2581,29.4178 173.1142,32.7131 174.9702,36.1932 176.8262,39.8393 178.6822,43.6325 180.5383,47.5536 182.3943,51.5835 184.2503,55.7032 186.1064,59.894 187.9624,64.1378 189.8184,68.4172 191.6744,72.7152 193.5305,77.0159 195.3865,81.3041 197.2425,85.5657 199.0985,89.7877 200.9546,93.9577 202.8106,98.065 204.6666,102.0994 206.5227,106.0522 208.3787,109.9154 210.2347,113.6824 212.0907,117.3473 213.9468,120.9053 215.8028,124.3524 217.6588,127.6857 219.5148,130.9029 221.3709,134.0026 223.2269,136.9839 225.0829,139.8467 226.939,142.5915 228.795,145.2191 230.651,147.7312 232.507,150.1293 234.3631,152.4159 236.2191,154.5934 238.0751,156.6644 239.9311,158.6321 241.7872,160.4996 243.6432,162.2702 245.4992,163.9473 247.3553,165.5343 249.2113,167.0347 251.0673,168.4522 252.9233,169.7902 254.7794,171.0523 254.9796,171.184" style="fill:rgb(255,255,255);fill-opacity:0.784313725490196;stroke:none;" />
  <polyline points="254.9796,171.184 256.8356,172.366 258.6916,173.4792 260.5476,174.5271 262.4037,175.5128 264.2597,176.4396 266.1157,177.3105 267.9717,178.1284 269.8278,178.8963 271.6838,179.6168 273.5398,180.2927 275.3958,180.9264 277.2519,181.5203 279.1079,182.0768 280.9639,182.5981 282.82,183.0863 284.676,183.5433 286.532,183.9711 288.388,184.3714 289.216,184.5415" style="fill:none;stroke:none;" />
  <polyline points="289.216,190.1782 254.9796,190.1782" style="fill:none;stroke:none;" />
  <polygon points="289.216,190.1782 254.9796,190.1782 254.9796,171.184 256.8356,172.366 258.6916,173.4792 260.5476,174.5271 262.4037,175.5128 264.2597,176.4396 266.1157,177.3105 267.9717,178.1284 269.8278,178.8963 271.6838,179.6168 273.5398,180.2927 275.3958,180.9264 277.2519,181.5203 279.1079,182.0768 280.9639,182.5981 282.82,183.0863 284.676,183.5433 286.532,183.9711 288.388,184.3714 289.216,184.5415" style="fill:rgb(0,0,255);fill-opacity:0.784313725490196;stroke:none;" />
  <polyline points="99.2572,190.1782 115.2572,190.1782" style="fill:none;stroke:rgb(255,0,0);stroke-width:1" />
  <polyline points="107.2572,182.1782 107.2572,198.1782" style="fill:none;stroke:rgb(255,0,0);stroke-width:1" />
  <polyline points="99.2572,182.1782 115.2572,198.1782" style="fill:none;stroke:rgb(255,0,0);stroke-width:1" />
  <polyline points="99.2572,198.1782 115.2572,182.1782" style="fill:none;stroke:rgb(255,0,0);stroke-width:1" />
  <polygon points="8,8 292,8 292,192 8,192" style="fill:none;stroke:black;stroke-width:1" />
</svg>