<?xml version="1.0" encoding="utf-8" standalone="no"?>
<!DOCTYPE svg PUBLIC "-//W3C//DTD SVG 1.1//EN" "http://www.w3.org/Graphics/SVG/1.1/DTD/svg11.dtd">
<svg width="600" height="400" version="1.1" xmlns:xlink="http://www.w3.org/1999/xlink" xmlns="http://www.w3.org/2000/svg">
  <polyline points="34.54,344.0304 30.54,344.0304" style="fill:none;stroke:black;stroke-width:1" />
  <polyline points="34.54,326.4799 30.54,326.4799" style="fill:none;stroke:black;stroke-width:1" />
  <polyline points="34.54,308.9294 30.54,308.9294" style="fill:none;stroke:black;stroke-width:1" />
  <polyline points="34.54,291.3789 30.54,291.3789" style="fill:none;stroke:black;stroke-width:1" />
  <polyline points="34.54,256.2779 30.54,256.2779" style="fill:none;stroke:black;stroke-width:1" />
  <polyline points="34.54,238.7274 30.54,238.7274" style="fill:none;stroke:black;stroke-width:1" />
  <polyline points="34.54,221.1769 30.54,221.1769" style="fill:none;stroke:black;stroke-width:1" />
  <polyline points="34.54,203.6263 30.54,203.6263" style="fill:none;stroke:black;stroke-width:1" />
  <polyline points="34.54,168.5253 30.54,168.5253" style="fill:none;stroke:black;stroke-width:1" />
  <polyline points="34.54,150.9748 30.54,150.9748" style="fill:none;stroke:black;stroke-width:1" />
  <polyline points="34.54,133.4243 30.54,133.4243" style="fill:none;stroke:black;stroke-width:1" />
  <polyline points="34.54,115.8738 30.54,115.8738" style="fill:none;stroke:black;stroke-width:1" />
  <polyline points="34.54,98.3233 30.54,98.3233" style="fill:none;stroke:black;stroke-width:1" />
  <polyline points="34.54,80.7728 30.54,80.7728" style="fill:none;stroke:black;stroke-width:1" />
  <polyline points="34.54,63.2223 30.54,63.2223" style="fill:none;stroke:black;stroke-width:1" />
  <polyline points="34.54,45.6718 30.54,45.6718" style="fill:none;stroke:black;stroke-width:1" />
  <polyline points="34.54,28.1213 30.54,28.1213" style="fill:none;stroke:black;stroke-width:1" />
  <polyline points="60.5271,365.04 60.5271,369.04" style="fill:none;stroke:black;stroke-width:1" />
  <polyline points="73.8396,365.04 73.8396,369.04" style="fill:none;stroke:black;stroke-width:1" />
  <polyline points="87.152,365.04 87.152,369.04" style="fill:none;stroke:black;stroke-width:1" />
  <polyline points="100.4645,365.04 100.4645,369.04" style="fill:none;stroke:black;stroke-width:1" />
  <polyline points="127.0894,365.04 127.0894,369.04" style="fill:none;stroke:black;stroke-width:1" />
  <polyline points="140.4018,365.04 140.4018,369.04" style="fill:none;stroke:black;stroke-width:1" />
  <polyline points="153.7143,365.04 153.7143,369.04" style="fill:none;stroke:black;stroke-width:1" />
  <polyline points="167.0267,365.04 167.0267,369.04" style="fill:none;stroke:black;stroke-width:1" />
  <polyline points="193.6516,365.04 193.6516,369.04" style="fill:none;stroke:black;stroke-width:1" />
  <polyline points="206.964,365.04 206.964,369.04" style="fill:none;stroke:black;stroke-width:1" />
  <polyline points="220.2765,365.04 220.2765,369.04" style="fill:none;stroke:black;stroke-width:1" />
  <polyline points="233.5889,365.04 233.5889,369.04" style="fill:none;stroke:black;stroke-width:1" />
  <polyline points="260.2138,365.04 260.2138,369.04" style="fill:none;stroke:black;stroke-width:1" />
  <polyline points="273.5263,365.04 273.5263,369.04" style="fill:none;stroke:black;stroke-width:1" />
  <polyline points="286.8387,365.04 286.8387,369.04" style="fill:none;stroke:black;stroke-width:1" />
  <polyline points="300.1511,365.04 300.1511,369.04" style="fill:none;stroke:black;stroke-width:1" />
  <polyline points="326.776,365.04 326.776,369.04" style="fill:none;stroke:black;stroke-width:1" />
  <polyline points="340.0885,365.04 340.0885,369.04" style="fill:none;stroke:black;stroke-width:1" />
  <polyline points="353.4009,365.04 353.4009,369.04" style="fill:none;stroke:black;stroke-width:1" />
  <polyline points="366.7134,365.04 366.7134,369.04" style="fill:none;stroke:black;stroke-width:1" />
  <polyline points="393.3382,365.04 393.3382,369.04" style="fill:none;stroke:black;stroke-width:1" />
  <polyline points="406.6507,365.04 406.6507,369.04" style="fill:none;stroke:black;stroke-width:1" />
  <polyline points="419.9631,365.04 419.9631,369.04" style="fill:none;stroke:black;stroke-width:1" />
  <polyline points="433.2756,365.04 433.2756,369.04" style="fill:none;stroke:black;stroke-width:1" />
  <polyline points="459.9005,365.04 459.9005,369.04" style="fill:none;stroke:black;stroke-width:1" />
  <polyline points="473.2129,365.04 473.2129,369.04" style="fill:none;stroke:black;stroke-width:1" />
  <polyline points="486.5254,365.04 486.5254,369.04" style="fill:none;stroke:black;stroke-width:1" />
  <polyline points="499.8378,365.04 499.8378,369.04" style="fill:none;stroke:black;stroke-width:1" />
  <polyline points="526.4627,365.04 526.4627,369.04" style="fill:none;stroke:black;stroke-width:1" />
  <polyline points="539.7751,365.04 539.7751,369.04" style="fill:none;stroke:black;stroke-width:1" />
  <polyline points="553.0876,365.04 553.0876,369.04" style="fill:none;stroke:black;stroke-width:1" />
  <polyline points="566.4,365.04 566.4,369.04" style="fill:none;stroke:black;stroke-width:1" />
  <text dominant-baseline="middle" text-anchor="end" transform="translate(23.54,361.5809)" font-family="Segoe UI" font-size="12" font-weight="400" fill="black">0</text>
  <text dominant-baseline="middle" text-anchor="end" transform="translate(23.54,273.8284)" font-family="Segoe UI" font-size="12" font-weight="400" fill="black">0.1</text>
  <text dominant-baseline="middle" text-anchor="end" transform="translate(23.54,186.0758)" font-family="Segoe UI" font-size="12" font-weight="400" fill="black">0.2</text>
  <text dominant-baseline="middle" text-anchor="end" transform="translate(23.54,98.3233)" font-family="Segoe UI" font-size="12" font-weight="400" fill="black">0.3</text>
  <text dominant-baseline="middle" text-anchor="end" transform="translate(23.54,10.5708)" font-family="Segoe UI" font-size="12" font-weight="400" fill="black">0.4</text>
  <polyline points="34.54,361.5809 27.54,361.5809" style="fill:none;stroke:black;stroke-width:1" />
  <polyline points="34.54,273.8284 27.54,273.8284" style="fill:none;stroke:black;stroke-width:1" />
  <polyline points="34.54,186.0758 27.54,186.0758" style="fill:none;stroke:black;stroke-width:1" />
  <polyline points="34.54,98.3233 27.54,98.3233" style="fill:none;stroke:black;stroke-width:1" />
  <polyline points="34.54,10.5708 27.54,10.5708" style="fill:none;stroke:black;stroke-width:1" />
  <text dominant-baseline="hanging" text-anchor="middle" transform="translate(47.2147,376.04)" font-family="Segoe UI" font-size="12" font-weight="400" fill="black">-4</text>
  <text dominant-baseline="hanging" text-anchor="middle" transform="translate(113.7769,376.04)" font-family="Segoe UI" font-size="12" font-weight="400" fill="black">-3</text>
  <text dominant-baseline="hanging" text-anchor="middle" transform="translate(180.3391,376.04)" font-family="Segoe UI" font-size="12" font-weight="400" fill="black">-2</text>
  <text dominant-baseline="hanging" text-anchor="middle" transform="translate(246.9014,376.04)" font-family="Segoe UI" font-size="12" font-weight="400" fill="black">-1</text>
  <text dominant-baseline="hanging" text-anchor="middle" transform="translate(313.4636,376.04)" font-family="Segoe UI" font-size="12" font-weight="400" fill="black">0</text>
  <text dominant-baseline="hanging" text-anchor="middle" transform="translate(380.0258,376.04)" font-family="Segoe UI" font-size="12" font-weight="400" fill="black">1</text>
  <text dominant-baseline="hanging" text-anchor="middle" transform="translate(446.588,376.04)" font-family="Segoe UI" font-size="12" font-weight="400" fill="black">2</text>
  <text dominant-baseline="hanging" text-anchor="middle" transform="translate(513.1502,376.04)" font-family="Segoe UI" font-size="12" font-weight="400" fill="black">3</text>
  <text dominant-baseline="hanging" text-anchor="middle" transform="translate(579.7125,376.04)" font-family="Segoe UI" font-size="12" font-weight="400" fill="black">4</text>
  <polyline points="47.2147,365.04 47.2147,372.04" style="fill:none;stroke:black;stroke-width:1" />
  <polyline points="113.7769,365.04 113.7769,372.04" style="fill:none;stroke:black;stroke-width:1" />
  <polyline points="180.3391,365.04 180.3391,372.04" style="fill:none;stroke:black;stroke-width:1" />
  <polyline points="246.9014,365.04 246.9014,372.04" style="fill:none;stroke:black;stroke-width:1" />
  <polyline points="313.4636,365.04 313.4636,372.04" style="fill:none;stroke:black;stroke-width:1" />
  <polyline points="380.0258,365.04 380.0258,372.04" style="fill:none;stroke:black;stroke-width:1" />
  <polyline points="446.588,365.04 446.588,372.04" style="fill:none;stroke:black;stroke-width:1" />
  <polyline points="513.1502,365.04 513.1502,372.04" style="fill:none;stroke:black;stroke-width:1" />
  <polyline points="579.7125,365.04 579.7125,372.04" style="fill:none;stroke:black;stroke-width:1" />
  <polyline points="40.0594,361.505 40.725,361.5018 42.7219,361.4915 43.3875,361.4878 45.3844,361.4757 46.05,361.4714 48.0469,361.4575 48.7125,361.4524 50.7094,361.4362 51.375,361.4304 53.3719,361.4116 54.0375,361.4049 56.0343,361.3831 56.7,361.3753 58.6968,361.3502 59.3625,361.3412 61.3593,361.3123 62.0249,361.3019 64.0218,361.2686 64.6874,361.2567 66.6843,361.2184 67.3499,361.2047 69.3468,361.1607 70.0124,361.1451 72.0093,361.0947 72.6749,361.0768 74.6718,361.0193 75.3374,360.9988 77.3342,360.9331 77.9999,360.9098 79.9967,360.835 80.6624,360.8084 82.6592,360.7233 83.3248,360.6931 85.3217,360.5965 85.9873,360.5622 87.9842,360.4527 88.6498,360.4139 89.9811,360.3326 90.6467,360.2901 91.9779,360.201 92.6436,360.1543 93.9748,360.0568 94.6404,360.0058 95.9717,359.8991 96.6373,359.8433 97.9685,359.7267 98.6342,359.6658 99.9654,359.5385 100.631,359.472 101.9623,359.3332 102.6279,359.2607 103.9591,359.1095 104.6248,359.0306 105.956,358.866 106.6216,358.7801 107.9529,358.6011 108.6185,358.5079 109.9497,358.3134 110.6154,358.2121 111.9466,358.0011 112.6122,357.8913 113.9435,357.6626 114.6091,357.5435 115.9403,357.2958 116.606,357.167 117.9372,356.8989 118.6028,356.7596 119.9341,356.4699 120.5997,356.3194 121.9309,356.0066 122.5966,355.8441 123.9278,355.5067 124.5934,355.3316 125.9247,354.968 126.5903,354.7794 127.9215,354.388 128.5872,354.185 129.9184,353.7641 130.584,353.546 131.9153,353.0938 132.5809,352.8596 133.9121,352.3743 134.5778,352.1231 135.909,351.6028 136.5746,351.3335 137.9059,350.7763 138.5715,350.4881 139.9027,349.8919 140.5684,349.5837 141.8996,348.9466 142.5652,348.6173 143.8965,347.937 144.5621,347.5856 145.8933,346.86 146.559,346.4854 147.8902,345.7123 148.5558,345.3134 149.8871,344.4905 150.5527,344.0661 151.8839,343.1911 152.5496,342.7402 153.8808,341.8108 154.5464,341.3321 155.8777,340.346 156.5433,339.8384 157.8745,338.7932 158.5402,338.2555 159.8714,337.1489 160.537,336.5798 161.8683,335.4095 162.5339,334.8079 163.8651,333.5714 164.5308,332.9362 165.862,331.6312 166.5276,330.9612 167.8589,329.5854 168.5245,328.8795 169.8557,327.4307 170.5214,326.6876 171.187,325.932 171.8526,325.1636 172.5182,324.3824 173.1838,323.5882 173.8495,322.781 174.5151,321.9605 175.1807,321.1268 175.8463,320.2796 176.512,319.4189 177.1776,318.5446 177.8432,317.6566 178.5088,316.7547 179.1744,315.8388 179.8401,314.9089 180.5057,313.9649 181.1713,313.0067 181.8369,312.0341 182.5026,311.0471 183.1682,310.0455 183.8338,309.0294 184.4994,307.9986 185.165,306.9531 185.8307,305.8927 186.4963,304.8174 187.1619,303.7272 187.8275,302.6218 188.4932,301.5014 189.1588,300.3658 189.8244,299.215 190.49,298.0489 191.1556,296.8675 191.8213,295.6707 192.4869,294.4585 193.1525,293.2308 193.8181,291.9876 194.4838,290.7289 195.1494,289.4547 195.815,288.1648 196.4806,286.8594 197.1462,285.5384 197.8119,284.2017 198.4775,282.8494 199.1431,281.4815 199.8087,280.098 200.4744,278.6989 201.14,277.2842 201.8056,275.8539 202.4712,274.4081 203.1368,272.9467 203.8025,271.4699 204.4681,269.9776 205.1337,268.4699 205.7993,266.9468 206.465,265.4085 207.1306,263.8549 207.7962,262.2862 208.4618,260.7023 209.1274,259.1035 209.7931,257.4897 210.4587,255.8611 211.1243,254.2177 211.7899,252.5597 212.4556,250.8871 213.1212,249.2002 213.7868,247.4989 214.4524,245.7835 215.118,244.054 215.7837,242.3106 216.4493,240.5535 217.1149,238.7827 217.7805,236.9985 218.4462,235.201 219.1118,233.3904 219.7774,231.5669 220.443,229.7306 221.1086,227.8817 221.7743,226.0205 222.4399,224.1471 223.1055,222.2618 223.7711,220.3647 224.4368,218.4561 225.1024,216.5362 225.768,214.6052 226.4336,212.6635 227.0992,210.7111 227.7649,208.7485 228.4305,206.7758 229.0961,204.7933 229.7617,202.8013 230.4274,200.8001 231.093,198.79 231.7586,196.7711 232.4242,194.744 233.0898,192.7088 233.7555,190.6658 234.4211,188.6155 235.0867,186.558 235.7523,184.4938 236.418,182.4232 237.0836,180.3464 237.7492,178.264 238.4148,176.1761 239.0804,174.0832 239.7461,171.9857 240.4117,169.8838 241.0773,167.778 241.7429,165.6687 242.4086,163.5563 243.0742,161.441 243.7398,159.3234 244.4054,157.2039 245.071,155.0828 245.7367,152.9605 246.4023,150.8375 247.0679,148.7142 247.7335,146.591 248.3992,144.4683 249.0648,142.3466 249.7304,140.2262 250.396,138.1078 251.0616,135.9916 251.7273,133.8781 252.3929,131.7679 253.0585,129.6612 253.7241,127.5587 254.3898,125.4607 255.0554,123.3677 255.721,121.2802 256.3866,119.1987 257.0522,117.1235 257.7179,115.0553 258.3835,112.9944 259.0491,110.9413 259.7147,108.8966 260.3804,106.8607 261.046,104.834 261.7116,102.8171 262.3772,100.8104 263.0428,98.8144 263.7085,96.8296 264.3741,94.8565 265.0397,92.8956 265.7053,90.9473 266.371,89.0122 267.0366,87.0907 267.7022,85.1832 268.3678,83.2904 269.0334,81.4126 269.6991,79.5503 270.3647,77.704 271.0303,75.8743 271.6959,74.0615 272.3616,72.2661 273.0272,70.4886 273.6928,68.7295 274.3584,66.9892 275.024,65.2682 275.6897,63.5669 276.3553,61.8859 277.0209,60.2255 277.6865,58.5862 278.3522,56.9685 279.0178,55.3727 279.6834,53.7994 280.349,52.2489 281.0146,50.7217 281.6803,49.2181 282.3459,47.7387 283.0115,46.2839 283.6771,44.8539 284.3428,43.4493 285.0084,42.0704 285.674,40.7176 286.3396,39.3914 287.0052,38.0919 287.6709,36.8198 288.3365,35.5752 289.0021,34.3585 289.6677,33.1702 290.3334,32.0105 290.999,30.8798 291.6646,29.7784 292.3302,28.7066 292.9958,27.6648 293.6615,26.6532 294.3271,25.6721 294.9927,24.7218 295.6583,23.8026 296.324,22.9148 296.9896,22.0586 297.6552,21.2343 298.3208,20.442 298.9864,19.6822 300.3177,18.2603 300.9833,17.5988 302.3146,16.3755 302.9802,15.8141 304.3114,14.7926 304.977,14.3328 306.3083,13.5159 306.9739,13.1589 308.3052,12.5487 308.9708,12.2955 310.302,11.8936 310.9676,11.745 312.2989,11.5525 312.9645,11.5088 314.9614,11.5876 315.627,11.6838 316.9582,11.9811 317.6239,12.1821 318.9551,12.6884 319.6207,12.9935 320.952,13.7074 321.6176,14.1159 322.9488,15.0355 323.6145,15.5463 324.9457,16.6691 325.6113,17.2808 326.9426,18.6038 327.6082,19.3147 328.2738,20.0584 328.9394,20.8345 329.6051,21.6428 330.2707,22.4831 330.9363,23.3552 331.6019,24.2587 332.2676,25.1935 332.9332,26.1592 333.5988,27.1556 334.2644,28.1824 334.93,29.2393 335.5957,30.3259 336.2613,31.442 336.9269,32.5873 337.5925,33.7613 338.2582,34.9639 338.9238,36.1945 339.5894,37.453 340.255,38.7388 340.9206,40.0517 341.5863,41.3913 342.2519,42.7572 342.9175,44.149 343.5831,45.5664 344.2488,47.0089 344.9144,48.4761 345.58,49.9676 346.2456,51.483 346.9112,53.0219 347.5769,54.5839 348.2425,56.1685 348.9081,57.7753 349.5737,59.4039 350.2394,61.0538 350.905,62.7246 351.5706,64.4158 352.2362,66.127 352.9018,67.8577 353.5675,69.6075 354.2331,71.3758 354.8987,73.1623 355.5643,74.9665 356.23,76.7879 356.8956,78.6259 357.5612,80.4803 358.2268,82.3504 358.8924,84.2358 359.5581,86.136 360.2237,88.0505 360.8893,89.9789 361.5549,91.9207 362.2206,93.8754 362.8862,95.8425 363.5518,97.8215 364.2174,99.8119 364.883,101.8133 365.5487,103.8252 366.2143,105.847 366.8799,107.8784 367.5455,109.9188 368.2112,111.9677 368.8768,114.0248 369.5424,116.0894 370.208,118.1612 370.8736,120.2396 371.5393,122.3242 372.2049,124.4145 372.8705,126.51 373.5361,128.6103 374.2018,130.715 374.8674,132.8235 375.533,134.9354 376.1986,137.0503 376.8642,139.1677 377.5299,141.2871 378.1955,143.4082 378.8611,145.5304 379.5267,147.6534 380.1924,149.7768 380.858,151.9 381.5236,154.0227 382.1892,156.1444 382.8548,158.2648 383.5205,160.3834 384.1861,162.4999 384.8517,164.6138 385.5173,166.7247 386.183,168.8323 386.8486,170.9362 387.5142,173.0359 388.1798,175.1312 388.8454,177.2216 389.5111,179.3068 390.1767,181.3864 390.8423,183.4602 391.5079,185.5276 392.1736,187.5885 392.8392,189.6425 393.5048,191.6891 394.1704,193.7283 394.836,195.7595 395.5017,197.7825 396.1673,199.797 396.8329,201.8027 397.4985,203.7994 398.1642,205.7866 398.8298,207.7642 399.4954,209.7319 400.161,211.6895 400.8266,213.6365 401.4923,215.5729 402.1579,217.4984 402.8235,219.4127 403.4891,221.3155 404.1548,223.2068 404.8204,225.0862 405.486,226.9535 406.1516,228.8085 406.8172,230.6511 407.4829,232.4811 408.1485,234.2981 408.8141,236.1022 409.4797,237.8931 410.1454,239.6706 410.811,241.4345 411.4766,243.1848 412.1422,244.9212 412.8078,246.6437 413.4735,248.3521 414.1391,250.0462 414.8047,251.726 415.4703,253.3912 416.136,255.0419 416.8016,256.6779 417.4672,258.2992 418.1328,259.9055 418.7984,261.4968 419.4641,263.0731 420.1297,264.6343 420.7953,266.1802 421.4609,267.7109 422.1266,269.2263 422.7922,270.7263 423.4578,272.2109 424.1234,273.68 424.789,275.1336 425.4547,276.5716 426.1203,277.9941 426.7859,279.401 427.4515,280.7923 428.1172,282.168 428.7828,283.5281 429.4484,284.8726 430.114,286.2014 430.7796,287.5146 431.4453,288.8123 432.1109,290.0943 432.7765,291.3608 433.4421,292.6117 434.1078,293.8471 434.7734,295.0671 435.439,296.2716 436.1046,297.4607 436.7702,298.6344 437.4359,299.7928 438.1015,300.936 438.7671,302.064 439.4327,303.1769 440.0984,304.2746 440.764,305.3574 441.4296,306.4252 442.0952,307.4782 442.7608,308.5163 443.4265,309.5397 444.0921,310.5485 444.7577,311.5428 445.4233,312.5226 446.089,313.488 446.7546,314.4391 447.4202,315.3761 448.0858,316.2989 448.7514,317.2077 449.4171,318.1027 450.0827,318.9839 450.7483,319.8514 451.4139,320.7053 452.0796,321.5457 452.7452,322.3728 453.4108,323.1866 454.0764,323.9873 454.742,324.775 455.4077,325.5497 456.0733,326.3117 457.4045,327.7978 458.0702,328.5222 459.4014,329.9342 460.067,330.622 461.3983,331.9621 462.0639,332.6146 463.3951,333.885 464.0608,334.5032 465.392,335.7064 466.0576,336.2915 467.3889,337.4297 468.0545,337.983 469.3857,339.0585 470.0514,339.5811 471.3826,340.5964 472.0482,341.0894 473.3795,342.0469 474.0451,342.5115 475.3763,343.4134 476.042,343.8509 477.3732,344.6996 478.0388,345.111 479.3701,345.9088 480.0357,346.2953 481.3669,347.0445 482.0326,347.4073 483.3638,348.11 484.0294,348.4501 485.3607,349.1086 486.0263,349.4272 487.3575,350.0436 488.0232,350.3417 489.3544,350.9181 490.02,351.1967 491.3513,351.7352 492.0169,351.9953 493.3481,352.4979 494.0138,352.7405 495.345,353.209 496.0106,353.4351 497.3419,353.8714 498.0075,354.0818 499.3387,354.4877 500.0044,354.6834 501.3356,355.0607 502.0012,355.2425 503.3325,355.5928 503.9981,355.7614 505.3293,356.0863 505.995,356.2427 507.3262,356.5438 507.9918,356.6886 509.3231,356.9673 509.9887,357.1013 511.3199,357.359 511.9856,357.4829 513.3168,357.7209 513.9824,357.8353 515.3137,358.055 515.9793,358.1605 517.3105,358.3631 517.9762,358.4603 519.3074,358.6469 519.973,358.7363 521.3043,358.908 521.9699,358.9903 523.3011,359.1481 523.9668,359.2237 525.298,359.3687 525.9636,359.4381 527.2949,359.571 527.9605,359.6347 529.2917,359.7565 529.9574,359.8148 531.2886,359.9264 531.9542,359.9797 533.2855,360.0817 533.9511,360.1305 535.2823,360.2238 535.948,360.2683 537.2792,360.3534 537.9448,360.3941 539.2761,360.4717 539.9417,360.5088 541.9386,360.6132 542.6042,360.6459 544.601,360.7381 545.2667,360.7669 547.2635,360.8479 547.9292,360.8733 549.926,360.9445 550.5916,360.9668 552.5885,361.0293 553.2541,361.0488 555.251,361.1035 555.9166,361.1205 557.9135,361.1684 558.5791,361.1833 560.576,361.225 561.2416,361.238 563.2385,361.2744 563.9041,361.2857 565.901,361.3173 566.5666,361.3271 568.5634,361.3546 569.2291,361.3631 571.2259,361.3869 571.8916,361.3943 573.8884,361.4149 574.554,361.4213 576.5509,361.4391 577.2165,361.4446 579.2134,361.4599 579.879,361.4646 581.8759,361.4778 582.5415,361.4819 584.5384,361.4933 585.204,361.4968 585.8696,361.5001 586.5352,361.5034" style="fill:none;stroke:rgb(255,0,0);stroke-width:3;stroke-linejoin:bevel" />
  <polyline points="40.0594,340.3368 40.725,340.1178 42.0563,339.6747 42.7219,339.4505 44.0531,338.9969 44.7188,338.7675 46.05,338.3035 46.7156,338.0688 48.0469,337.5941 48.7125,337.3541 50.0437,336.8687 50.7094,336.6233 52.0406,336.1271 52.7062,335.8763 54.0375,335.3691 54.7031,335.1128 56.0343,334.5947 56.7,334.3328 58.0312,333.8035 58.6968,333.5361 60.0281,332.9957 60.6937,332.7226 62.0249,332.1709 62.6906,331.8922 64.0218,331.3292 64.6874,331.0448 66.0187,330.4704 66.6843,330.1803 68.0155,329.5944 68.6812,329.2985 70.0124,328.7011 70.678,328.3995 72.0093,327.7905 72.6749,327.4831 74.0061,326.8625 74.6718,326.5492 76.003,325.917 76.6686,325.5979 77.9999,324.954 78.6655,324.6291 79.9967,323.9734 80.6624,323.6427 81.9936,322.9754 82.6592,322.6387 83.9905,321.9597 84.6561,321.6172 85.9873,320.9264 86.653,320.5781 87.9842,319.8756 88.6498,319.5215 89.9811,318.8073 90.6467,318.4473 91.9779,317.7215 92.6436,317.3556 93.9748,316.6182 94.6404,316.2466 95.9717,315.4975 96.6373,315.1201 97.9685,314.3596 98.6342,313.9764 99.9654,313.2044 100.631,312.8155 101.9623,312.0321 102.6279,311.6375 103.9591,310.8428 104.6248,310.4426 105.956,309.6367 106.6216,309.2309 107.9529,308.4138 108.6185,308.0025 109.9497,307.1744 110.6154,306.7576 111.9466,305.9187 112.6122,305.4965 113.9435,304.6467 114.6091,304.2192 115.9403,303.3588 116.606,302.926 117.9372,302.0552 118.6028,301.6172 119.9341,300.7361 120.5997,300.2929 121.9309,299.4017 122.5966,298.9536 123.9278,298.0523 124.5934,297.5993 125.9247,296.6883 126.5903,296.2304 127.9215,295.3099 128.5872,294.8473 129.9184,293.9175 130.584,293.4503 131.9153,292.5113 132.5809,292.0396 133.9121,291.0918 134.5778,290.6157 135.909,289.6593 136.5746,289.179 137.9059,288.2142 138.5715,287.7297 139.9027,286.7568 140.5684,286.2684 141.8996,285.2878 142.5652,284.7955 143.8965,283.8073 144.5621,283.3114 145.8933,282.316 146.559,281.8165 147.8902,280.8142 148.5558,280.3114 149.8871,279.3025 150.5527,278.7965 151.8839,277.7814 152.5496,277.2724 153.8808,276.2514 154.5464,275.7395 155.8777,274.7129 156.5433,274.1984 157.8745,273.1667 158.5402,272.6496 159.8714,271.6131 160.537,271.0937 161.8683,270.0528 162.5339,269.5314 163.8651,268.4865 164.5308,267.9631 165.862,266.9146 166.5276,266.3895 167.8589,265.3379 168.5245,264.8113 169.8557,263.7569 170.5214,263.229 171.8526,262.1722 172.5182,261.6434 173.8495,260.5847 174.5151,260.055 175.8463,258.9949 176.512,258.4646 177.8432,257.4035 178.5088,256.8728 179.8401,255.8112 180.5057,255.2804 181.8369,254.2187 182.5026,253.688 183.8338,252.6268 184.4994,252.0964 185.8307,251.0362 186.4963,250.5064 187.8275,249.4475 188.4932,248.9186 189.8244,247.8616 190.49,247.3338 191.8213,246.2793 192.4869,245.7527 193.8181,244.7012 194.4838,244.1763 195.815,243.1282 196.4806,242.6051 197.8119,241.561 198.4775,241.04 199.8087,240.0004 200.4744,239.4818 201.8056,238.4473 202.4712,237.9313 203.8025,236.9023 204.4681,236.3893 205.7993,235.3664 206.465,234.8566 207.7962,233.8403 208.4618,233.334 209.7931,232.3249 210.4587,231.8222 211.7899,230.8209 212.4556,230.3222 213.7868,229.3291 214.4524,228.8347 215.7837,227.8504 216.4493,227.3606 217.7805,226.3856 218.4462,225.9006 219.7774,224.9356 220.443,224.4556 221.7743,223.501 222.4399,223.0264 223.7711,222.0828 224.4368,221.6138 225.768,220.6817 226.4336,220.2186 227.7649,219.2985 228.4305,218.8416 229.7617,217.9341 230.4274,217.4836 231.7586,216.5892 232.4242,216.1454 233.7555,215.2647 234.4211,214.8279 235.7523,213.9613 236.418,213.5317 237.7492,212.6798 238.4148,212.2576 239.7461,211.4209 240.4117,211.0065 241.7429,210.1855 242.4086,209.779 243.7398,208.9743 244.4054,208.576 245.7367,207.7879 246.4023,207.3982 247.7335,206.6272 248.3992,206.2462 249.7304,205.4929 250.396,205.1208 251.7273,204.3857 252.3929,204.0227 253.7241,203.3062 254.3898,202.9526 255.721,202.2551 256.3866,201.9112 257.7179,201.2332 258.3835,200.8991 259.7147,200.241 260.3804,199.917 261.7116,199.2792 262.3772,198.9654 263.7085,198.3483 264.3741,198.0451 265.7053,197.4491 266.371,197.1565 267.7022,196.5821 268.3678,196.3003 269.6991,195.7478 270.3647,195.477 271.6959,194.9467 272.3616,194.6872 273.6928,194.1795 274.3584,193.9313 275.6897,193.4466 276.3553,193.2099 277.6865,192.7484 278.3522,192.5235 279.6834,192.0855 280.349,191.8724 281.6803,191.4583 282.3459,191.2572 283.6771,190.8671 284.3428,190.6782 285.674,190.3125 286.3396,190.1358 287.6709,189.7947 288.3365,189.6303 289.6677,189.3141 290.3334,189.1622 291.6646,188.871 292.3302,188.7317 293.6615,188.4658 294.3271,188.3391 295.6583,188.0986 296.324,187.9847 297.6552,187.7697 298.3208,187.6687 299.6521,187.4795 300.3177,187.3913 301.6489,187.2279 302.3146,187.1527 303.6458,187.0153 304.3114,186.9531 305.6427,186.8417 306.3083,186.7926 307.6395,186.7074 308.3052,186.6713 310.302,186.5893 310.9676,186.5707 312.9645,186.5412 313.6301,186.5401 315.627,186.563 316.2926,186.5795 318.2895,186.6549 318.9551,186.6888 320.2864,186.7697 320.952,186.8166 322.2832,186.9237 322.9488,186.9837 324.2801,187.1168 324.9457,187.1898 326.277,187.3489 326.9426,187.4349 328.2738,187.6198 328.9394,187.7187 330.2707,187.9294 330.9363,188.0412 332.2676,188.2774 332.9332,188.402 334.2644,188.6637 334.93,188.8009 336.2613,189.0879 336.9269,189.2377 338.2582,189.5498 338.9238,189.7121 340.255,190.049 340.9206,190.2237 342.2519,190.5853 342.9175,190.7722 344.2488,191.1583 344.9144,191.3573 346.2456,191.7675 346.9112,191.9786 348.2425,192.4126 348.9081,192.6356 350.2394,193.0932 350.905,193.3279 352.2362,193.8088 352.9018,194.055 354.2331,194.559 354.8987,194.8166 356.23,195.3432 356.8956,195.612 358.2268,196.1609 358.8924,196.4408 360.2237,197.0117 360.8893,197.3025 362.2206,197.8949 362.8862,198.1964 364.2174,198.81 364.883,199.122 366.2143,199.7564 366.8799,200.0787 368.2112,200.7335 368.8768,201.0659 370.208,201.7406 370.8736,202.0829 372.2049,202.7772 372.8705,203.1292 374.2018,203.8426 374.8674,204.204 376.1986,204.936 376.8642,205.3066 378.1955,206.0569 378.8611,206.4365 380.1924,207.2045 380.858,207.5929 382.1892,208.3781 382.8548,208.775 384.1861,209.577 384.8517,209.9821 386.183,210.8004 386.8486,211.2136 388.1798,212.0477 388.8454,212.4686 390.1767,213.3179 390.8423,213.7464 392.1736,214.6105 392.8392,215.0462 394.1704,215.9246 394.836,216.3672 396.1673,217.2594 396.8329,217.7088 398.1642,218.6141 398.8298,219.07 400.161,219.988 400.8266,220.4501 402.1579,221.3802 402.8235,221.8482 404.1548,222.79 404.8204,223.2637 406.1516,224.2165 406.8172,224.6956 408.1485,225.6589 408.8141,226.1431 410.1454,227.1165 410.811,227.6055 412.1422,228.5883 412.8078,229.082 414.1391,230.0736 414.8047,230.5716 416.136,231.5716 416.8016,232.0736 418.1328,233.0814 418.7984,233.5872 420.1297,234.6023 420.7953,235.1116 422.1266,236.1334 422.7922,236.6459 424.1234,237.674 424.789,238.1894 426.1203,239.2231 426.7859,239.7412 428.1172,240.78 428.7828,241.3006 430.114,242.344 430.7796,242.8668 432.1109,243.9142 432.7765,244.4389 434.1078,245.4899 434.7734,246.0162 436.1046,247.0702 436.7702,247.5979 438.1015,248.6544 438.7671,249.1832 440.0984,250.2418 440.764,250.7715 442.0952,251.8315 442.7608,252.3618 444.0921,253.4229 444.7577,253.9536 446.089,255.0152 446.7546,255.546 448.0858,256.6076 448.7514,257.1384 450.0827,258.1996 450.7483,258.73 452.0796,259.7903 452.7452,260.3201 454.0764,261.379 454.742,261.9081 456.0733,262.9652 456.7389,263.4932 458.0702,264.5481 458.7358,265.0749 460.067,266.127 460.7326,266.6524 462.0639,267.7014 462.7295,268.2251 464.0608,269.2706 464.7264,269.7924 466.0576,270.834 466.7232,271.3537 468.0545,272.391 468.7201,272.9085 470.0514,273.941 470.717,274.456 472.0482,275.4834 472.7138,275.9958 474.0451,277.0177 474.7107,277.5272 476.042,278.5434 476.7076,279.0499 478.0388,280.0598 478.7044,280.5632 480.0357,281.5666 480.7013,282.0666 482.0326,283.0632 482.6982,283.5597 484.0294,284.5491 484.695,285.042 486.0263,286.024 486.6919,286.513 488.0232,287.4872 488.6888,287.9723 490.02,288.9385 490.6856,289.4195 492.0169,290.3773 492.6825,290.8541 494.0138,291.8034 494.6794,292.2759 496.0106,293.2163 496.6762,293.6843 498.0075,294.6156 498.6731,295.079 500.0044,296.0011 500.67,296.4598 502.0012,297.3723 502.6668,297.8262 503.9981,298.7291 504.6637,299.178 505.995,300.071 506.6606,300.5149 507.9918,301.3977 508.6574,301.8366 509.9887,302.7091 510.6543,303.1428 511.9856,304.0049 512.6512,304.4334 513.9824,305.2849 514.648,305.708 515.9793,306.5488 516.6449,306.9664 517.9762,307.7963 518.6418,308.2086 519.973,309.0275 520.6386,309.4342 521.9699,310.242 522.6355,310.6431 523.9668,311.4397 524.6324,311.8352 525.9636,312.6205 526.6292,313.0103 527.9605,313.7843 528.6261,314.1684 529.9574,314.9309 530.623,315.3092 531.9542,316.0602 532.6198,316.4328 533.9511,317.1722 534.6167,317.539 535.948,318.2667 536.6136,318.6277 537.9448,319.3438 538.6104,319.699 539.9417,320.4034 540.6073,320.7527 541.9386,321.4454 542.6042,321.7888 543.9354,322.4699 544.601,322.8074 545.9323,323.4767 546.5979,323.8085 547.9292,324.466 548.5948,324.7919 549.926,325.4378 550.5916,325.7578 551.9229,326.392 552.5885,326.7062 553.9198,327.3288 554.5854,327.6372 555.9166,328.2481 556.5822,328.5507 557.9135,329.15 558.5791,329.4468 559.9104,330.0347 560.576,330.3257 561.9072,330.9021 562.5728,331.1874 563.9041,331.7523 564.5697,332.0319 565.901,332.5855 566.5666,332.8595 567.8978,333.4018 568.5634,333.6702 569.8947,334.2013 570.5603,334.4641 571.8916,334.9841 572.5572,335.2413 573.8884,335.7503 574.554,336.002 575.8853,336.5001 576.5509,336.7464 577.8822,337.2335 578.5478,337.4745 579.879,337.9509 580.5446,338.1865 581.8759,338.6523 582.5415,338.8826 583.8728,339.3379 584.5384,339.5629 585.8696,340.0078 586.5352,340.2276" style="fill:none;stroke:rgb(60,179,113);stroke-width:3;stroke-linejoin:bevel" />
  <polyline points="40.0594,358.7801 40.725,358.6919 42.0563,358.5079 42.7219,358.412 44.0531,358.2121 44.7188,358.1081 46.05,357.8913 46.7156,357.7785 48.0469,357.5435 48.7125,357.4213 50.0437,357.167 50.7094,357.0347 52.0406,356.7596 52.7062,356.6166 54.0375,356.3194 54.7031,356.165 56.0343,355.8441 56.7,355.6776 58.0312,355.3316 58.6968,355.1521 60.0281,354.7794 60.6937,354.5861 62.0249,354.185 62.6906,353.9771 64.0218,353.546 64.6874,353.3226 66.0187,352.8596 66.6843,352.6198 68.0155,352.1231 68.6812,351.8659 70.0124,351.3335 70.678,351.0581 72.0093,350.4881 72.6749,350.1934 74.0061,349.5837 74.6718,349.2687 76.003,348.6173 76.6686,348.2808 77.9999,347.5856 78.6655,347.2267 79.9967,346.4854 80.6624,346.1029 81.9936,345.3134 82.6592,344.9062 83.9905,344.0661 84.6561,343.6331 85.9873,342.7402 86.653,342.2801 87.9842,341.3321 88.6498,340.8439 89.9811,339.8384 90.6467,339.3208 91.9779,338.2555 92.6436,337.7074 93.9748,336.5798 94.6404,336.0001 95.9717,334.8079 96.6373,334.1953 97.9685,332.9362 98.6342,332.2895 99.9654,330.9612 100.631,330.2793 101.9623,328.8795 102.6279,328.1613 103.9591,326.6876 104.6248,325.932 105.2904,325.1636 105.956,324.3824 106.6216,323.5882 107.2872,322.781 107.9529,321.9605 108.6185,321.1268 109.2841,320.2796 109.9497,319.4189 110.6154,318.5446 111.281,317.6566 111.9466,316.7547 112.6122,315.8388 113.2778,314.9089 113.9435,313.9649 114.6091,313.0067 115.2747,312.0341 115.9403,311.0471 116.606,310.0455 117.2716,309.0294 117.9372,307.9986 118.6028,306.9531 119.2684,305.8927 119.9341,304.8174 120.5997,303.7272 121.2653,302.6218 121.9309,301.5014 122.5966,300.3658 123.2622,299.215 123.9278,298.0489 124.5934,296.8675 125.259,295.6707 125.9247,294.4585 126.5903,293.2308 127.2559,291.9876 127.9215,290.7289 128.5872,289.4547 129.2528,288.1648 129.9184,286.8594 130.584,285.5384 131.2496,284.2017 131.9153,282.8494 132.5809,281.4815 133.2465,280.098 133.9121,278.6989 134.5778,277.2842 135.2434,275.8539 135.909,274.4081 136.5746,272.9467 137.2402,271.4699 137.9059,269.9776 138.5715,268.4699 139.2371,266.9468 139.9027,265.4085 140.5684,263.8549 141.234,262.2862 141.8996,260.7023 142.5652,259.1035 143.2308,257.4897 143.8965,255.8611 144.5621,254.2177 145.2277,252.5597 145.8933,250.8871 146.559,249.2002 147.2246,247.4989 147.8902,245.7835 148.5558,244.054 149.2214,242.3106 149.8871,240.5535 150.5527,238.7827 151.2183,236.9985 151.8839,235.201 152.5496,233.3904 153.2152,231.5669 153.8808,229.7306 154.5464,227.8817 155.212,226.0205 155.8777,224.1471 156.5433,222.2618 157.2089,220.3647 157.8745,218.4561 158.5402,216.5362 159.2058,214.6052 159.8714,212.6635 160.537,210.7111 161.2026,208.7485 161.8683,206.7758 162.5339,204.7933 163.1995,202.8013 163.8651,200.8001 164.5308,198.79 165.1964,196.7711 165.862,194.744 166.5276,192.7088 167.1932,190.6658 167.8589,188.6155 168.5245,186.558 169.1901,184.4938 169.8557,182.4232 170.5214,180.3464 171.187,178.264 171.8526,176.1761 172.5182,174.0832 173.1838,171.9857 173.8495,169.8838 174.5151,167.778 175.1807,165.6687 175.8463,163.5563 176.512,161.441 177.1776,159.3234 177.8432,157.2039 178.5088,155.0828 179.1744,152.9605 179.8401,150.8375 180.5057,148.7142 181.1713,146.591 181.8369,144.4683 182.5026,142.3466 183.1682,140.2262 183.8338,138.1078 184.4994,135.9916 185.165,133.8781 185.8307,131.7679 186.4963,129.6612 187.1619,127.5587 187.8275,125.4607 188.4932,123.3677 189.1588,121.2802 189.8244,119.1987 190.49,117.1235 191.1556,115.0553 191.8213,112.9944 192.4869,110.9413 193.1525,108.8966 193.8181,106.8607 194.4838,104.834 195.1494,102.8171 195.815,100.8104 196.4806,98.8144 197.1462,96.8296 197.8119,94.8565 198.4775,92.8956 199.1431,90.9473 199.8087,89.0122 200.4744,87.0907 201.14,85.1832 201.8056,83.2904 202.4712,81.4126 203.1368,79.5503 203.8025,77.704 204.4681,75.8743 205.1337,74.0615 205.7993,72.2661 206.465,70.4886 207.1306,68.7295 207.7962,66.9892 208.4618,65.2682 209.1274,63.5669 209.7931,61.8859 210.4587,60.2255 211.1243,58.5862 211.7899,56.9685 212.4556,55.3727 213.1212,53.7994 213.7868,52.2489 214.4524,50.7217 215.118,49.2181 215.7837,47.7387 216.4493,46.2839 217.1149,44.8539 217.7805,43.4493 218.4462,42.0704 219.1118,40.7176 219.7774,39.3914 220.443,38.0919 221.1086,36.8198 221.7743,35.5752 222.4399,34.3585 223.1055,33.1702 223.7711,32.0105 224.4368,30.8798 225.1024,29.7784 225.768,28.7066 226.4336,27.6648 227.0992,26.6532 227.7649,25.6721 228.4305,24.7218 229.0961,23.8026 229.7617,22.9148 230.4274,22.0586 231.093,21.2343 231.7586,20.442 232.4242,19.6822 233.7555,18.2603 234.4211,17.5988 235.7523,16.3755 236.418,15.8141 237.7492,14.7926 238.4148,14.3328 239.7461,13.5159 240.4117,13.1589 241.7429,12.5487 242.4086,12.2955 243.7398,11.8936 244.4054,11.745 245.7367,11.5525 246.4023,11.5088 248.3992,11.5876 249.0648,11.6838 250.396,11.9811 251.0616,12.1821 252.3929,12.6884 253.0585,12.9935 254.3898,13.7074 255.0554,14.1159 256.3866,15.0355 257.0522,15.5463 258.3835,16.6691 259.0491,17.2808 260.3804,18.6038 261.046,19.3147 261.7116,20.0584 262.3772,20.8345 263.0428,21.6428 263.7085,22.4831 264.3741,23.3552 265.0397,24.2587 265.7053,25.1935 266.371,26.1592 267.0366,27.1556 267.7022,28.1824 268.3678,29.2393 269.0334,30.3259 269.6991,31.442 270.3647,32.5873 271.0303,33.7613 271.6959,34.9639 272.3616,36.1945 273.0272,37.453 273.6928,38.7388 274.3584,40.0517 275.024,41.3913 275.6897,42.7572 276.3553,44.149 277.0209,45.5664 277.6865,47.0089 278.3522,48.4761 279.0178,49.9676 279.6834,51.483 280.349,53.0219 281.0146,54.5839 281.6803,56.1685 282.3459,57.7753 283.0115,59.4039 283.6771,61.0538 284.3428,62.7246 285.0084,64.4158 285.674,66.127 286.3396,67.8577 287.0052,69.6075 287.6709,71.3758 288.3365,73.1623 289.0021,74.9665 289.6677,76.7879 290.3334,78.6259 290.999,80.4803 291.6646,82.3504 292.3302,84.2358 292.9958,86.136 293.6615,88.0505 294.3271,89.9789 294.9927,91.9207 295.6583,93.8754 296.324,95.8425 296.9896,97.8215 297.6552,99.8119 298.3208,101.8133 298.9864,103.8252 299.6521,105.847 300.3177,107.8784 300.9833,109.9188 301.6489,111.9677 302.3146,114.0248 302.9802,116.0894 303.6458,118.1612 304.3114,120.2396 304.977,122.3242 305.6427,124.4145 306.3083,126.51 306.9739,128.6103 307.6395,130.715 308.3052,132.8235 308.9708,134.9354 309.6364,137.0503 310.302,139.1677 310.9676,141.2871 311.6333,143.4082 312.2989,145.5304 312.9645,147.6534 313.6301,149.7768 314.2958,151.9 314.9614,154.0227 315.627,156.1444 316.2926,158.2648 316.9582,160.3834 317.6239,162.4999 318.2895,164.6138 318.9551,166.7247 319.6207,168.8323 320.2864,170.9362 320.952,173.0359 321.6176,175.1312 322.2832,177.2216 322.9488,179.3068 323.6145,181.3864 324.2801,183.4602 324.9457,185.5276 325.6113,187.5885 326.277,189.6425 326.9426,191.6891 327.6082,193.7283 328.2738,195.7595 328.9394,197.7825 329.6051,199.797 330.2707,201.8027 330.9363,203.7994 331.6019,205.7866 332.2676,207.7642 332.9332,209.7319 333.5988,211.6895 334.2644,213.6365 334.93,215.5729 335.5957,217.4984 336.2613,219.4127 336.9269,221.3155 337.5925,223.2068 338.2582,225.0862 338.9238,226.9535 339.5894,228.8085 340.255,230.6511 340.9206,232.4811 341.5863,234.2981 342.2519,236.1022 342.9175,237.8931 343.5831,239.6706 344.2488,241.4345 344.9144,243.1848 345.58,244.9212 346.2456,246.6437 346.9112,248.3521 347.5769,250.0462 348.2425,251.726 348.9081,253.3912 349.5737,255.0419 350.2394,256.6779 350.905,258.2992 351.5706,259.9055 352.2362,261.4968 352.9018,263.0731 353.5675,264.6343 354.2331,266.1802 354.8987,267.7109 355.5643,269.2263 356.23,270.7263 356.8956,272.2109 357.5612,273.68 358.2268,275.1336 358.8924,276.5716 359.5581,277.9941 360.2237,279.401 360.8893,280.7923 361.5549,282.168 362.2206,283.5281 362.8862,284.8726 363.5518,286.2014 364.2174,287.5146 364.883,288.8123 365.5487,290.0943 366.2143,291.3608 366.8799,292.6117 367.5455,293.8471 368.2112,295.0671 368.8768,296.2716 369.5424,297.4607 370.208,298.6344 370.8736,299.7928 371.5393,300.936 372.2049,302.064 372.8705,303.1769 373.5361,304.2746 374.2018,305.3574 374.8674,306.4252 375.533,307.4782 376.1986,308.5163 376.8642,309.5397 377.5299,310.5485 378.1955,311.5428 378.8611,312.5226 379.5267,313.488 380.1924,314.4391 380.858,315.3761 381.5236,316.2989 382.1892,317.2077 382.8548,318.1027 383.5205,318.9839 384.1861,319.8514 384.8517,320.7053 385.5173,321.5457 386.183,322.3728 386.8486,323.1866 387.5142,323.9873 388.1798,324.775 388.8454,325.5497 389.5111,326.3117 390.8423,327.7978 391.5079,328.5222 392.8392,329.9342 393.5048,330.622 394.836,331.9621 395.5017,332.6146 396.8329,333.885 397.4985,334.5032 398.8298,335.7064 399.4954,336.2915 400.8266,337.4297 401.4923,337.983 402.8235,339.0585 403.4891,339.5811 404.8204,340.5964 405.486,341.0894 406.8172,342.0469 407.4829,342.5115 408.8141,343.4134 409.4797,343.8509 410.811,344.6996 411.4766,345.111 412.8078,345.9088 413.4735,346.2953 414.8047,347.0445 415.4703,347.4073 416.8016,348.11 417.4672,348.4501 418.7984,349.1086 419.4641,349.4272 420.7953,350.0436 421.4609,350.3417 422.7922,350.9181 423.4578,351.1967 424.789,351.7352 425.4547,351.9953 426.7859,352.4979 427.4515,352.7405 428.7828,353.209 429.4484,353.4351 430.7796,353.8714 431.4453,354.0818 432.7765,354.4877 433.4421,354.6834 434.7734,355.0607 435.439,355.2425 436.7702,355.5928 437.4359,355.7614 438.7671,356.0863 439.4327,356.2427 440.764,356.5438 441.4296,356.6886 442.7608,356.9673 443.4265,357.1013 444.7577,357.359 445.4233,357.4829 446.7546,357.7209 447.4202,357.8353 448.7514,358.055 449.4171,358.1605 450.7483,358.3631 451.4139,358.4603 452.7452,358.6469 453.4108,358.7363 454.742,358.908 455.4077,358.9903 456.7389,359.1481 457.4045,359.2237 458.7358,359.3687 459.4014,359.4381 460.7326,359.571 461.3983,359.6347 462.7295,359.7565 463.3951,359.8148 464.7264,359.9264 465.392,359.9797 466.7232,360.0817 467.3889,360.1305 468.7201,360.2238 469.3857,360.2683 470.717,360.3534 471.3826,360.3941 472.7138,360.4717 473.3795,360.5088 475.3763,360.6132 476.042,360.6459 478.0388,360.7381 478.7044,360.7669 480.7013,360.8479 481.3669,360.8733 483.3638,360.9445 484.0294,360.9668 486.0263,361.0293 486.6919,361.0488 488.6888,361.1035 489.3544,361.1205 491.3513,361.1684 492.0169,361.1833 494.0138,361.225 494.6794,361.238 496.6762,361.2744 497.3419,361.2857 499.3387,361.3173 500.0044,361.3271 502.0012,361.3546 502.6668,361.3631 504.6637,361.3869 505.3293,361.3943 507.3262,361.4149 507.9918,361.4213 509.9887,361.4391 510.6543,361.4446 512.6512,361.4599 513.3168,361.4646 515.3137,361.4778 515.9793,361.4819 517.9762,361.4933 518.6418,361.4968 520.6386,361.5065 521.3043,361.5095 523.3011,361.5178 523.9668,361.5204 525.9636,361.5275 526.6292,361.5297 528.6261,361.5358 529.2917,361.5377 531.2886,361.5429 531.9542,361.5445 533.9511,361.5489 534.6167,361.5502 536.6136,361.554 537.2792,361.5551 539.2761,361.5583 539.9417,361.5593 541.9386,361.5619 542.6042,361.5628 544.601,361.565 545.2667,361.5657 547.2635,361.5676 547.9292,361.5682 549.926,361.5698 550.5916,361.5703 552.5885,361.5717 553.2541,361.5721 555.251,361.5732 555.9166,361.5736 557.9135,361.5745 558.5791,361.5748 560.576,361.5756 561.2416,361.5759 563.2385,361.5765 563.9041,361.5767 565.901,361.5773 566.5666,361.5775 568.5634,361.5779 569.2291,361.5781 571.2259,361.5785 571.8916,361.5786 573.8884,361.5789 574.554,361.579 576.5509,361.5793 577.2165,361.5793 579.2134,361.5796 579.879,361.5796 581.8759,361.5798 582.5415,361.5799 584.5384,361.58 585.204,361.58 585.8696,361.5801 586.5352,361.5801" style="fill:none;stroke:rgb(128,128,0);stroke-width:3;stroke-linejoin:bevel" />
  <polygon points="34.54,8 592,8 592,365.04 34.54,365.04" style="fill:none;stroke:black;stroke-width:1" />
  <polygon points="434.2133,16 584,16 584,79.88 434.2133,79.88" style="fill:none;stroke:none;" />
  <text dominant-baseline="hanging" text-anchor="start" transform="translate(462.2133,24)" font-family="Segoe UI" font-size="12" font-weight="400" fill="black">Normal(μ = 0, σ = 1)</text>
  <polyline points="442.2133,31.98 458.2133,31.98" style="fill:none;stroke:rgb(255,0,0);stroke-width:3" />
  <text dominant-baseline="hanging" text-anchor="start" transform="translate(462.2133,39.96)" font-family="Segoe UI" font-size="12" font-weight="400" fill="black">Normal(μ = 0, σ = 2)</text>
  <polyline points="442.2133,47.94 458.2133,47.94" style="fill:none;stroke:rgb(60,179,113);stroke-width:3" />
  <text dominant-baseline="hanging" text-anchor="start" transform="translate(462.2133,55.92)" font-family="Segoe UI" font-size="12" font-weight="400" fill="black">Normal(μ = -1, σ = 1)</text>
  <polyline points="442.2133,63.9 458.2133,63.9" style="fill:none;stroke:rgb(128,128,0);stroke-width:3" />
</svg>