<?xml version="1.0" encoding="utf-8" standalone="no"?>
<!DOCTYPE svg PUBLIC "-//W3C//DTD SVG 1.1//EN" "http://www.w3.org/Graphics/SVG/1.1/DTD/svg11.dtd">
<svg width="600" height="400" version="1.1" xmlns:xlink="http://www.w3.org/1999/xlink" xmlns="http://www.w3.org/2000/svg">
  <polyline points="34.54,346.592 30.54,346.592" style="fill:none;stroke:black;stroke-width:1" />
  <polyline points="34.54,331.4104 30.54,331.4104" style="fill:none;stroke:black;stroke-width:1" />
  <polyline points="34.54,316.2287 30.54,316.2287" style="fill:none;stroke:black;stroke-width:1" />
  <polyline points="34.54,285.8654 30.54,285.8654" style="fill:none;stroke:black;stroke-width:1" />
  <polyline points="34.54,270.6838 30.54,270.6838" style="fill:none;stroke:black;stroke-width:1" />
  <polyline points="34.54,255.5021 30.54,255.5021" style="fill:none;stroke:black;stroke-width:1" />
  <polyline points="34.54,225.1388 30.54,225.1388" style="fill:none;stroke:black;stroke-width:1" />
  <polyline points="34.54,209.9571 30.54,209.9571" style="fill:none;stroke:black;stroke-width:1" />
  <polyline points="34.54,194.7755 30.54,194.7755" style="fill:none;stroke:black;stroke-width:1" />
  <polyline points="34.54,164.4122 30.54,164.4122" style="fill:none;stroke:black;stroke-width:1" />
  <polyline points="34.54,149.2305 30.54,149.2305" style="fill:none;stroke:black;stroke-width:1" />
  <polyline points="34.54,134.0489 30.54,134.0489" style="fill:none;stroke:black;stroke-width:1" />
  <polyline points="34.54,103.6856 30.54,103.6856" style="fill:none;stroke:black;stroke-width:1" />
  <polyline points="34.54,88.5039 30.54,88.5039" style="fill:none;stroke:black;stroke-width:1" />
  <polyline points="34.54,73.3223 30.54,73.3223" style="fill:none;stroke:black;stroke-width:1" />
  <polyline points="34.54,42.9589 30.54,42.9589" style="fill:none;stroke:black;stroke-width:1" />
  <polyline points="34.54,27.7773 30.54,27.7773" style="fill:none;stroke:black;stroke-width:1" />
  <polyline points="34.54,12.5956 30.54,12.5956" style="fill:none;stroke:black;stroke-width:1" />
  <polyline points="62.8652,365.04 62.8652,369.04" style="fill:none;stroke:black;stroke-width:1" />
  <polyline points="86.3191,365.04 86.3191,369.04" style="fill:none;stroke:black;stroke-width:1" />
  <polyline points="109.773,365.04 109.773,369.04" style="fill:none;stroke:black;stroke-width:1" />
  <polyline points="156.6808,365.04 156.6808,369.04" style="fill:none;stroke:black;stroke-width:1" />
  <polyline points="180.1347,365.04 180.1347,369.04" style="fill:none;stroke:black;stroke-width:1" />
  <polyline points="203.5886,365.04 203.5886,369.04" style="fill:none;stroke:black;stroke-width:1" />
  <polyline points="250.4964,365.04 250.4964,369.04" style="fill:none;stroke:black;stroke-width:1" />
  <polyline points="273.9503,365.04 273.9503,369.04" style="fill:none;stroke:black;stroke-width:1" />
  <polyline points="297.4042,365.04 297.4042,369.04" style="fill:none;stroke:black;stroke-width:1" />
  <polyline points="344.312,365.04 344.312,369.04" style="fill:none;stroke:black;stroke-width:1" />
  <polyline points="367.7659,365.04 367.7659,369.04" style="fill:none;stroke:black;stroke-width:1" />
  <polyline points="391.2198,365.04 391.2198,369.04" style="fill:none;stroke:black;stroke-width:1" />
  <polyline points="438.1276,365.04 438.1276,369.04" style="fill:none;stroke:black;stroke-width:1" />
  <polyline points="461.5815,365.04 461.5815,369.04" style="fill:none;stroke:black;stroke-width:1" />
  <polyline points="485.0354,365.04 485.0354,369.04" style="fill:none;stroke:black;stroke-width:1" />
  <polyline points="531.9432,365.04 531.9432,369.04" style="fill:none;stroke:black;stroke-width:1" />
  <polyline points="555.3971,365.04 555.3971,369.04" style="fill:none;stroke:black;stroke-width:1" />
  <polyline points="578.851,365.04 578.851,369.04" style="fill:none;stroke:black;stroke-width:1" />
  <text dominant-baseline="middle" text-anchor="end" transform="translate(23.54,361.7737)" font-family="Segoe UI" font-size="12" font-weight="400" fill="black">0</text>
  <text dominant-baseline="middle" text-anchor="end" transform="translate(23.54,301.0471)" font-family="Segoe UI" font-size="12" font-weight="400" fill="black">0.2</text>
  <text dominant-baseline="middle" text-anchor="end" transform="translate(23.54,240.3205)" font-family="Segoe UI" font-size="12" font-weight="400" fill="black">0.4</text>
  <text dominant-baseline="middle" text-anchor="end" transform="translate(23.54,179.5938)" font-family="Segoe UI" font-size="12" font-weight="400" fill="black">0.6</text>
  <text dominant-baseline="middle" text-anchor="end" transform="translate(23.54,118.8672)" font-family="Segoe UI" font-size="12" font-weight="400" fill="black">0.8</text>
  <text dominant-baseline="middle" text-anchor="end" transform="translate(23.54,58.1406)" font-family="Segoe UI" font-size="12" font-weight="400" fill="black">1</text>
  <polyline points="34.54,361.7737 27.54,361.7737" style="fill:none;stroke:black;stroke-width:1" />
  <polyline points="34.54,301.0471 27.54,301.0471" style="fill:none;stroke:black;stroke-width:1" />
  <polyline points="34.54,240.3205 27.54,240.3205" style="fill:none;stroke:black;stroke-width:1" />
  <polyline points="34.54,179.5938 27.54,179.5938" style="fill:none;stroke:black;stroke-width:1" />
  <polyline points="34.54,118.8672 27.54,118.8672" style="fill:none;stroke:black;stroke-width:1" />
  <polyline points="34.54,58.1406 27.54,58.1406" style="fill:none;stroke:black;stroke-width:1" />
  <text dominant-baseline="hanging" text-anchor="middle" transform="translate(39.4113,376.04)" font-family="Segoe UI" font-size="12" font-weight="400" fill="black">0</text>
  <text dominant-baseline="hanging" text-anchor="middle" transform="translate(133.2269,376.04)" font-family="Segoe UI" font-size="12" font-weight="400" fill="black">2</text>
  <text dominant-baseline="hanging" text-anchor="middle" transform="translate(227.0425,376.04)" font-family="Segoe UI" font-size="12" font-weight="400" fill="black">4</text>
  <text dominant-baseline="hanging" text-anchor="middle" transform="translate(320.8581,376.04)" font-family="Segoe UI" font-size="12" font-weight="400" fill="black">6</text>
  <text dominant-baseline="hanging" text-anchor="middle" transform="translate(414.6737,376.04)" font-family="Segoe UI" font-size="12" font-weight="400" fill="black">8</text>
  <text dominant-baseline="hanging" text-anchor="middle" transform="translate(508.4893,376.04)" font-family="Segoe UI" font-size="12" font-weight="400" fill="black">10</text>
  <polyline points="39.4113,365.04 39.4113,372.04" style="fill:none;stroke:black;stroke-width:1" />
  <polyline points="133.2269,365.04 133.2269,372.04" style="fill:none;stroke:black;stroke-width:1" />
  <polyline points="227.0425,365.04 227.0425,372.04" style="fill:none;stroke:black;stroke-width:1" />
  <polyline points="320.8581,365.04 320.8581,372.04" style="fill:none;stroke:black;stroke-width:1" />
  <polyline points="414.6737,365.04 414.6737,372.04" style="fill:none;stroke:black;stroke-width:1" />
  <polyline points="508.4893,365.04 508.4893,372.04" style="fill:none;stroke:black;stroke-width:1" />
  <polyline points="40.0594,11.5 40.5285,49.2092 40.9976,71.8272 41.4666,87.8406 41.9357,100.1859 42.4048,110.2132 42.8739,118.6502 43.343,125.9322 43.812,132.3392 44.2811,138.0614 44.7502,143.2339 45.2193,147.9556 45.6883,152.3013 46.1574,156.3288 46.6265,160.0833 47.0956,163.6015 47.5647,166.9129 48.0337,170.0418 48.5028,173.0086 48.9719,175.8304 49.441,178.5217 49.91,181.095 50.3791,183.5609 50.8482,185.9288 51.3173,188.2068 51.7864,190.402 52.2554,192.5208 52.7245,194.5688 53.1936,196.551 53.6627,198.4718 54.1317,200.3353 54.6008,202.145 55.0699,203.9044 55.539,205.6164 56.0081,207.2836 56.4771,208.9086 56.9462,210.4937 57.4153,212.0409 57.8844,213.5521 58.3534,215.0291 58.8225,216.4736 59.2916,217.8871 59.7607,219.271 60.2298,220.6265 60.6988,221.9549 61.1679,223.2574 61.637,224.535 62.1061,225.7887 62.5751,227.0194 63.0442,228.2281 63.5133,229.4154 63.9824,230.5823 64.4515,231.7294 64.9205,232.8574 65.3896,233.967 65.8587,235.0588 66.3278,236.1333 66.7969,237.1912 67.2659,238.2329 67.735,239.2589 68.2041,240.2698 68.6732,241.2659 69.1422,242.2477 69.6113,243.2156 70.0804,244.17 70.5495,245.1113 71.0186,246.0398 71.4876,246.9558 71.9567,247.8597 72.4258,248.7518 72.8949,249.6323 73.833,251.3601 74.3021,252.2077 75.2403,253.8721 75.7093,254.6892 76.6475,256.2944 77.1166,257.0829 78.0547,258.6328 78.5238,259.3946 79.462,260.8926 79.931,261.6293 80.8692,263.0786 81.3383,263.7915 82.2764,265.1949 82.7455,265.8855 83.6837,267.2454 84.1527,267.9149 85.0909,269.2337 85.56,269.8832 86.4981,271.163 86.9672,271.7935 87.9054,273.0362 88.3744,273.6486 89.3126,274.856 89.7817,275.4512 90.7198,276.6249 91.1889,277.2037 92.1271,278.3453 92.5961,278.9084 93.5343,280.0193 94.0034,280.5673 94.9415,281.6489 95.4106,282.1825 96.3488,283.2359 96.8178,283.7557 97.756,284.782 98.2251,285.2886 99.1632,286.2889 99.6323,286.7828 100.5705,287.7581 101.0395,288.2397 102.4468,289.6609 102.9159,290.1269 104.3231,291.5023 104.7922,291.9534 106.1994,293.2852 106.6685,293.7221 108.0757,295.0123 108.5448,295.4357 109.952,296.6862 110.4211,297.0966 111.8283,298.3091 112.2974,298.7071 113.7046,299.8832 114.1737,300.2693 115.581,301.4106 116.05,301.7853 117.4573,302.8931 117.9263,303.2569 119.3336,304.3326 119.8027,304.6859 121.2099,305.7307 121.679,306.074 123.0862,307.089 123.5553,307.4226 124.9625,308.4091 125.4316,308.7333 126.8388,309.6922 127.3079,310.0074 128.7151,310.9399 129.1842,311.2464 130.5915,312.1532 131.0605,312.4513 132.4678,313.3335 132.9368,313.6235 134.3441,314.4819 134.8132,314.7641 136.2204,315.5994 136.6895,315.8741 138.0967,316.6872 138.5658,316.9546 139.973,317.7461 140.4421,318.0064 141.8493,318.7772 142.3184,319.0307 143.7256,319.7813 144.1947,320.0282 145.6019,320.7593 146.071,320.9998 147.4783,321.712 147.9473,321.9463 149.3546,322.6402 149.8237,322.8685 151.2309,323.5447 151.7,323.7672 153.1072,324.4262 153.5763,324.6431 154.9835,325.2854 155.4526,325.4968 156.8598,326.1229 157.3289,326.329 158.7361,326.9394 159.2052,327.1404 160.6124,327.7356 161.0815,327.9315 162.4888,328.5119 162.9578,328.703 164.3651,329.2691 164.8341,329.4554 166.2414,330.0075 166.7105,330.1893 168.1177,330.7279 168.5868,330.9052 169.994,331.4306 170.4631,331.6036 172.3394,332.2849 172.8085,332.4527 174.6848,333.1134 175.1539,333.2761 177.0302,333.917 177.4993,334.0748 179.3756,334.6965 179.8446,334.8495 181.721,335.4526 182.19,335.6011 184.0663,336.1863 184.5354,336.3304 186.4117,336.8982 186.8808,337.038 188.7571,337.589 189.2262,337.7248 191.1025,338.2596 191.5716,338.3913 193.4479,338.9104 193.917,339.0383 195.7933,339.5422 196.2624,339.6663 198.1387,340.1555 198.6078,340.2761 200.4841,340.7511 200.9531,340.8681 202.8295,341.3293 203.2985,341.4429 205.1749,341.8908 205.6439,342.0012 207.5202,342.4362 207.9893,342.5433 209.8656,342.9658 210.3347,343.0699 212.211,343.4802 212.6801,343.5813 214.5564,343.9799 215.0255,344.0781 216.9018,344.4654 217.3709,344.5608 219.2472,344.937 219.7163,345.0297 221.5926,345.3952 222.0617,345.4852 223.938,345.8404 224.407,345.9279 226.2834,346.273 226.7524,346.358 228.6288,346.6934 229.0978,346.776 230.9741,347.1019 231.4432,347.1822 233.3195,347.4989 233.7886,347.577 235.6649,347.8848 236.134,347.9607 238.0103,348.2599 238.4794,348.3336 240.3557,348.6244 240.8248,348.6961 242.7011,348.9788 243.1702,349.0485 245.0465,349.3233 245.5156,349.3911 247.3919,349.6582 247.8609,349.7241 249.7373,349.9838 250.2063,350.0479 252.0826,350.3004 252.5517,350.3627 254.428,350.6082 254.8971,350.6687 256.7734,350.9075 257.2425,350.9663 259.1188,351.1985 259.5879,351.2557 261.4642,351.4815 261.9333,351.5371 263.8096,351.7567 264.2787,351.8108 266.155,352.0243 266.6241,352.0769 268.5004,352.2846 268.9695,352.3357 270.8458,352.5377 271.3148,352.5875 273.1912,352.7839 273.6602,352.8323 275.5365,353.0233 276.0056,353.0704 277.8819,353.2562 278.351,353.302 280.2273,353.4828 280.6964,353.5273 282.5727,353.7031 283.0418,353.7465 284.9181,353.9175 285.3872,353.9596 287.2635,354.126 287.7326,354.167 289.6089,354.3289 290.078,354.3688 291.9543,354.5262 292.4234,354.565 294.2997,354.7182 294.7687,354.756 296.6451,354.905 297.1141,354.9418 298.9904,355.0867 299.4595,355.1225 301.3358,355.2636 301.8049,355.2984 303.6812,355.4356 304.1503,355.4695 306.0266,355.603 306.4957,355.636 308.372,355.7659 308.8411,355.798 310.7174,355.9244 311.1865,355.9556 313.0628,356.0786 313.5319,356.109 315.4082,356.2287 315.8773,356.2583 317.7536,356.3748 318.2226,356.4035 320.099,356.5169 320.568,356.5449 322.4443,356.6552 322.9134,356.6824 324.7897,356.7898 325.2588,356.8163 327.1351,356.9208 327.6042,356.9466 329.4805,357.0483 329.9496,357.0734 331.8259,357.1724 332.295,357.1968 334.1713,357.2932 334.6404,357.3169 336.5167,357.4107 336.9858,357.4339 338.8621,357.5251 339.3312,357.5477 341.2075,357.6365 341.6765,357.6584 343.5529,357.7449 344.0219,357.7662 345.8982,357.8504 346.3673,357.8712 348.2436,357.9531 348.7127,357.9733 350.589,358.0531 351.0581,358.0727 352.9344,358.1504 353.4035,358.1695 355.2798,358.2451 355.7489,358.2637 357.6252,358.3373 358.0943,358.3554 359.9706,358.4271 360.4397,358.4447 362.316,358.5144 362.785,358.5316 364.6614,358.5995 365.1304,358.6163 367.0068,358.6823 367.4758,358.6986 369.3521,358.763 369.8212,358.7788 371.6975,358.8414 372.1666,358.8569 374.0429,358.9179 374.512,358.9329 376.3883,358.9923 376.8574,359.0069 378.7337,359.0647 379.2028,359.079 381.0791,359.1352 381.5482,359.1491 383.4245,359.2039 383.8936,359.2174 385.7699,359.2707 386.2389,359.2839 388.1153,359.3358 388.5843,359.3486 390.4606,359.3992 390.9297,359.4117 392.806,359.4609 393.2751,359.4731 395.1514,359.521 395.6205,359.5328 397.4968,359.5795 397.9659,359.591 399.8422,359.6365 400.3113,359.6477 402.1876,359.6919 402.6567,359.7029 404.533,359.746 405.0021,359.7566 406.8784,359.7986 407.3475,359.8089 409.2238,359.8498 409.6928,359.8599 411.5692,359.8996 412.0382,359.9095 413.9145,359.9482 414.3836,359.9578 416.2599,359.9955 416.729,360.0048 418.6053,360.0416 419.0744,360.0506 420.9507,360.0864 421.4198,360.0952 423.2961,360.1301 423.7652,360.1387 425.6415,360.1726 426.1106,360.181 427.9869,360.214 428.456,360.2222 430.3323,360.2544 430.8014,360.2623 432.6777,360.2937 433.1467,360.3014 435.0231,360.3319 435.4921,360.3394 437.3684,360.3692 437.8375,360.3765 439.7138,360.4055 440.1829,360.4126 442.0592,360.4408 442.5283,360.4478 444.4046,360.4752 444.8737,360.482 446.75,360.5087 447.2191,360.5153 449.0954,360.5414 449.5645,360.5478 451.4408,360.5732 451.9099,360.5794 453.7862,360.6042 454.2553,360.6103 456.1316,360.6343 456.6006,360.6403 458.477,360.6637 458.946,360.6695 460.8223,360.6923 461.2914,360.6979 463.1677,360.7202 463.6368,360.7257 465.5131,360.7473 465.9822,360.7527 467.8585,360.7738 468.3276,360.779 470.2039,360.7995 470.673,360.8046 472.5493,360.8246 473.0184,360.8295 474.8947,360.849 475.3638,360.8538 477.2401,360.8728 477.7092,360.8775 479.5855,360.896 480.0545,360.9006 481.9309,360.9186 482.3999,360.923 484.2762,360.9406 484.7453,360.9449 486.6216,360.962 487.0907,360.9662 488.967,360.9829 489.4361,360.987 491.3124,361.0032 491.7815,361.0072 493.6578,361.023 494.1269,361.0269 496.0032,361.0423 496.4723,361.0461 498.3486,361.0611 498.8177,361.0648 500.694,361.0794 501.1631,361.083 503.0394,361.0972 503.5084,361.1007 505.3848,361.1146 505.8538,361.118 507.7301,361.1315 508.1992,361.1348 510.0755,361.148 510.5446,361.1512 512.4209,361.164 512.89,361.1672 514.7663,361.1797 515.2354,361.1828 517.1117,361.1949 517.5808,361.1979 519.4571,361.2098 519.9262,361.2127 521.8025,361.2242 522.2716,361.2271 524.1479,361.2383 524.6169,361.2411 526.4933,361.252 526.9623,361.2547 528.8387,361.2654 529.3077,361.268 531.184,361.2784 531.6531,361.281 533.5294,361.2911 533.9985,361.2936 535.8748,361.3035 536.3439,361.3059 538.2202,361.3155 538.6893,361.3179 540.5656,361.3272 541.0347,361.3296 542.911,361.3387 543.3801,361.3409 545.2564,361.3498 545.7255,361.352 547.6018,361.3607 548.0708,361.3628 549.9472,361.3712 550.4162,361.3733 552.2925,361.3815 552.7616,361.3836 554.6379,361.3916 555.107,361.3935 556.9833,361.4013 557.4524,361.4033 559.3287,361.4109 559.7978,361.4127 561.6741,361.4201 562.1432,361.422 564.0195,361.4292 564.4886,361.4309 566.3649,361.438 566.834,361.4397 568.7103,361.4466 569.1794,361.4482 571.0557,361.4549 571.5247,361.4566 573.4011,361.4631 573.8701,361.4647 575.7464,361.471 576.2155,361.4726 578.0918,361.4787 578.5609,361.4802 580.4372,361.4863 580.9063,361.4877 582.7826,361.4936 583.2517,361.495 585.128,361.5007 585.5971,361.5022 586.0662,361.5036 586.5352,361.505" style="fill:none;stroke:rgb(255,0,0);stroke-width:3;stroke-linejoin:bevel" />
  <polyline points="40.0594,211.0023 40.5285,211.7543 41.4666,213.247 41.9357,213.9878 42.8739,215.4583 43.343,216.188 44.2811,217.6366 44.7502,218.3555 45.6883,219.7826 46.1574,220.4907 47.0956,221.8965 47.5647,222.5942 48.5028,223.979 48.9719,224.6663 49.91,226.0305 50.3791,226.7075 51.3173,228.0515 51.7864,228.7184 52.7245,230.0423 53.1936,230.6994 54.1317,232.0036 54.6008,232.6508 55.539,233.9356 56.0081,234.5732 56.9462,235.8389 57.4153,236.467 58.3534,237.7138 58.8225,238.3325 59.7607,239.5608 60.2298,240.1703 61.1679,241.3803 61.637,241.9808 62.5751,243.1727 63.0442,243.7643 63.9824,244.9385 64.4515,245.5212 65.3896,246.6779 65.8587,247.252 66.7969,248.3915 67.2659,248.957 68.2041,250.0795 68.6732,250.6366 69.6113,251.7424 70.0804,252.2912 71.0186,253.3806 71.4876,253.9212 72.4258,254.9943 72.8949,255.5269 73.833,256.5841 74.3021,257.1087 75.2403,258.1501 75.7093,258.667 76.6475,259.6929 77.1166,260.202 78.0547,261.2127 78.5238,261.7142 79.462,262.7098 79.931,263.2039 80.8692,264.1847 81.3383,264.6714 82.2764,265.6376 82.7455,266.1171 83.6837,267.0689 84.1527,267.5412 85.56,268.9442 86.029,269.4072 87.4363,270.7823 87.9054,271.2361 89.3126,272.5841 89.7817,273.0289 91.1889,274.3502 91.658,274.7862 93.0652,276.0813 93.5343,276.5086 94.9415,277.7781 95.4106,278.197 96.8178,279.4413 97.2869,279.8519 98.6942,281.0716 99.1632,281.4741 100.5705,282.6696 101.0395,283.0641 102.4468,284.236 102.9159,284.6227 104.3231,285.7713 104.7922,286.1504 106.1994,287.2763 106.6685,287.6478 108.0757,288.7514 108.5448,289.1156 109.952,290.1974 110.4211,290.5543 111.8283,291.6147 112.2974,291.9646 113.7046,293.0039 114.1737,293.3469 115.581,294.3656 116.05,294.7018 117.4573,295.7004 117.9263,296.0299 119.3336,297.0087 119.8027,297.3318 121.2099,298.2912 121.679,298.6078 123.0862,299.5482 123.5553,299.8586 124.9625,300.7804 125.4316,301.0846 126.8388,301.9881 127.3079,302.2863 128.7151,303.1719 129.1842,303.4642 130.5915,304.3323 131.0605,304.6188 132.4678,305.4698 132.9368,305.7506 134.3441,306.5846 134.8132,306.8599 136.2204,307.6775 136.6895,307.9473 138.0967,308.7486 138.5658,309.0131 139.973,309.7986 140.4421,310.0578 141.8493,310.8278 142.3184,311.0819 143.7256,311.8366 144.1947,312.0856 145.6019,312.8254 146.071,313.0695 147.4783,313.7946 147.9473,314.0339 149.3546,314.7447 149.8237,314.9792 151.2309,315.6759 151.7,315.9058 153.1072,316.5887 153.5763,316.8141 154.9835,317.4834 155.4526,317.7043 156.8598,318.3605 157.3289,318.577 158.7361,319.2201 159.2052,319.4323 160.6124,320.0627 161.0815,320.2707 162.4888,320.8886 162.9578,321.0926 164.3651,321.6982 164.8341,321.8981 166.2414,322.4918 166.7105,322.6877 168.1177,323.2696 168.5868,323.4616 169.994,324.032 170.4631,324.2203 171.8703,324.7794 172.3394,324.9639 173.7466,325.5119 174.2157,325.6928 175.6229,326.2299 176.092,326.4072 177.4993,326.9338 177.9683,327.1075 179.8446,327.794 180.3137,327.9634 182.19,328.6329 182.6591,328.7982 184.5354,329.4512 185.0045,329.6124 186.8808,330.2492 187.3499,330.4064 189.2262,331.0276 189.6953,331.1809 191.5716,331.7867 192.0407,331.9362 193.917,332.5271 194.3861,332.6729 196.2624,333.2492 196.7314,333.3914 198.6078,333.9534 199.0768,334.0922 200.9531,334.6403 201.4222,334.7757 203.2985,335.3102 203.7676,335.4422 205.6439,335.9636 206.113,336.0924 207.9893,336.6009 208.4584,336.7264 210.3347,337.2224 210.8038,337.3449 212.6801,337.8286 213.1492,337.948 215.0255,338.4198 215.4946,338.5363 217.3709,338.9964 217.84,339.11 219.7163,339.5588 220.1853,339.6696 222.0617,340.1073 222.5307,340.2153 224.407,340.6422 224.8761,340.7476 226.7524,341.1639 227.2215,341.2667 229.0978,341.6728 229.5669,341.7731 231.4432,342.1691 231.9123,342.2669 233.7886,342.6531 234.2577,342.7485 236.134,343.1252 236.6031,343.2182 238.4794,343.5857 238.9485,343.6764 240.8248,344.0347 241.2939,344.1232 243.1702,344.4727 243.6392,344.559 245.5156,344.8999 245.9846,344.984 247.8609,345.3165 248.33,345.3986 250.2063,345.7228 250.6754,345.8029 252.5517,346.1191 253.0208,346.1972 254.8971,346.5056 255.3662,346.5818 257.2425,346.8826 257.7116,346.9569 259.5879,347.2503 260.057,347.3227 261.9333,347.6088 262.4024,347.6795 264.2787,347.9586 264.7478,348.0275 266.6241,348.2997 267.0931,348.3669 268.9695,348.6323 269.4385,348.6979 271.3148,348.9568 271.7839,349.0207 273.6602,349.2733 274.1293,349.3356 276.0056,349.5819 276.4747,349.6427 278.351,349.8829 278.8201,349.9422 280.6964,350.1765 281.1655,350.2343 283.0418,350.4628 283.5109,350.5192 285.3872,350.7421 285.8563,350.7971 287.7326,351.0145 288.2017,351.0681 290.078,351.2801 290.547,351.3324 292.4234,351.5392 292.8924,351.5902 294.7687,351.7919 295.2378,351.8417 297.1141,352.0383 297.5832,352.0869 299.4595,352.2787 299.9286,352.3261 301.8049,352.5131 302.274,352.5593 304.1503,352.7418 304.6194,352.7868 306.4957,352.9648 306.9648,353.0087 308.8411,353.1823 309.3102,353.2251 311.1865,353.3944 311.6556,353.4362 313.5319,353.6013 314.0009,353.642 315.8773,353.8031 316.3463,353.8428 318.2226,353.9999 318.6917,354.0386 320.568,354.1918 321.0371,354.2296 322.9134,354.379 323.3825,354.4159 325.2588,354.5616 325.7279,354.5975 327.6042,354.7396 328.0733,354.7747 329.9496,354.9133 330.4187,354.9475 332.295,355.0827 332.7641,355.1161 334.6404,355.2479 335.1094,355.2804 336.9858,355.409 337.4548,355.4408 339.3312,355.5662 339.8002,355.5971 341.6765,355.7194 342.1456,355.7496 344.0219,355.8689 344.491,355.8984 346.3673,356.0147 346.8364,356.0434 348.7127,356.1569 349.1818,356.1849 351.0581,356.2956 351.5272,356.3229 353.4035,356.4308 353.8726,356.4575 355.7489,356.5627 356.218,356.5887 358.0943,356.6914 358.5633,356.7167 360.4397,356.8169 360.9087,356.8416 362.785,356.9393 363.2541,356.9634 365.1304,357.0586 365.5995,357.0821 367.4758,357.175 367.9449,357.198 369.8212,357.2886 370.2903,357.311 372.1666,357.3993 372.6357,357.4211 374.512,357.5073 374.9811,357.5286 376.8574,357.6127 377.3265,357.6334 379.2028,357.7154 379.6719,357.7356 381.5482,357.8156 382.0172,357.8353 383.8936,357.9133 384.3626,357.9326 386.2389,358.0086 386.708,358.0274 388.5843,358.1016 389.0534,358.1199 390.9297,358.1923 391.3988,358.2101 393.2751,358.2807 393.7442,358.2981 395.6205,358.3669 396.0896,358.3839 397.9659,358.451 398.435,358.4676 400.3113,358.5331 400.7804,358.5492 402.6567,358.6131 403.1258,358.6289 405.0021,358.6911 405.4711,358.7065 407.3475,358.7672 407.8165,358.7822 409.6928,358.8415 410.1619,358.8561 412.0382,358.9139 412.5073,358.9281 414.3836,358.9845 414.8527,358.9984 416.729,359.0533 417.1981,359.0669 419.0744,359.1205 419.5435,359.1337 421.4198,359.186 421.8889,359.1989 423.7652,359.2499 424.2343,359.2625 426.1106,359.3122 426.5797,359.3245 428.456,359.373 428.925,359.385 430.8014,359.4323 431.2704,359.4439 433.1467,359.4901 433.6158,359.5015 435.4921,359.5465 435.9612,359.5576 437.8375,359.6015 438.3066,359.6123 440.1829,359.6551 440.652,359.6657 442.5283,359.7074 442.9974,359.7177 444.8737,359.7584 445.3428,359.7685 447.2191,359.8082 447.6882,359.818 449.5645,359.8567 450.0336,359.8663 451.9099,359.904 452.3789,359.9134 454.2553,359.9502 454.7243,359.9593 456.6006,359.9952 457.0697,360.0041 458.946,360.0391 459.4151,360.0478 461.2914,360.082 461.7605,360.0904 463.6368,360.1237 464.1059,360.1319 465.9822,360.1645 466.4513,360.1725 468.3276,360.2042 468.7967,360.212 470.673,360.2429 471.1421,360.2506 473.0184,360.2807 473.4875,360.2882 475.3638,360.3176 475.8328,360.3249 477.7092,360.3535 478.1782,360.3606 480.0545,360.3886 480.5236,360.3955 482.3999,360.4228 482.869,360.4295 484.7453,360.4562 485.2144,360.4627 487.0907,360.4887 487.5598,360.4951 489.4361,360.5204 489.9052,360.5267 491.7815,360.5514 492.2506,360.5575 494.1269,360.5815 494.596,360.5875 496.4723,360.611 496.9413,360.6168 498.8177,360.6397 499.2867,360.6453 501.1631,360.6677 501.6321,360.6732 503.5084,360.695 503.9775,360.7004 505.8538,360.7216 506.3229,360.7269 508.1992,360.7476 508.6683,360.7527 510.5446,360.7729 511.0137,360.7779 512.89,360.7976 513.3591,360.8025 515.2354,360.8217 515.7045,360.8265 517.5808,360.8452 518.0499,360.8499 519.9262,360.8682 520.3952,360.8727 522.2716,360.8905 522.7406,360.8949 524.6169,360.9123 525.086,360.9166 526.9623,360.9336 527.4314,360.9378 529.3077,360.9543 529.7768,360.9584 531.6531,360.9746 532.1222,360.9786 533.9985,360.9943 534.4676,360.9982 536.3439,361.0135 536.813,361.0173 538.6893,361.0323 539.1584,361.036 541.0347,361.0506 541.5038,361.0542 543.3801,361.0685 543.8491,361.072 545.7255,361.0859 546.1945,361.0893 548.0708,361.1029 548.5399,361.1062 550.4162,361.1194 550.8853,361.1227 552.7616,361.1356 553.2307,361.1388 555.107,361.1513 555.5761,361.1544 557.4524,361.1667 557.9215,361.1697 559.7978,361.1817 560.2669,361.1846 562.1432,361.1963 562.6123,361.1992 564.4886,361.2106 564.9577,361.2134 566.834,361.2245 567.303,361.2272 569.1794,361.238 569.6484,361.2407 571.5247,361.2513 571.9938,361.2539 573.8701,361.2642 574.3392,361.2667 576.2155,361.2767 576.6846,361.2792 578.5609,361.289 579.03,361.2914 580.9063,361.301 581.3754,361.3033 583.2517,361.3126 583.7208,361.3149 585.5971,361.324 586.0662,361.3263 586.5352,361.3285" style="fill:none;stroke:black;stroke-width:3;stroke-linejoin:bevel" />
  <polyline points="40.0594,265.4097 40.5285,260.5246 40.9976,257.4351 41.4666,255.2308 41.9357,253.5604 42.4048,252.2492 42.8739,251.1975 43.343,250.3422 44.2811,249.0647 44.7502,248.5908 46.1574,247.6366 46.6265,247.4398 48.5028,247.0831 48.9719,247.0796 50.8482,247.3179 51.3173,247.4301 53.1936,248.042 53.6627,248.2298 55.0699,248.862 55.539,249.0931 56.9462,249.8381 57.4153,250.102 58.8225,250.9335 59.2916,251.2227 60.6988,252.1212 61.1679,252.43 62.5751,253.3807 63.0442,253.7049 64.4515,254.6963 64.9205,255.0324 66.3278,256.0554 66.7969,256.4008 68.2041,257.4481 68.6732,257.8006 70.0804,258.8663 70.5495,259.224 71.9567,260.3032 72.4258,260.6648 73.833,261.7534 74.3021,262.1175 75.7093,263.2122 76.1784,263.5778 77.5856,264.6757 78.0547,265.042 79.462,266.1406 79.931,266.5068 81.3383,267.6041 81.8073,267.9695 83.2146,269.0638 83.6837,269.4279 85.0909,270.5177 85.56,270.88 86.9672,271.9639 87.4363,272.324 88.8435,273.4009 89.3126,273.7586 90.7198,274.8275 91.1889,275.1824 92.5961,276.2425 93.0652,276.5943 94.4725,277.6449 94.9415,277.9935 96.3488,279.034 96.8178,279.3791 98.2251,280.409 98.6942,280.7505 100.1014,281.7693 100.5705,282.107 101.9777,283.1143 102.4468,283.4482 103.854,284.4437 104.3231,284.7736 105.7303,285.7571 106.1994,286.0829 107.6066,287.0542 108.0757,287.3758 109.4829,288.3346 109.952,288.6522 111.3593,289.5984 111.8283,289.9117 113.2356,290.8452 113.7046,291.1542 115.1119,292.0749 115.581,292.3797 116.9882,293.2876 117.4573,293.5881 118.8645,294.4831 119.3336,294.7793 120.7408,295.6614 121.2099,295.9533 122.6171,296.8225 123.0862,297.1101 124.4934,297.9665 124.9625,298.2498 126.3698,299.0934 126.8388,299.3725 128.2461,300.2033 128.7151,300.4781 130.1224,301.2962 130.5915,301.5668 131.9987,302.3722 132.4678,302.6386 133.875,303.4315 134.3441,303.6937 135.7513,304.4742 136.2204,304.7323 137.6276,305.5003 138.0967,305.7543 139.5039,306.5101 139.973,306.7601 141.3802,307.5037 141.8493,307.7496 143.2566,308.4813 143.7256,308.7232 145.1329,309.4429 145.6019,309.6809 147.0092,310.3888 147.4783,310.6229 148.8855,311.3192 149.3546,311.5493 150.7618,312.2341 151.2309,312.4605 152.6381,313.1338 153.1072,313.3564 154.5144,314.0186 154.9835,314.2374 156.3907,314.8884 156.8598,315.1036 158.2671,315.7436 158.7361,315.9552 160.1434,316.5844 160.6124,316.7923 162.0197,317.4108 162.4888,317.6152 163.896,318.2232 164.3651,318.4241 165.7723,319.0216 166.2414,319.2191 167.6486,319.8063 168.1177,320.0004 169.5249,320.5776 169.994,320.7683 171.4012,321.3354 171.8703,321.5228 173.2775,322.0802 173.7466,322.2643 175.1539,322.812 175.6229,322.9929 177.0302,323.531 177.4993,323.7088 178.9065,324.2375 179.3756,324.4121 181.2519,325.1031 181.721,325.274 183.5973,325.9498 184.0663,326.1169 185.9427,326.7779 186.4117,326.9413 188.288,327.5877 188.7571,327.7475 190.6334,328.3796 191.1025,328.5359 192.9788,329.1539 193.4479,329.3067 195.3242,329.9111 195.7933,330.0605 197.6696,330.6513 198.1387,330.7974 200.015,331.3751 200.4841,331.5178 202.3604,332.0826 202.8295,332.2222 204.7058,332.7743 205.1749,332.9107 207.0512,333.4504 207.5202,333.5838 209.3966,334.1113 209.8656,334.2417 211.7419,334.7573 212.211,334.8847 214.0873,335.3887 214.5564,335.5132 216.4327,336.0058 216.9018,336.1275 218.7781,336.6089 219.2472,336.7278 221.1235,337.1983 221.5926,337.3146 223.4689,337.7743 223.938,337.8879 225.8143,338.3372 226.2834,338.4482 228.1597,338.8872 228.6288,338.9957 230.5051,339.4247 230.9741,339.5307 232.8505,339.9499 233.3195,340.0535 235.1958,340.4631 235.6649,340.5643 237.5412,340.9645 238.0103,341.0634 239.8866,341.4544 240.3557,341.551 242.232,341.933 242.7011,342.0274 244.5774,342.4006 245.0465,342.4928 246.9228,342.8574 247.3919,342.9475 249.2682,343.3037 249.7373,343.3917 251.6136,343.7397 252.0826,343.8257 253.959,344.1656 254.428,344.2496 256.3044,344.5817 256.7734,344.6637 258.6497,344.9881 259.1188,345.0683 260.9951,345.3851 261.4642,345.4634 263.3405,345.7729 263.8096,345.8494 265.6859,346.1517 266.155,346.2264 268.0313,346.5217 268.5004,346.5947 270.3767,346.8831 270.8458,346.9544 272.7221,347.2361 273.1912,347.3057 275.0675,347.5808 275.5365,347.6488 277.4129,347.9175 277.8819,347.9839 279.7582,348.2464 280.2273,348.3112 282.1036,348.5675 282.5727,348.6309 284.449,348.8812 284.9181,348.9431 286.7944,349.1875 287.2635,349.2479 289.1398,349.4867 289.6089,349.5457 291.4852,349.7789 291.9543,349.8365 293.8306,350.0642 294.2997,350.1204 296.176,350.3428 296.6451,350.3977 298.5214,350.6149 298.9904,350.6685 300.8668,350.8806 301.3358,350.933 303.2121,351.1401 303.6812,351.1912 305.5575,351.3934 306.0266,351.4434 307.9029,351.6408 308.372,351.6896 310.2483,351.8824 310.7174,351.93 312.5937,352.1183 313.0628,352.1648 314.9391,352.3486 315.4082,352.394 317.2845,352.5735 317.7536,352.6179 319.6299,352.7932 320.099,352.8364 321.9753,353.0076 322.4443,353.0499 324.3207,353.2169 324.7897,353.2582 326.666,353.4214 327.1351,353.4617 329.0114,353.621 329.4805,353.6603 331.3568,353.8158 331.8259,353.8543 333.7022,354.0061 334.1713,354.0436 336.0476,354.1919 336.5167,354.2285 338.393,354.3732 338.8621,354.409 340.7384,354.5503 341.2075,354.5852 343.0838,354.7232 343.5529,354.7573 345.4292,354.892 345.8982,354.9253 347.7746,355.0568 348.2436,355.0893 350.1199,355.2176 350.589,355.2494 352.4653,355.3747 352.9344,355.4057 354.8107,355.528 355.2798,355.5583 357.1561,355.6777 357.6252,355.7072 359.5015,355.8239 359.9706,355.8527 361.8469,355.9665 362.316,355.9947 364.1923,356.1058 364.6614,356.1333 366.5377,356.2418 367.0068,356.2686 368.8831,356.3745 369.3521,356.4007 371.2285,356.5041 371.6975,356.5296 373.5738,356.6305 374.0429,356.6555 375.9192,356.754 376.3883,356.7784 378.2646,356.8746 378.7337,356.8983 380.61,356.9922 381.0791,357.0154 382.9554,357.1071 383.4245,357.1297 385.3008,357.2192 385.7699,357.2413 387.6462,357.3287 388.1153,357.3502 389.9916,357.4355 390.4606,357.4565 392.337,357.5398 392.806,357.5603 394.6824,357.6416 395.1514,357.6616 397.0277,357.7409 397.4968,357.7605 399.3731,357.8379 399.8422,357.8571 401.7185,357.9326 402.1876,357.9513 404.0639,358.025 404.533,358.0433 406.4093,358.1153 406.8784,358.133 408.7547,358.2033 409.2238,358.2207 411.1001,358.2893 411.5692,358.3062 413.4455,358.3731 413.9145,358.3897 415.7909,358.455 416.2599,358.4712 418.1363,358.535 418.6053,358.5507 420.4816,358.613 420.9507,358.6284 422.827,358.6891 423.2961,358.7041 425.1724,358.7634 425.6415,358.7781 427.5178,358.836 427.9869,358.8503 429.8632,358.9068 430.3323,358.9208 432.2086,358.9759 432.6777,358.9895 434.554,359.0434 435.0231,359.0567 436.8994,359.1092 437.3684,359.1222 439.2448,359.1734 439.7138,359.1861 441.5901,359.2362 442.0592,359.2485 443.9355,359.2974 444.4046,359.3094 446.2809,359.3571 446.75,359.3689 448.6263,359.4154 449.0954,359.4269 450.9717,359.4723 451.4408,359.4836 453.3171,359.5279 453.7862,359.5388 455.6625,359.5821 456.1316,359.5928 458.0079,359.635 458.477,359.6454 460.3533,359.6866 460.8223,359.6968 462.6987,359.737 463.1677,359.747 465.044,359.7862 465.5131,359.7959 467.3894,359.8342 467.8585,359.8437 469.7348,359.8811 470.2039,359.8903 472.0802,359.9268 472.5493,359.9358 474.4256,359.9714 474.8947,359.9802 476.771,360.015 477.2401,360.0236 479.1164,360.0575 479.5855,360.0659 481.4618,360.099 481.9309,360.1072 483.8072,360.1395 484.2762,360.1474 486.1526,360.179 486.6216,360.1868 488.4979,360.2175 488.967,360.2251 490.8433,360.2552 491.3124,360.2626 493.1887,360.2919 493.6578,360.2991 495.5341,360.3277 496.0032,360.3348 497.8795,360.3627 498.3486,360.3696 500.2249,360.3968 500.694,360.4036 502.5703,360.4302 503.0394,360.4367 504.9157,360.4627 505.3848,360.4691 507.2611,360.4944 507.7301,360.5006 509.6065,360.5254 510.0755,360.5315 511.9518,360.5556 512.4209,360.5615 514.2972,360.5851 514.7663,360.5909 516.6426,360.6138 517.1117,360.6195 518.988,360.6419 519.4571,360.6475 521.3334,360.6693 521.8025,360.6747 523.6788,360.6961 524.1479,360.7013 526.0242,360.7222 526.4933,360.7273 528.3696,360.7476 528.8387,360.7527 530.715,360.7725 531.184,360.7774 533.0604,360.7967 533.5294,360.8015 535.4057,360.8204 535.8748,360.8251 537.7511,360.8435 538.2202,360.8481 540.0965,360.8661 540.5656,360.8705 542.4419,360.8881 542.911,360.8924 544.7873,360.9095 545.2564,360.9137 547.1327,360.9305 547.6018,360.9346 549.4781,360.9509 549.9472,360.9549 551.8235,360.9708 552.2925,360.9748 554.1689,360.9903 554.6379,360.9942 556.5143,361.0093 556.9833,361.0131 558.8596,361.0278 559.3287,361.0315 561.205,361.0459 561.6741,361.0495 563.5504,361.0636 564.0195,361.0671 565.8958,361.0808 566.3649,361.0842 568.2412,361.0976 568.7103,361.1009 570.5866,361.114 571.0557,361.1172 572.932,361.13 573.4011,361.1332 575.2774,361.1456 575.7464,361.1487 577.6228,361.1609 578.0918,361.1639 579.9682,361.1757 580.4372,361.1787 582.3135,361.1903 582.7826,361.1931 584.6589,361.2044 585.128,361.2072 586.0662,361.2127 586.5352,361.2155" style="fill:none;stroke:rgb(0,255,0);stroke-width:3;stroke-linejoin:bevel" />
  <polyline points="40.0594,360.7321 40.5285,359.9872 41.4666,358.5198 41.9357,357.7971 42.8739,356.3735 43.343,355.6725 44.2811,354.2918 44.7502,353.612 45.6883,352.2733 46.1574,351.6143 47.0956,350.3166 47.5647,349.6779 48.5028,348.4203 48.9719,347.8013 49.91,346.5829 50.3791,345.9834 51.3173,344.8033 51.7864,344.2226 52.7245,343.0799 53.1936,342.5178 54.1317,341.4117 54.6008,340.8676 55.539,339.7973 56.0081,339.2709 56.9462,338.2354 57.4153,337.7263 58.3534,336.725 58.8225,336.2327 59.7607,335.2647 60.2298,334.7889 61.637,333.3938 62.1061,332.9393 63.5133,331.6073 63.9824,331.1736 65.3896,329.9027 65.8587,329.4891 67.2659,328.2775 67.735,327.8833 69.1422,326.7291 69.6113,326.3537 71.0186,325.2552 71.4876,324.898 72.8949,323.8533 73.3639,323.5139 74.7712,322.5214 75.2403,322.199 76.6475,321.257 77.1166,320.9512 78.5238,320.0581 78.9929,319.7683 80.4001,318.9226 80.8692,318.6483 82.2764,317.8483 82.7455,317.5891 84.1527,316.8335 84.6218,316.5888 86.029,315.876 86.4981,315.6454 87.9054,314.9741 88.3744,314.7571 89.7817,314.1259 90.2507,313.922 91.658,313.3296 92.1271,313.1385 93.5343,312.5836 94.0034,312.4047 95.8797,311.7191 96.3488,311.555 98.2251,310.9273 98.6942,310.7774 100.5705,310.2051 101.0395,310.0687 102.9159,309.5496 103.3849,309.4262 105.2612,308.9578 105.7303,308.8469 107.6066,308.4271 108.0757,308.3281 109.952,307.9549 110.4211,307.8672 112.2974,307.5384 112.7665,307.4616 114.6428,307.1754 115.1119,307.1089 116.9882,306.8633 117.4573,306.8068 119.3336,306.5999 119.8027,306.5529 121.679,306.383 122.1481,306.345 124.0244,306.2104 124.4934,306.1811 126.3698,306.0802 126.8388,306.059 128.7151,305.9902 129.1842,305.9769 131.0605,305.9386 131.5296,305.9328 133.4059,305.9236 133.875,305.9248 135.7513,305.9434 136.2204,305.9513 138.0967,305.9962 138.5658,306.0106 140.4421,306.0805 140.9112,306.1009 142.7875,306.1946 143.2566,306.2208 145.1329,306.337 145.6019,306.3687 147.4783,306.5062 147.9473,306.5432 149.8237,306.7009 150.2927,306.7428 152.169,306.9197 152.6381,306.9662 154.5144,307.1612 154.9835,307.2122 156.8598,307.4243 157.3289,307.4794 159.2052,307.7077 159.6743,307.7667 161.5506,308.0102 162.0197,308.0728 163.896,308.3307 164.3651,308.3968 166.2414,308.6681 166.7105,308.7376 168.5868,309.0215 169.0558,309.094 170.9322,309.3898 171.4012,309.4652 173.2775,309.7721 173.7466,309.8501 175.6229,310.1674 176.092,310.248 177.9683,310.5749 178.4374,310.6578 180.3137,310.9938 180.7828,311.0788 182.6591,311.4231 183.1282,311.5102 185.0045,311.8623 185.4736,311.9512 187.3499,312.3104 187.819,312.4011 189.6953,312.7668 190.1644,312.8591 192.0407,313.2309 192.5097,313.3246 194.3861,313.7019 194.8551,313.7969 196.7314,314.1792 197.2005,314.2754 199.0768,314.6623 199.5459,314.7596 201.4222,315.1505 201.8913,315.2488 203.7676,315.6434 204.2367,315.7425 206.113,316.1403 206.5821,316.2401 208.4584,316.6408 208.9275,316.7413 210.8038,317.1444 211.2729,317.2455 213.1492,317.6507 213.6183,317.7522 215.4946,318.1592 215.9636,318.2611 217.84,318.6694 218.309,318.7716 220.1853,319.1811 220.6544,319.2835 222.5307,319.6937 222.9998,319.7963 224.8761,320.207 225.3452,320.3097 227.2215,320.7206 227.6906,320.8234 229.5669,321.2342 230.036,321.3369 231.9123,321.7475 232.3814,321.8501 234.2577,322.2601 234.7268,322.3625 236.6031,322.7718 237.0722,322.874 238.9485,323.2823 239.4175,323.3843 241.2939,323.7914 241.7629,323.893 243.6392,324.2988 244.1083,324.4001 245.9846,324.8044 246.4537,324.9052 248.33,325.3078 248.7991,325.4082 250.6754,325.8088 251.1445,325.9088 253.0208,326.3074 253.4899,326.4068 255.3662,326.8033 255.8353,326.9021 257.7116,327.2963 258.1807,327.3945 260.057,327.7862 260.5261,327.8839 262.4024,328.273 262.8714,328.37 264.7478,328.7565 265.2168,328.8528 267.0931,329.2365 267.5622,329.3321 269.4385,329.713 269.9076,329.8078 271.7839,330.1858 272.253,330.2798 274.1293,330.6547 274.5984,330.748 276.4747,331.1198 276.9438,331.2123 278.8201,331.5808 279.2892,331.6725 281.1655,332.0378 281.6346,332.1287 283.5109,332.4906 283.98,332.5807 285.8563,332.9392 286.3253,333.0284 288.2017,333.3835 288.6707,333.4718 290.547,333.8234 291.0161,333.9109 292.8924,334.2589 293.3615,334.3455 295.2378,334.69 295.7069,334.7756 297.5832,335.1165 298.0523,335.2013 299.9286,335.5385 300.3977,335.6223 302.274,335.9559 302.7431,336.0388 304.6194,336.3686 305.0885,336.4506 306.9648,336.7768 307.4338,336.8578 309.3102,337.1802 309.7792,337.2604 311.6556,337.579 312.1246,337.6582 314.0009,337.9731 314.47,338.0513 316.3463,338.3625 316.8154,338.4398 318.6917,338.7471 319.1608,338.8235 321.0371,339.127 321.5062,339.2025 323.3825,339.5022 323.8516,339.5767 325.7279,339.8727 326.197,339.9462 328.0733,340.2385 328.5424,340.3111 330.4187,340.5995 330.8877,340.6712 332.7641,340.9559 333.2331,341.0266 335.1094,341.3075 335.5785,341.3773 337.4548,341.6545 337.9239,341.7234 339.8002,341.9969 340.2693,342.0648 342.1456,342.3346 342.6147,342.4015 344.491,342.6676 344.9601,342.7337 346.8364,342.9961 347.3055,343.0612 349.1818,343.32 349.6509,343.3842 351.5272,343.6393 351.9963,343.7027 353.8726,343.9542 354.3416,344.0166 356.218,344.2645 356.687,344.3261 358.5633,344.5704 359.0324,344.631 360.9087,344.8719 361.3778,344.9316 363.2541,345.1689 363.7232,345.2278 365.5995,345.4616 366.0686,345.5196 367.9449,345.7499 368.414,345.8071 370.2903,346.034 370.7594,346.0903 372.6357,346.3138 373.1048,346.3693 374.9811,346.5894 375.4502,346.644 377.3265,346.8608 377.7955,346.9146 379.6719,347.128 380.1409,347.181 382.0172,347.3912 382.4863,347.4433 384.3626,347.6502 384.8317,347.7016 386.708,347.9053 387.1771,347.9558 389.0534,348.1564 389.5225,348.2061 391.3988,348.4035 391.8679,348.4524 393.7442,348.6467 394.2133,348.6949 396.0896,348.8861 396.5587,348.9335 398.435,349.1216 398.9041,349.1683 400.7804,349.3534 401.2494,349.3993 403.1258,349.5814 403.5948,349.6266 405.4711,349.8058 405.9402,349.8502 407.8165,350.0265 408.2856,350.0702 410.1619,350.2436 410.631,350.2866 412.5073,350.4571 412.9764,350.4994 414.8527,350.6671 415.3218,350.7087 417.1981,350.8737 417.6672,350.9146 419.5435,351.0768 420.0126,351.117 421.8889,351.2766 422.358,351.3161 424.2343,351.473 424.7033,351.5118 426.5797,351.666 427.0487,351.7043 428.925,351.8559 429.3941,351.8935 431.2704,352.0425 431.7395,352.0795 433.6158,352.226 434.0849,352.2623 435.9612,352.4063 436.4303,352.442 438.3066,352.5836 438.7757,352.6186 440.652,352.7578 441.1211,352.7922 442.9974,352.929 443.4665,352.9628 445.3428,353.0972 445.8119,353.1305 447.6882,353.2625 448.1572,353.2953 450.0336,353.425 450.5026,353.4571 452.3789,353.5846 452.848,353.6162 454.7243,353.7414 455.1934,353.7725 457.0697,353.8955 457.5388,353.926 459.4151,354.0469 459.8842,354.0768 461.7605,354.1956 462.2296,354.225 464.1059,354.3416 464.575,354.3705 466.4513,354.4851 466.9204,354.5135 468.7967,354.626 469.2657,354.6539 471.1421,354.7644 471.6111,354.7918 473.4875,354.9003 473.9565,354.9272 475.8328,355.0338 476.3019,355.0602 478.1782,355.1649 478.6473,355.1908 480.5236,355.2936 480.9927,355.3191 482.869,355.42 483.3381,355.445 485.2144,355.5441 485.6835,355.5687 487.5598,355.666 488.0289,355.6901 489.9052,355.7856 490.3743,355.8092 492.2506,355.903 492.7196,355.9263 494.596,356.0183 495.065,356.0411 496.9413,356.1315 497.4104,356.1539 499.2867,356.2426 499.7558,356.2646 501.6321,356.3516 502.1012,356.3732 503.9775,356.4587 504.4466,356.4798 506.3229,356.5637 506.792,356.5845 508.6683,356.6668 509.1374,356.6872 511.0137,356.768 511.4828,356.7881 513.3591,356.8674 513.8282,356.887 515.7045,356.9648 516.1735,356.9841 518.0499,357.0604 518.5189,357.0794 520.3952,357.1543 520.8643,357.1728 522.7406,357.2464 523.2097,357.2646 525.086,357.3367 525.5551,357.3546 527.4314,357.4254 527.9005,357.4429 529.7768,357.5124 530.2459,357.5296 532.1222,357.5977 532.5913,357.6146 534.4676,357.6814 534.9367,357.698 536.813,357.7635 537.2821,357.7798 539.1584,357.8441 539.6274,357.86 541.5038,357.9231 541.9728,357.9388 543.8491,358.0007 544.3182,358.016 546.1945,358.0767 546.6636,358.0918 548.5399,358.1513 549.009,358.1661 550.8853,358.2245 551.3544,358.2389 553.2307,358.2962 553.6998,358.3104 555.5761,358.3666 556.0452,358.3805 557.9215,358.4356 558.3906,358.4493 560.2669,358.5033 560.736,358.5167 562.6123,358.5697 563.0813,358.5828 564.9577,358.6348 565.4267,358.6477 567.303,358.6986 567.7721,358.7113 569.6484,358.7612 570.1175,358.7736 571.9938,358.8226 572.4629,358.8348 574.3392,358.8828 574.8083,358.8947 576.6846,358.9418 577.1537,358.9535 579.03,358.9997 579.4991,359.0111 581.3754,359.0564 581.8445,359.0676 583.7208,359.112 584.1899,359.123 586.0662,359.1666 586.5352,359.1773" style="fill:none;stroke:rgb(30,144,255);stroke-width:3;stroke-linejoin:bevel" />
  <polygon points="34.54,8 592,8 592,365.04 34.54,365.04" style="fill:none;stroke:black;stroke-width:1" />
  <polygon points="419.1633,16 584,16 584,99.84 419.1633,99.84" style="fill:none;stroke:none;" />
  <text dominant-baseline="hanging" text-anchor="start" transform="translate(447.1633,24)" font-family="Segoe UI" font-size="12" font-weight="400" fill="black">Gamma(α = 0.8, β = 0.5)</text>
  <polyline points="427.1633,31.98 443.1633,31.98" style="fill:none;stroke:rgb(255,0,0);stroke-width:3" />
  <text dominant-baseline="hanging" text-anchor="start" transform="translate(447.1633,40.96)" font-family="Segoe UI" font-size="12" font-weight="400" fill="black">Gamma(α = 1, β = 0.5)</text>
  <polyline points="427.1633,48.94 443.1633,48.94" style="fill:none;stroke:black;stroke-width:3" />
  <text dominant-baseline="hanging" text-anchor="start" transform="translate(447.1633,57.92)" font-family="Segoe UI" font-size="12" font-weight="400" fill="black">Gamma(α = 1.1, β = 0.5)</text>
  <polyline points="427.1633,65.9 443.1633,65.9" style="fill:none;stroke:rgb(0,255,0);stroke-width:3" />
  <text dominant-baseline="hanging" text-anchor="start" transform="translate(447.1633,74.88)" font-family="Segoe UI" font-size="12" font-weight="400" fill="black">Gamma(α = 2, β = 0.5)</text>
  <polyline points="427.1633,82.86 443.1633,82.86" style="fill:none;stroke:rgb(30,144,255);stroke-width:3" />
</svg>