<?xml version="1.0" encoding="utf-8" standalone="no"?>
<!DOCTYPE svg PUBLIC "-//W3C//DTD SVG 1.1//EN" "http://www.w3.org/Graphics/SVG/1.1/DTD/svg11.dtd">
<svg width="600" height="400" version="1.1" xmlns:xlink="http://www.w3.org/1999/xlink" xmlns="http://www.w3.org/2000/svg">
  <polyline points="34.54,346.592 30.54,346.592" style="fill:none;stroke:black;stroke-width:1" />
  <polyline points="34.54,331.4104 30.54,331.4104" style="fill:none;stroke:black;stroke-width:1" />
  <polyline points="34.54,316.2287 30.54,316.2287" style="fill:none;stroke:black;stroke-width:1" />
  <polyline points="34.54,285.8654 30.54,285.8654" style="fill:none;stroke:black;stroke-width:1" />
  <polyline points="34.54,270.6838 30.54,270.6838" style="fill:none;stroke:black;stroke-width:1" />
  <polyline points="34.54,255.5021 30.54,255.5021" style="fill:none;stroke:black;stroke-width:1" />
  <polyline points="34.54,225.1388 30.54,225.1388" style="fill:none;stroke:black;stroke-width:1" />
  <polyline points="34.54,209.9571 30.54,209.9571" style="fill:none;stroke:black;stroke-width:1" />
  <polyline points="34.54,194.7755 30.54,194.7755" style="fill:none;stroke:black;stroke-width:1" />
  <polyline points="34.54,164.4122 30.54,164.4122" style="fill:none;stroke:black;stroke-width:1" />
  <polyline points="34.54,149.2305 30.54,149.2305" style="fill:none;stroke:black;stroke-width:1" />
  <polyline points="34.54,134.0489 30.54,134.0489" style="fill:none;stroke:black;stroke-width:1" />
  <polyline points="34.54,103.6856 30.54,103.6856" style="fill:none;stroke:black;stroke-width:1" />
  <polyline points="34.54,88.5039 30.54,88.5039" style="fill:none;stroke:black;stroke-width:1" />
  <polyline points="34.54,73.3223 30.54,73.3223" style="fill:none;stroke:black;stroke-width:1" />
  <polyline points="34.54,42.9589 30.54,42.9589" style="fill:none;stroke:black;stroke-width:1" />
  <polyline points="34.54,27.7773 30.54,27.7773" style="fill:none;stroke:black;stroke-width:1" />
  <polyline points="34.54,12.5956 30.54,12.5956" style="fill:none;stroke:black;stroke-width:1" />
  <polyline points="57.7483,365.04 57.7483,369.04" style="fill:none;stroke:black;stroke-width:1" />
  <polyline points="75.9399,365.04 75.9399,369.04" style="fill:none;stroke:black;stroke-width:1" />
  <polyline points="94.1315,365.04 94.1315,369.04" style="fill:none;stroke:black;stroke-width:1" />
  <polyline points="130.5148,365.04 130.5148,369.04" style="fill:none;stroke:black;stroke-width:1" />
  <polyline points="148.7064,365.04 148.7064,369.04" style="fill:none;stroke:black;stroke-width:1" />
  <polyline points="166.898,365.04 166.898,369.04" style="fill:none;stroke:black;stroke-width:1" />
  <polyline points="203.2812,365.04 203.2812,369.04" style="fill:none;stroke:black;stroke-width:1" />
  <polyline points="221.4728,365.04 221.4728,369.04" style="fill:none;stroke:black;stroke-width:1" />
  <polyline points="239.6644,365.04 239.6644,369.04" style="fill:none;stroke:black;stroke-width:1" />
  <polyline points="276.0476,365.04 276.0476,369.04" style="fill:none;stroke:black;stroke-width:1" />
  <polyline points="294.2392,365.04 294.2392,369.04" style="fill:none;stroke:black;stroke-width:1" />
  <polyline points="312.4308,365.04 312.4308,369.04" style="fill:none;stroke:black;stroke-width:1" />
  <polyline points="348.814,365.04 348.814,369.04" style="fill:none;stroke:black;stroke-width:1" />
  <polyline points="367.0056,365.04 367.0056,369.04" style="fill:none;stroke:black;stroke-width:1" />
  <polyline points="385.1972,365.04 385.1972,369.04" style="fill:none;stroke:black;stroke-width:1" />
  <polyline points="421.5804,365.04 421.5804,369.04" style="fill:none;stroke:black;stroke-width:1" />
  <polyline points="439.772,365.04 439.772,369.04" style="fill:none;stroke:black;stroke-width:1" />
  <polyline points="457.9637,365.04 457.9637,369.04" style="fill:none;stroke:black;stroke-width:1" />
  <polyline points="494.3469,365.04 494.3469,369.04" style="fill:none;stroke:black;stroke-width:1" />
  <polyline points="512.5385,365.04 512.5385,369.04" style="fill:none;stroke:black;stroke-width:1" />
  <polyline points="530.7301,365.04 530.7301,369.04" style="fill:none;stroke:black;stroke-width:1" />
  <polyline points="567.1133,365.04 567.1133,369.04" style="fill:none;stroke:black;stroke-width:1" />
  <polyline points="585.3049,365.04 585.3049,369.04" style="fill:none;stroke:black;stroke-width:1" />
  <text dominant-baseline="middle" text-anchor="end" transform="translate(23.54,361.7737)" font-family="Segoe UI" font-size="12" font-weight="400" fill="black">0</text>
  <text dominant-baseline="middle" text-anchor="end" transform="translate(23.54,301.0471)" font-family="Segoe UI" font-size="12" font-weight="400" fill="black">0.2</text>
  <text dominant-baseline="middle" text-anchor="end" transform="translate(23.54,240.3205)" font-family="Segoe UI" font-size="12" font-weight="400" fill="black">0.4</text>
  <text dominant-baseline="middle" text-anchor="end" transform="translate(23.54,179.5938)" font-family="Segoe UI" font-size="12" font-weight="400" fill="black">0.6</text>
  <text dominant-baseline="middle" text-anchor="end" transform="translate(23.54,118.8672)" font-family="Segoe UI" font-size="12" font-weight="400" fill="black">0.8</text>
  <text dominant-baseline="middle" text-anchor="end" transform="translate(23.54,58.1406)" font-family="Segoe UI" font-size="12" font-weight="400" fill="black">1</text>
  <polyline points="34.54,361.7737 27.54,361.7737" style="fill:none;stroke:black;stroke-width:1" />
  <polyline points="34.54,301.0471 27.54,301.0471" style="fill:none;stroke:black;stroke-width:1" />
  <polyline points="34.54,240.3205 27.54,240.3205" style="fill:none;stroke:black;stroke-width:1" />
  <polyline points="34.54,179.5938 27.54,179.5938" style="fill:none;stroke:black;stroke-width:1" />
  <polyline points="34.54,118.8672 27.54,118.8672" style="fill:none;stroke:black;stroke-width:1" />
  <polyline points="34.54,58.1406 27.54,58.1406" style="fill:none;stroke:black;stroke-width:1" />
  <text dominant-baseline="hanging" text-anchor="middle" transform="translate(39.5567,376.04)" font-family="Segoe UI" font-size="12" font-weight="400" fill="black">0</text>
  <text dominant-baseline="hanging" text-anchor="middle" transform="translate(112.3231,376.04)" font-family="Segoe UI" font-size="12" font-weight="400" fill="black">2</text>
  <text dominant-baseline="hanging" text-anchor="middle" transform="translate(185.0896,376.04)" font-family="Segoe UI" font-size="12" font-weight="400" fill="black">4</text>
  <text dominant-baseline="hanging" text-anchor="middle" transform="translate(257.856,376.04)" font-family="Segoe UI" font-size="12" font-weight="400" fill="black">6</text>
  <text dominant-baseline="hanging" text-anchor="middle" transform="translate(330.6224,376.04)" font-family="Segoe UI" font-size="12" font-weight="400" fill="black">8</text>
  <text dominant-baseline="hanging" text-anchor="middle" transform="translate(403.3888,376.04)" font-family="Segoe UI" font-size="12" font-weight="400" fill="black">10</text>
  <text dominant-baseline="hanging" text-anchor="middle" transform="translate(476.1553,376.04)" font-family="Segoe UI" font-size="12" font-weight="400" fill="black">12</text>
  <text dominant-baseline="hanging" text-anchor="middle" transform="translate(548.9217,376.04)" font-family="Segoe UI" font-size="12" font-weight="400" fill="black">14</text>
  <polyline points="39.5567,365.04 39.5567,372.04" style="fill:none;stroke:black;stroke-width:1" />
  <polyline points="112.3231,365.04 112.3231,372.04" style="fill:none;stroke:black;stroke-width:1" />
  <polyline points="185.0896,365.04 185.0896,372.04" style="fill:none;stroke:black;stroke-width:1" />
  <polyline points="257.856,365.04 257.856,372.04" style="fill:none;stroke:black;stroke-width:1" />
  <polyline points="330.6224,365.04 330.6224,372.04" style="fill:none;stroke:black;stroke-width:1" />
  <polyline points="403.3888,365.04 403.3888,372.04" style="fill:none;stroke:black;stroke-width:1" />
  <polyline points="476.1553,365.04 476.1553,372.04" style="fill:none;stroke:black;stroke-width:1" />
  <polyline points="548.9217,365.04 548.9217,372.04" style="fill:none;stroke:black;stroke-width:1" />
  <polyline points="40.0594,355.701 40.4232,352.4067 40.7871,349.4017 41.1509,346.5862 41.5147,343.911 41.8786,341.3468 42.2424,338.8745 42.6062,336.4805 42.9701,334.1547 43.3339,331.8895 43.6977,329.6787 44.0616,327.5172 44.4254,325.4011 44.7892,323.3267 45.1531,321.2913 45.5169,319.2921 45.8807,317.3271 46.2446,315.3943 46.6084,313.4919 46.9722,311.6185 47.336,309.7726 47.6999,307.9531 48.0637,306.1587 48.4275,304.3885 48.7914,302.6415 49.1552,300.9169 49.519,299.2138 49.8829,297.5316 50.2467,295.8695 50.6105,294.2269 50.9744,292.6033 51.3382,290.998 51.702,289.4105 52.0659,287.8404 52.4297,286.2872 52.7935,284.7505 53.1574,283.2298 53.5212,281.7248 53.885,280.235 54.2489,278.7602 54.6127,277.3 54.9765,275.8541 55.3404,274.4222 55.7042,273.004 56.068,271.5992 56.4319,270.2075 56.7957,268.8288 57.1595,267.4627 57.5233,266.109 57.8872,264.7675 58.251,263.438 58.6148,262.1203 58.9787,260.8141 59.3425,259.5193 59.7063,258.2357 60.0702,256.9631 60.434,255.7014 60.7978,254.4503 61.1617,253.2097 61.5255,251.9794 61.8893,250.7593 62.2532,249.5493 62.617,248.3491 62.9808,247.1587 63.3447,245.9779 63.7085,244.8066 64.0723,243.6446 64.4362,242.4919 64.8,241.3482 65.1638,240.2135 65.5277,239.0877 65.8915,237.9707 66.2553,236.8623 66.6192,235.7624 66.983,234.6709 67.3468,233.5878 67.7106,232.5128 68.0745,231.446 68.4383,230.3873 68.8021,229.3364 69.166,228.2934 69.5298,227.2582 69.8936,226.2306 70.2575,225.2105 70.6213,224.198 70.9851,223.1929 71.349,222.1951 71.7128,221.2046 72.0766,220.2212 72.4405,219.2449 72.8043,218.2756 73.1681,217.3133 73.532,216.3578 73.8958,215.4092 74.2596,214.4672 74.6235,213.532 75.3511,211.6811 75.715,210.7655 76.4426,208.9532 76.8064,208.0566 77.5341,206.2818 77.8979,205.4036 78.6256,203.6652 78.9894,202.8049 79.7171,201.1019 80.0809,200.2591 80.8086,198.5905 81.1724,197.7647 81.9001,196.1296 82.2639,195.3202 82.9916,193.7177 83.3554,192.9244 84.0831,191.3537 84.4469,190.5761 85.1746,189.0362 85.5384,188.2739 86.2661,186.7642 86.6299,186.0167 87.3576,184.5364 87.7214,183.8034 88.4491,182.3518 88.8129,181.633 89.5406,180.2093 89.9044,179.5043 90.6321,178.1079 90.9959,177.4164 91.7236,176.0466 92.0874,175.3682 92.8151,174.0245 93.1789,173.359 93.9066,172.0406 94.2704,171.3877 94.9981,170.0941 95.3619,169.4534 96.0896,168.1841 96.4534,167.5554 97.181,166.3098 97.5449,165.6929 98.2725,164.4704 98.6364,163.8649 99.364,162.6651 99.7279,162.0708 100.4555,160.8932 100.8194,160.3098 101.547,159.1539 101.9109,158.5812 102.6385,157.4465 103.0024,156.8843 104.0939,155.2184 104.4577,154.6699 105.5492,153.0443 105.913,152.5091 107.0045,150.9227 107.3683,150.4003 108.4598,148.8519 108.8237,148.3421 109.9152,146.8308 110.279,146.3331 111.3705,144.8578 111.7343,144.372 112.8258,142.9318 113.1897,142.4575 114.2812,141.0514 114.645,140.5882 115.7365,139.2153 116.1003,138.7631 117.1918,137.4225 117.5556,136.9809 118.6471,135.6718 119.011,135.2405 120.1025,133.962 120.4663,133.5408 121.5578,132.2921 121.9216,131.8808 123.0131,130.6611 123.377,130.2593 124.4685,129.068 124.8323,128.6755 125.9238,127.5118 126.2876,127.1284 127.3791,125.9915 127.7429,125.6169 128.8344,124.5062 129.1983,124.1403 130.2898,123.0551 130.6536,122.6975 131.7451,121.6373 132.1089,121.2879 133.2004,120.2519 133.5643,119.9105 135.0196,118.5646 135.3834,118.2329 136.8387,116.9252 137.2026,116.603 138.6579,115.3323 139.0217,115.0191 140.4771,113.7844 140.8409,113.4801 142.2962,112.2801 142.6601,111.9844 144.1154,110.8182 144.4792,110.5308 145.9346,109.3973 146.2984,109.1179 147.7537,108.0162 148.1175,107.7447 149.5729,106.6738 149.9367,106.4098 151.392,105.3688 151.7559,105.1122 153.2112,104.1002 153.575,103.8507 155.0304,102.8668 155.3942,102.6243 156.8495,101.6677 157.2133,101.4319 158.6687,100.5018 159.0325,100.2726 160.4878,99.3682 160.8517,99.1453 162.307,98.2659 162.6708,98.0491 164.1262,97.194 164.49,96.9832 165.9453,96.1516 166.3091,95.9466 167.7645,95.1378 168.1283,94.9384 169.5836,94.1519 169.9475,93.958 171.4028,93.193 171.7666,93.0044 173.222,92.2604 173.5858,92.077 175.0411,91.3533 175.405,91.1748 176.8603,90.4709 177.2241,90.2973 178.6794,89.6126 179.0433,89.4438 180.8624,88.6134 181.2263,88.4501 183.0454,87.6468 183.4093,87.4888 185.2284,86.7116 185.5923,86.5587 187.4114,85.8067 187.7752,85.6588 189.5944,84.9312 189.9582,84.7881 191.7774,84.084 192.1412,83.9455 193.9604,83.2642 194.3242,83.1302 196.1434,82.4709 196.5072,82.3412 198.3264,81.7032 198.6902,81.5776 200.5094,80.9602 200.8732,80.8387 202.6924,80.2411 203.0562,80.1235 204.8754,79.5451 205.2392,79.4313 207.0583,78.8715 207.4222,78.7614 209.2413,78.2195 209.6052,78.1129 211.4243,77.5884 211.7882,77.4852 213.6073,76.9775 213.9712,76.8776 215.7903,76.3862 216.1541,76.2894 217.9733,75.8137 218.3371,75.7201 220.1563,75.2595 220.5201,75.1689 222.3393,74.723 222.7031,74.6353 224.5223,74.2036 224.8861,74.1186 226.7053,73.7007 227.0691,73.6185 228.8883,73.2138 229.2521,73.1342 231.0713,72.7424 231.4351,72.6653 233.2543,72.286 233.6181,72.2114 235.4373,71.8441 235.8011,71.7718 237.6202,71.4162 237.9841,71.3462 239.8032,71.0018 240.1671,70.934 241.9862,70.6006 242.3501,70.5349 244.1692,70.212 244.5331,70.1485 246.3522,69.8358 246.716,69.7742 248.5352,69.4714 248.899,69.4118 250.7182,69.1186 251.082,69.0609 252.9012,68.7769 253.265,68.721 255.0842,68.4459 255.448,68.3918 257.2672,68.1254 257.631,68.073 259.4502,67.815 259.814,67.7642 261.6332,67.5143 261.997,67.4652 263.8162,67.2232 264.18,67.1755 265.9991,66.9411 266.363,66.895 268.1821,66.668 268.546,66.6233 270.3651,66.4034 270.729,66.3601 272.5481,66.1471 272.912,66.1052 274.7311,65.8988 275.095,65.8582 276.9141,65.6584 277.2779,65.619 279.0971,65.4255 279.4609,65.3874 281.2801,65.1998 281.6439,65.1629 283.4631,64.9813 283.8269,64.9455 285.6461,64.7695 286.0099,64.7349 287.8291,64.5644 288.1929,64.5309 290.0121,64.3657 290.3759,64.3332 292.1951,64.1733 292.5589,64.1418 294.3781,63.9868 294.7419,63.9563 296.561,63.8061 296.9249,63.7766 298.744,63.6311 299.1079,63.6025 300.927,63.4616 301.2909,63.4338 303.11,63.2973 303.4739,63.2704 305.293,63.1381 305.6568,63.1121 307.476,62.9839 307.8398,62.9587 309.659,62.8345 310.0228,62.8101 311.842,62.6898 312.2058,62.6661 314.025,62.5496 314.3888,62.5266 316.208,62.4137 316.5718,62.3914 318.391,62.282 318.7548,62.2605 320.574,62.1545 320.9378,62.1336 322.757,62.0308 323.1208,62.0106 324.94,61.9111 325.3038,61.8915 327.1229,61.795 327.4868,61.776 329.3059,61.6826 329.6698,61.6642 331.4889,61.5736 331.8528,61.5558 333.6719,61.468 334.0358,61.4508 335.8549,61.3657 336.2187,61.349 338.0379,61.2666 338.4017,61.2504 340.2209,61.1705 340.5847,61.1548 342.4039,61.0774 342.7677,61.0622 344.5869,60.9872 344.9507,60.9725 346.7699,60.8998 347.1337,60.8855 348.9529,60.8151 349.3167,60.8012 351.1359,60.733 351.4997,60.7195 353.3189,60.6534 353.6827,60.6404 355.5018,60.5763 355.8657,60.5637 357.6848,60.5016 358.0487,60.4894 359.8678,60.4292 360.2317,60.4173 362.0508,60.359 362.4147,60.3475 364.2338,60.291 364.5977,60.2799 366.4168,60.2251 366.7806,60.2143 368.5998,60.1612 368.9636,60.1508 370.7828,60.0993 371.1466,60.0892 372.9658,60.0393 373.3296,60.0295 375.1488,59.9812 375.5126,59.9716 377.3318,59.9248 377.6956,59.9156 379.5148,59.8702 379.8786,59.8612 381.6978,59.8172 382.0616,59.8086 383.8808,59.7659 384.2446,59.7575 386.0637,59.7162 386.4276,59.7081 388.2467,59.668 388.6106,59.6601 390.4297,59.6213 390.7936,59.6136 392.6127,59.576 392.9766,59.5686 394.7957,59.5321 395.1595,59.5249 396.9787,59.4896 397.3425,59.4826 399.1617,59.4484 399.5255,59.4416 401.3447,59.4084 401.7085,59.4019 403.5277,59.3697 403.8915,59.3633 405.7107,59.3321 406.0745,59.326 407.8937,59.2957 408.2575,59.2898 410.0767,59.2604 410.4405,59.2547 412.2597,59.2263 412.6235,59.2207 414.4427,59.1931 414.8065,59.1877 416.6256,59.161 416.9895,59.1557 418.8086,59.1299 419.1725,59.1248 420.9916,59.0997 421.3555,59.0947 423.1746,59.0704 423.5385,59.0656 425.3576,59.042 425.7214,59.0374 427.5406,59.0146 427.9044,59.0101 429.7236,58.9879 430.0874,58.9835 431.9066,58.9621 432.2704,58.9578 434.0896,58.937 434.4534,58.9329 436.2726,58.9128 436.6364,58.9088 438.4556,58.8892 438.8194,58.8854 440.6386,58.8664 441.0024,58.8627 442.8216,58.8443 443.1854,58.8407 445.0045,58.8229 445.3684,58.8194 447.1875,58.8021 447.5514,58.7987 449.3705,58.7819 449.7344,58.7786 451.5535,58.7624 451.9174,58.7592 453.7365,58.7435 454.1004,58.7404 455.9195,58.7251 456.2833,58.7221 458.1025,58.7073 458.4663,58.7044 460.2855,58.6901 460.6493,58.6873 462.4685,58.6734 462.8323,58.6706 464.6515,58.6572 465.0153,58.6545 466.8345,58.6414 467.1983,58.6389 469.0175,58.6262 469.3813,58.6237 471.2005,58.6114 471.5643,58.609 473.3835,58.5971 473.7473,58.5948 475.5664,58.5832 475.9303,58.581 477.7494,58.5698 478.1133,58.5676 479.9324,58.5567 480.2963,58.5546 482.1154,58.5441 482.4793,58.542 484.2984,58.5318 484.6622,58.5298 486.4814,58.5199 486.8452,58.518 488.6644,58.5084 489.0282,58.5065 490.8474,58.4972 491.2112,58.4954 493.0304,58.4864 493.3942,58.4846 495.2134,58.4759 495.5772,58.4742 497.3964,58.4657 497.7602,58.4641 499.5794,58.4558 499.9432,58.4542 501.7624,58.4463 502.1262,58.4447 503.9454,58.437 504.3092,58.4355 506.1283,58.428 506.4922,58.4265 508.3113,58.4193 508.6752,58.4178 510.4943,58.4108 510.8582,58.4094 512.6773,58.4026 513.0412,58.4013 514.8603,58.3947 515.2241,58.3934 517.0433,58.387 517.4071,58.3857 519.2263,58.3795 519.5901,58.3783 521.4093,58.3722 521.7731,58.3711 523.5923,58.3652 523.9561,58.3641 525.7753,58.3584 526.1391,58.3573 527.9583,58.3518 528.3221,58.3507 530.1413,58.3454 530.5051,58.3443 532.3243,58.3392 532.6881,58.3382 534.5072,58.3332 534.8711,58.3322 536.6902,58.3273 537.0541,58.3264 538.8732,58.3217 539.2371,58.3207 541.0562,58.3162 541.4201,58.3153 543.2392,58.3109 543.6031,58.31 545.4222,58.3057 545.786,58.3049 547.6052,58.3007 547.969,58.2999 549.7882,58.2958 550.152,58.2951 551.9712,58.2911 552.335,58.2904 554.1542,58.2866 554.518,58.2858 556.3372,58.2822 556.701,58.2814 558.5202,58.2779 558.884,58.2772 560.7032,58.2737 561.067,58.273 562.8862,58.2697 563.25,58.269 565.0691,58.2658 565.433,58.2651 567.2521,58.262 567.616,58.2614 569.4351,58.2583 569.799,58.2577 571.6181,58.2548 571.982,58.2542 573.8011,58.2513 574.1649,58.2507 575.9841,58.2479 576.3479,58.2474 578.1671,58.2447 578.5309,58.2442 580.3501,58.2416 580.7139,58.241 582.5331,58.2385 582.8969,58.238 584.7161,58.2355 585.0799,58.235 586.1714,58.2336 586.5352,58.2331" style="fill:none;stroke:rgb(255,0,0);stroke-width:3;stroke-linejoin:bevel" />
  <polyline points="40.0594,361.7737 40.4232,361.7736 42.2424,361.7712 42.6062,361.7701 44.4254,361.7593 44.7892,361.7559 46.6084,361.7309 46.9722,361.7241 48.7914,361.6796 49.1552,361.6685 50.9744,361.5998 51.3382,361.5834 53.1574,361.4863 53.5212,361.4638 55.3404,361.3344 55.7042,361.3051 57.5233,361.14 57.8872,361.1032 59.7063,360.8994 60.0702,360.8546 61.8893,360.6095 62.2532,360.5561 64.0723,360.2673 64.4362,360.205 66.2553,359.8705 66.6192,359.7989 68.4383,359.417 68.8021,359.3358 70.6213,358.9051 70.9851,358.814 72.8043,358.3333 73.1681,358.2322 74.9873,357.7006 75.3511,357.5891 77.1703,357.006 77.5341,356.8842 79.3533,356.249 79.7171,356.1167 81.5363,355.4291 81.9001,355.2863 83.7193,354.5463 84.0831,354.393 85.9023,353.6005 86.2661,353.4367 87.7214,352.7644 88.0852,352.5919 89.5406,351.8849 89.9044,351.7039 91.3597,350.9624 91.7236,350.7728 93.1789,349.9972 93.5427,349.7991 94.9981,348.9898 95.3619,348.7833 96.8172,347.9406 97.181,347.7258 98.6364,346.8501 99.0002,346.6271 100.4555,345.719 100.8194,345.488 102.2747,344.5479 102.6385,344.309 104.0939,343.3375 104.4577,343.0908 105.913,342.0886 106.2769,341.8342 107.7322,340.8018 108.096,340.5399 109.5513,339.4779 109.9152,339.2088 111.3705,338.1179 111.7343,337.8416 113.1897,336.7225 113.5535,336.4393 115.0088,335.2926 115.3727,335.0026 116.828,333.8292 117.1918,333.5325 118.6471,332.333 119.011,332.0299 120.4663,330.8051 120.8301,330.4958 122.2855,329.2464 122.6493,328.931 124.1046,327.6578 124.4685,327.3365 125.9238,326.0403 126.2876,325.7134 127.7429,324.3948 128.1068,324.0624 129.5621,322.7224 129.9259,322.3847 131.3813,321.0239 131.7451,320.6812 132.8366,319.6471 133.2004,319.3005 134.2919,318.2548 134.6558,317.9044 135.7473,316.8475 136.1111,316.4934 137.2026,315.4257 137.5664,315.068 138.6579,313.9898 139.0217,313.6287 140.1132,312.5404 140.4771,312.176 141.5686,311.078 141.9324,310.7105 143.0239,309.6031 143.3877,309.2325 144.4792,308.1161 144.8431,307.7426 145.9346,306.6176 146.2984,306.2412 147.3899,305.108 147.7537,304.7289 148.8452,303.5878 149.209,303.2061 150.3005,302.0575 150.6644,301.6734 151.7559,300.5175 152.1197,300.1311 153.2112,298.9684 153.575,298.5797 154.6665,297.4105 155.0304,297.0197 156.1219,295.8444 156.4857,295.4516 157.5772,294.2705 157.941,293.8758 159.0325,292.6892 159.3963,292.2928 160.4878,291.101 160.8517,290.703 161.9432,289.5064 162.307,289.1067 163.3985,287.9057 163.7623,287.5046 164.8538,286.2993 165.2177,285.8969 166.3091,284.6878 166.673,284.2842 167.7645,283.0715 168.1283,282.6667 169.2198,281.4508 169.5836,281.045 170.6751,279.8262 171.039,279.4194 172.1305,278.1979 172.4943,277.7904 173.5858,276.5665 173.9496,276.1582 175.0411,274.9323 175.405,274.5234 176.4964,273.2957 176.8603,272.8862 177.9518,271.657 178.3156,271.247 179.4071,270.0166 179.7709,269.6063 180.8624,268.3748 181.2263,267.9642 182.3178,266.7321 182.6816,266.3213 183.7731,265.0888 184.1369,264.6779 185.2284,263.4451 185.5923,263.0342 186.6837,261.8015 187.0476,261.3907 188.1391,260.1583 188.5029,259.7475 189.5944,258.5157 189.9582,258.1052 191.0497,256.8741 191.4136,256.4638 192.5051,255.2337 192.8689,254.8239 193.9604,253.595 194.3242,253.1856 195.4157,251.9582 195.7796,251.5493 196.871,250.3235 197.2349,249.9152 198.3264,248.6913 198.6902,248.2836 199.7817,247.0618 200.1455,246.6548 201.237,245.4352 201.6009,245.0291 202.6924,243.812 203.0562,243.4067 204.1477,242.1922 204.5115,241.7878 205.603,240.5761 205.9669,240.1727 207.0583,238.9641 207.4222,238.5617 208.5137,237.3563 208.8775,236.955 209.969,235.7529 210.3328,235.3528 211.4243,234.1542 211.7882,233.7553 212.8797,232.5604 213.2435,232.1627 214.335,230.9717 214.6988,230.5753 215.7903,229.3883 216.1541,228.9933 217.2456,227.8104 217.6095,227.4168 218.701,226.2382 219.0648,225.8461 220.1563,224.6719 220.5201,224.2813 221.6116,223.1117 221.9755,222.7226 223.067,221.5577 223.4308,221.1702 224.5223,220.0101 224.8861,219.6242 225.9776,218.4691 226.3414,218.0849 227.4329,216.9349 227.7968,216.5524 228.8883,215.4076 229.2521,215.0268 230.3436,213.8873 230.7074,213.5083 231.7989,212.3742 232.1628,211.997 233.2543,210.8684 233.6181,210.4931 234.7096,209.3701 235.0734,208.9967 236.1649,207.8794 236.5287,207.508 237.6202,206.3965 237.9841,206.027 239.0756,204.9214 239.4394,204.5538 240.5309,203.4542 240.8947,203.0887 241.9862,201.9951 242.3501,201.6316 243.4416,200.5442 243.8054,200.1828 244.8969,199.1016 245.2607,198.7422 246.3522,197.6673 246.716,197.3101 247.8075,196.2416 248.1714,195.8864 249.2629,194.8243 249.6267,194.4714 250.7182,193.4158 251.082,193.065 252.1735,192.0159 252.5374,191.6673 253.6289,190.6249 253.9927,190.2785 255.0842,189.2427 255.448,188.8986 256.9033,187.5276 257.2672,187.1863 258.7225,185.8267 259.0863,185.4882 260.5417,184.1399 260.9055,183.8042 262.3608,182.4675 262.7247,182.1347 264.18,180.8095 264.5438,180.4796 265.9991,179.166 266.363,178.8391 267.8183,177.5372 268.1821,177.2131 269.6375,175.923 270.0013,175.6019 271.4566,174.3236 271.8205,174.0055 273.2758,172.739 273.6396,172.4239 275.095,171.1693 275.4588,170.8572 276.9141,169.6146 277.2779,169.3054 278.7333,168.0747 279.0971,167.7686 280.5524,166.5499 280.9163,166.2468 282.3716,165.0401 282.7354,164.74 284.1908,163.5454 284.5546,163.2483 286.0099,162.0657 286.3737,161.7716 287.8291,160.6011 288.1929,160.31 289.6482,159.1516 290.0121,158.8635 291.4674,157.7171 291.8312,157.432 293.2866,156.2977 293.6504,156.0156 295.1057,154.8934 295.4696,154.6143 296.9249,153.5041 297.2887,153.228 298.744,152.1298 299.1079,151.8567 300.5632,150.7704 300.927,150.5004 302.3824,149.4261 302.7462,149.159 304.2015,148.0966 304.5654,147.8325 306.0207,146.782 306.3845,146.5209 307.8398,145.4823 308.2037,145.2241 309.659,144.1973 310.0228,143.9421 311.4782,142.9271 311.842,142.6748 313.2973,141.6715 313.6612,141.4222 315.1165,140.4306 315.4803,140.1841 316.9356,139.2042 317.2995,138.9606 318.7548,137.9923 319.1186,137.7516 320.574,136.7948 320.9378,136.557 322.3931,135.6116 322.757,135.3767 324.2123,134.4428 324.5761,134.2107 326.0314,133.2881 326.3953,133.0589 327.8506,132.1475 328.2144,131.9211 329.6698,131.021 330.0336,130.7974 331.4889,129.9084 331.8528,129.6876 333.3081,128.8097 333.6719,128.5916 335.1273,127.7248 335.4911,127.5094 336.9464,126.6535 337.3102,126.4409 338.7656,125.5958 339.1294,125.3859 340.5847,124.5516 340.9486,124.3444 342.4039,123.5209 342.7677,123.3163 344.2231,122.5034 344.5869,122.3015 346.0422,121.4991 346.406,121.2998 347.8614,120.5079 348.2252,120.3112 349.6805,119.5297 350.0444,119.3356 351.4997,118.5644 351.8635,118.3729 353.3189,117.6119 353.6827,117.4229 355.138,116.6721 355.5018,116.4856 356.9572,115.7448 357.321,115.5609 358.7763,114.83 359.1402,114.6486 360.5955,113.9276 360.9593,113.7486 362.4147,113.0374 362.7785,112.8609 364.2338,112.1594 364.5977,111.9852 366.053,111.2934 366.4168,111.1216 367.8721,110.4393 368.236,110.2699 369.6913,109.597 370.0551,109.43 371.8743,108.6017 372.2381,108.4374 374.0573,107.623 374.4211,107.4615 376.2403,106.6608 376.6041,106.502 378.4233,105.7148 378.7871,105.5587 380.6063,104.7849 380.9701,104.6314 382.7893,103.8708 383.1531,103.72 384.9723,102.9724 385.3361,102.8242 387.1552,102.0894 387.5191,101.9438 389.3382,101.2218 389.7021,101.0786 391.5212,100.3691 391.8851,100.2285 393.7042,99.5314 394.0681,99.3932 395.8872,98.7083 396.251,98.5726 398.0702,97.8997 398.434,97.7664 400.2532,97.1054 400.617,96.9744 402.4362,96.3252 402.8,96.1965 404.6192,95.5589 404.983,95.4325 406.8022,94.8062 407.166,94.6821 408.9852,94.0671 409.349,93.9452 411.1682,93.3413 411.532,93.2216 413.3512,92.6286 413.715,92.5111 415.5341,91.9289 415.898,91.8135 417.7171,91.2419 418.081,91.1286 419.9001,90.5675 420.264,90.4563 422.0831,89.9054 422.447,89.7963 424.2661,89.2556 424.63,89.1484 426.4491,88.6177 426.8129,88.5126 428.6321,87.9917 428.9959,87.8885 430.8151,87.3773 431.1789,87.276 432.9981,86.7744 433.3619,86.675 435.1811,86.1828 435.5449,86.0853 437.3641,85.6023 437.7279,85.5066 439.5471,85.0327 439.9109,84.9388 441.7301,84.4739 442.0939,84.3818 443.9131,83.9257 444.2769,83.8353 446.096,83.3879 446.4599,83.2993 448.279,82.8604 448.6429,82.7734 450.462,82.343 450.8259,82.2577 452.645,81.8354 453.0089,81.7518 454.828,81.3377 455.1918,81.2557 457.011,80.8496 457.3748,80.7692 459.194,80.3709 459.5578,80.292 461.377,79.9015 461.7408,79.8242 463.56,79.4412 463.9238,79.3654 465.743,78.99 466.1068,78.9156 467.926,78.5475 468.2898,78.4746 470.109,78.1137 470.4728,78.0423 472.292,77.6885 472.6558,77.6184 474.475,77.2716 474.8388,77.203 476.6579,76.863 477.0218,76.7957 478.8409,76.4625 479.2048,76.3965 481.0239,76.0699 481.3878,76.0052 483.2069,75.6851 483.5708,75.6218 485.3899,75.3081 485.7537,75.246 487.5729,74.9385 487.9367,74.8777 489.7559,74.5764 490.1197,74.5168 491.9389,74.2216 492.3027,74.1631 494.1219,73.8739 494.4857,73.8166 496.3049,73.5332 496.6687,73.4771 498.4879,73.1994 498.8517,73.1444 500.6709,72.8724 501.0347,72.8185 502.8539,72.552 503.2177,72.4992 505.0368,72.2381 505.4007,72.1865 507.2198,71.9307 507.5837,71.8801 509.4028,71.6295 509.7667,71.58 511.5858,71.3346 511.9497,71.286 513.7688,71.0456 514.1327,70.9981 515.9518,70.7627 516.3156,70.7161 518.1348,70.4855 518.4986,70.4399 520.3178,70.2141 520.6816,70.1694 522.5008,69.9483 522.8646,69.9045 524.6838,69.688 525.0476,69.6451 526.8668,69.4331 527.2306,69.3912 529.0498,69.1835 529.4136,69.1425 531.2328,68.9392 531.5966,68.899 533.4158,68.6999 533.7796,68.6605 535.5987,68.4657 535.9626,68.4271 537.7817,68.2363 538.1456,68.1986 539.9647,68.0118 540.3286,67.9749 542.1477,67.792 542.5116,67.7559 544.3307,67.5769 544.6945,67.5415 546.5137,67.3663 546.8775,67.3316 548.6967,67.1601 549.0605,67.1262 550.8797,66.9583 551.2435,66.9251 553.0627,66.7608 553.4265,66.7283 555.2457,66.5675 555.6095,66.5357 557.4287,66.3783 557.7925,66.3472 559.6117,66.1932 559.9755,66.1627 561.7947,66.012 562.1585,65.9822 563.9777,65.8347 564.3415,65.8055 566.1606,65.6612 566.5245,65.6326 568.3436,65.4914 568.7075,65.4635 570.5266,65.3253 570.8905,65.2979 572.7096,65.1627 573.0735,65.136 574.8926,65.0037 575.2564,64.9775 577.0756,64.8481 577.4394,64.8225 579.2586,64.6958 579.6224,64.6708 581.4416,64.5469 581.8054,64.5224 583.6246,64.4012 583.9884,64.3772 585.8076,64.2587 586.1714,64.2352 586.5352,64.2118" style="fill:none;stroke:black;stroke-width:3;stroke-linejoin:bevel" />
  <polygon points="34.54,8 592,8 592,365.04 34.54,365.04" style="fill:none;stroke:black;stroke-width:1" />
  <polygon points="419.1633,16 584,16 584,65.92 419.1633,65.92" style="fill:none;stroke:none;" />
  <text dominant-baseline="hanging" text-anchor="start" transform="translate(447.1633,24)" font-family="Segoe UI" font-size="12" font-weight="400" fill="black">Gamma(α = 0.8, β = 0.5)</text>
  <polyline points="427.1633,31.98 443.1633,31.98" style="fill:none;stroke:rgb(255,0,0);stroke-width:3" />
  <text dominant-baseline="hanging" text-anchor="start" transform="translate(447.1633,40.96)" font-family="Segoe UI" font-size="12" font-weight="400" fill="black">Gamma(α = 3, β = 0.5)</text>
  <polyline points="427.1633,48.94 443.1633,48.94" style="fill:none;stroke:black;stroke-width:3" />
</svg>