<?xml version="1.0" encoding="utf-8" standalone="no"?>
<!DOCTYPE svg PUBLIC "-//W3C//DTD SVG 1.1//EN" "http://www.w3.org/Graphics/SVG/1.1/DTD/svg11.dtd">
<svg width="600" height="400" version="1.1" xmlns:xlink="http://www.w3.org/1999/xlink" xmlns="http://www.w3.org/2000/svg">
  <polyline points="34.54,335.4638 30.54,335.4638" style="fill:none;stroke:black;stroke-width:1" />
  <polyline points="34.54,309.4227 30.54,309.4227" style="fill:none;stroke:black;stroke-width:1" />
  <polyline points="34.54,283.3816 30.54,283.3816" style="fill:none;stroke:black;stroke-width:1" />
  <polyline points="34.54,257.3404 30.54,257.3404" style="fill:none;stroke:black;stroke-width:1" />
  <polyline points="34.54,205.2582 30.54,205.2582" style="fill:none;stroke:black;stroke-width:1" />
  <polyline points="34.54,179.217 30.54,179.217" style="fill:none;stroke:black;stroke-width:1" />
  <polyline points="34.54,153.1759 30.54,153.1759" style="fill:none;stroke:black;stroke-width:1" />
  <polyline points="34.54,127.1348 30.54,127.1348" style="fill:none;stroke:black;stroke-width:1" />
  <polyline points="34.54,75.0525 30.54,75.0525" style="fill:none;stroke:black;stroke-width:1" />
  <polyline points="34.54,49.0114 30.54,49.0114" style="fill:none;stroke:black;stroke-width:1" />
  <polyline points="34.54,22.9703 30.54,22.9703" style="fill:none;stroke:black;stroke-width:1" />
  <polyline points="58.7142,365.04 58.7142,369.04" style="fill:none;stroke:black;stroke-width:1" />
  <polyline points="80.661,365.04 80.661,369.04" style="fill:none;stroke:black;stroke-width:1" />
  <polyline points="102.6078,365.04 102.6078,369.04" style="fill:none;stroke:black;stroke-width:1" />
  <polyline points="124.5547,365.04 124.5547,369.04" style="fill:none;stroke:black;stroke-width:1" />
  <polyline points="168.4483,365.04 168.4483,369.04" style="fill:none;stroke:black;stroke-width:1" />
  <polyline points="190.3951,365.04 190.3951,369.04" style="fill:none;stroke:black;stroke-width:1" />
  <polyline points="212.3419,365.04 212.3419,369.04" style="fill:none;stroke:black;stroke-width:1" />
  <polyline points="234.2888,365.04 234.2888,369.04" style="fill:none;stroke:black;stroke-width:1" />
  <polyline points="278.1824,365.04 278.1824,369.04" style="fill:none;stroke:black;stroke-width:1" />
  <polyline points="300.1292,365.04 300.1292,369.04" style="fill:none;stroke:black;stroke-width:1" />
  <polyline points="322.0761,365.04 322.0761,369.04" style="fill:none;stroke:black;stroke-width:1" />
  <polyline points="344.0229,365.04 344.0229,369.04" style="fill:none;stroke:black;stroke-width:1" />
  <polyline points="387.9165,365.04 387.9165,369.04" style="fill:none;stroke:black;stroke-width:1" />
  <polyline points="409.8633,365.04 409.8633,369.04" style="fill:none;stroke:black;stroke-width:1" />
  <polyline points="431.8102,365.04 431.8102,369.04" style="fill:none;stroke:black;stroke-width:1" />
  <polyline points="453.757,365.04 453.757,369.04" style="fill:none;stroke:black;stroke-width:1" />
  <polyline points="497.6506,365.04 497.6506,369.04" style="fill:none;stroke:black;stroke-width:1" />
  <polyline points="519.5974,365.04 519.5974,369.04" style="fill:none;stroke:black;stroke-width:1" />
  <polyline points="541.5443,365.04 541.5443,369.04" style="fill:none;stroke:black;stroke-width:1" />
  <polyline points="563.4911,365.04 563.4911,369.04" style="fill:none;stroke:black;stroke-width:1" />
  <text dominant-baseline="middle" text-anchor="end" transform="translate(23.54,361.505)" font-family="Segoe UI" font-size="12" font-weight="400" fill="black">0</text>
  <text dominant-baseline="middle" text-anchor="end" transform="translate(23.54,231.2993)" font-family="Segoe UI" font-size="12" font-weight="400" fill="black">0.5</text>
  <text dominant-baseline="middle" text-anchor="end" transform="translate(23.54,101.0936)" font-family="Segoe UI" font-size="12" font-weight="400" fill="black">1</text>
  <polyline points="34.54,361.505 27.54,361.505" style="fill:none;stroke:black;stroke-width:1" />
  <polyline points="34.54,231.2993 27.54,231.2993" style="fill:none;stroke:black;stroke-width:1" />
  <polyline points="34.54,101.0936 27.54,101.0936" style="fill:none;stroke:black;stroke-width:1" />
  <text dominant-baseline="hanging" text-anchor="middle" transform="translate(36.7674,376.04)" font-family="Segoe UI" font-size="12" font-weight="400" fill="black">0</text>
  <text dominant-baseline="hanging" text-anchor="middle" transform="translate(146.5015,376.04)" font-family="Segoe UI" font-size="12" font-weight="400" fill="black">1</text>
  <text dominant-baseline="hanging" text-anchor="middle" transform="translate(256.2356,376.04)" font-family="Segoe UI" font-size="12" font-weight="400" fill="black">2</text>
  <text dominant-baseline="hanging" text-anchor="middle" transform="translate(365.9697,376.04)" font-family="Segoe UI" font-size="12" font-weight="400" fill="black">3</text>
  <text dominant-baseline="hanging" text-anchor="middle" transform="translate(475.7038,376.04)" font-family="Segoe UI" font-size="12" font-weight="400" fill="black">4</text>
  <text dominant-baseline="hanging" text-anchor="middle" transform="translate(585.4379,376.04)" font-family="Segoe UI" font-size="12" font-weight="400" fill="black">5</text>
  <polyline points="36.7674,365.04 36.7674,372.04" style="fill:none;stroke:black;stroke-width:1" />
  <polyline points="146.5015,365.04 146.5015,372.04" style="fill:none;stroke:black;stroke-width:1" />
  <polyline points="256.2356,365.04 256.2356,372.04" style="fill:none;stroke:black;stroke-width:1" />
  <polyline points="365.9697,365.04 365.9697,372.04" style="fill:none;stroke:black;stroke-width:1" />
  <polyline points="475.7038,365.04 475.7038,372.04" style="fill:none;stroke:black;stroke-width:1" />
  <polyline points="585.4379,365.04 585.4379,372.04" style="fill:none;stroke:black;stroke-width:1" />
  <polyline points="40.0594,361.505 43.3514,361.5008 46.6435,361.0245 49.9355,357.1581 53.2275,346.7757 56.5195,330.4331 59.8115,311.0211 63.1036,291.4116 66.3956,273.5148 69.6876,258.2837 72.9796,246.0033 76.2717,236.5708 79.5637,229.6929 82.8557,225.0068 86.1477,222.1457 89.4398,220.7715 92.7318,220.5885 96.0238,221.3452 99.3158,222.8326 102.6078,224.879 105.8999,227.3451 109.1919,230.1187 112.4839,233.1096 115.7759,236.2462 119.068,239.4718 122.36,242.7415 125.652,246.0204 128.944,249.2814 132.2361,252.5035 135.5281,255.6709 138.8201,258.7718 142.1121,261.7976 145.4041,264.7422 148.6962,267.6017 151.9882,270.3737 155.2802,273.057 158.5722,275.6515 161.8643,278.1579 165.1563,280.5774 168.4483,282.9117 171.7403,285.1628 175.0324,287.3328 178.3244,289.4244 181.6164,291.44 184.9084,293.3821 188.2004,295.2535 191.4925,297.0567 194.7845,298.7943 198.0765,300.4689 201.3685,302.0829 204.6606,303.6388 207.9526,305.139 211.2446,306.5857 214.5366,307.9812 217.8287,309.3275 221.1207,310.6266 224.4127,311.8807 227.7047,313.0914 230.9967,314.2607 234.2888,315.3902 237.5808,316.4816 240.8728,317.5364 244.1648,318.5562 247.4569,319.5424 250.7489,320.4963 254.0409,321.4193 257.3329,322.3126 260.625,323.1775 263.917,324.015 267.209,324.8262 270.501,325.6122 273.793,326.374 277.0851,327.1125 280.3771,327.8285 283.6691,328.5231 286.9611,329.1969 290.2532,329.8509 293.5452,330.4856 296.8372,331.1019 300.1292,331.7005 303.4213,332.2819 306.7133,332.8469 310.0053,333.3959 313.2973,333.9297 316.5893,334.4487 319.8814,334.9534 323.1734,335.4445 326.4654,335.9222 329.7574,336.3872 333.0495,336.8399 336.3415,337.2806 339.6335,337.7098 342.9255,338.1279 346.2176,338.5352 349.5096,338.9321 352.8016,339.319 356.0936,339.6962 359.3856,340.0639 362.6777,340.4226 365.9697,340.7724 369.2617,341.1137 372.5537,341.4468 375.8458,341.7719 379.1378,342.0892 382.4298,342.3991 385.7218,342.7016 389.0139,342.9971 392.3059,343.2858 395.5979,343.5678 398.8899,343.8435 402.1819,344.1128 405.474,344.3761 408.766,344.6336 412.058,344.8853 415.35,345.1315 418.6421,345.3724 421.9341,345.608 425.2261,345.8385 428.5181,346.0641 431.8102,346.2849 435.1022,346.501 438.3942,346.7126 441.6862,346.9198 444.9782,347.1227 448.2703,347.3214 451.5623,347.5161 454.8543,347.7068 458.1463,347.8936 461.4384,348.0768 464.7304,348.2563 468.0224,348.4322 471.3144,348.6047 474.6065,348.7738 477.8985,348.9396 481.1905,349.1022 484.4825,349.2618 487.7745,349.4182 491.0666,349.5717 494.3586,349.7224 497.6506,349.8702 500.9426,350.0152 504.2347,350.1576 507.5267,350.2974 510.8187,350.4346 514.1107,350.5693 517.4028,350.7016 520.6948,350.8315 523.9868,350.9591 527.2788,351.0845 530.5708,351.2076 533.8629,351.3286 537.1549,351.4474 540.4469,351.5643 543.7389,351.679 547.031,351.7919 550.323,351.9028 553.615,352.0118 556.907,352.119 560.1991,352.2244 563.4911,352.328 566.7831,352.4299 570.0751,352.5301 573.3671,352.6287 576.6592,352.7257 579.9512,352.8211 583.2432,352.9149 586.5352,353.0073" style="fill:none;stroke:black;stroke-width:3;stroke-linejoin:bevel" />
  <polyline points="40.0594,361.505 43.3514,361.505 46.6435,361.5049 49.9355,361.5029 53.2275,361.4675 56.5195,361.2647 59.8115,360.6417 63.1036,359.3315 66.3956,357.1702 69.6876,354.1403 72.9796,350.3473 76.2717,345.969 79.5637,341.209 82.8557,336.263 86.1477,331.3008 89.4398,326.4583 92.7318,321.8375 96.0238,317.5099 99.3158,313.5206 102.6078,309.8943 105.8999,306.6399 109.1919,303.7541 112.4839,301.2258 115.7759,299.0379 119.068,297.1697 122.36,295.5989 125.652,294.3021 128.944,293.2559 132.2361,292.4375 135.5281,291.8253 138.8201,291.3986 142.1121,291.1382 145.4041,291.0264 148.6962,291.0467 151.9882,291.1842 155.2802,291.4251 158.5722,291.757 161.8643,292.1688 165.1563,292.6501 168.4483,293.192 171.7403,293.7861 175.0324,294.425 178.3244,295.1023 181.6164,295.8118 184.9084,296.5484 188.2004,297.3073 191.4925,298.0842 194.7845,298.8756 198.0765,299.6779 201.3685,300.4884 204.6606,301.3042 207.9526,302.1232 211.2446,302.9433 214.5366,303.7627 217.8287,304.5798 221.1207,305.3932 224.4127,306.2017 227.7047,307.0042 230.9967,307.7999 234.2888,308.5879 237.5808,309.3676 240.8728,310.1384 244.1648,310.8997 247.4569,311.6513 250.7489,312.3926 254.0409,313.1236 257.3329,313.8439 260.625,314.5533 263.917,315.2518 267.209,315.9393 270.501,316.6157 273.793,317.281 277.0851,317.9351 280.3771,318.5782 283.6691,319.2103 286.9611,319.8314 290.2532,320.4417 293.5452,321.0412 296.8372,321.63 300.1292,322.2083 303.4213,322.7762 306.7133,323.3339 310.0053,323.8814 313.2973,324.4189 316.5893,324.9466 319.8814,325.4647 323.1734,325.9732 326.4654,326.4725 329.7574,326.9625 333.0495,327.4435 336.3415,327.9157 339.6335,328.3792 342.9255,328.8342 346.2176,329.2808 349.5096,329.7192 352.8016,330.1496 356.0936,330.5721 359.3856,330.9869 362.6777,331.3941 365.9697,331.7939 369.2617,332.1865 372.5537,332.5719 375.8458,332.9503 379.1378,333.322 382.4298,333.6869 385.7218,334.0453 389.0139,334.3973 392.3059,334.7431 395.5979,335.0826 398.8899,335.4162 402.1819,335.7439 405.474,336.0658 408.766,336.3821 412.058,336.6928 415.35,336.9981 418.6421,337.2982 421.9341,337.593 425.2261,337.8828 428.5181,338.1676 431.8102,338.4476 435.1022,338.7227 438.3942,338.9933 441.6862,339.2592 444.9782,339.5207 448.2703,339.7778 451.5623,340.0306 454.8543,340.2792 458.1463,340.5237 461.4384,340.7641 464.7304,341.0006 468.0224,341.2333 471.3144,341.4621 474.6065,341.6873 477.8985,341.9088 481.1905,342.1268 484.4825,342.3412 487.7745,342.5523 491.0666,342.76 494.3586,342.9644 497.6506,343.1656 500.9426,343.3636 504.2347,343.5586 507.5267,343.7505 510.8187,343.9395 514.1107,344.1255 517.4028,344.3087 520.6948,344.4891 523.9868,344.6667 527.2788,344.8417 530.5708,345.014 533.8629,345.1838 537.1549,345.3509 540.4469,345.5157 543.7389,345.6779 547.031,345.8378 550.323,345.9953 553.615,346.1505 556.907,346.3034 560.1991,346.4542 563.4911,346.6027 566.7831,346.7491 570.0751,346.8934 573.3671,347.0357 576.6592,347.1759 579.9512,347.3141 583.2432,347.4504 586.5352,347.5848" style="fill:none;stroke:rgb(255,69,0);stroke-width:3;stroke-linejoin:bevel" />
  <polyline points="40.0594,361.505 43.3514,361.4353 46.6435,356.1662 49.9355,325.281 53.2275,263.3099 56.5195,188.8833 59.8115,121.1058 63.1036,69.4492 66.3956,35.6154 69.6876,17.4342 72.9796,11.5 76.2717,14.4656 79.5637,23.5254 82.8557,36.5094 86.1477,51.8176 89.4398,68.3104 92.7318,85.1982 96.0238,101.9499 99.3158,118.2201 102.6078,133.795 105.8999,148.5529 109.1919,162.4348 112.4839,175.4247 115.7759,187.5345 119.068,198.794 122.36,209.2441 125.652,218.9315 128.944,227.9055 132.2361,236.2159 135.5281,243.9116 138.8201,251.0392 142.1121,257.6431 145.4041,263.7648 148.6962,269.4429 151.9882,274.7133 155.2802,279.6087 158.5722,284.1595 161.8643,288.3935 165.1563,292.3361 168.4483,296.0106 171.7403,299.4381 175.0324,302.6382 178.3244,305.6286 181.6164,308.4254 184.9084,311.0436 188.2004,313.4966 191.4925,315.797 194.7845,317.9559 198.0765,319.9838 201.3685,321.8902 204.6606,323.684 207.9526,325.3729 211.2446,326.9646 214.5366,328.4656 217.8287,329.8822 221.1207,331.2202 224.4127,332.4849 227.7047,333.6811 230.9967,334.8133 234.2888,335.8856 237.5808,336.902 240.8728,337.8659 244.1648,338.7807 247.4569,339.6494 250.7489,340.4749 254.0409,341.2597 257.3329,342.0063 260.625,342.717 263.917,343.3939 267.209,344.0389 270.501,344.6539 273.793,345.2406 277.0851,345.8006 280.3771,346.3354 283.6691,346.8464 286.9611,347.3348 290.2532,347.8019 293.5452,348.2488 296.8372,348.6767 300.1292,349.0864 303.4213,349.479 306.7133,349.8553 310.0053,350.2162 313.2973,350.5624 316.5893,350.8946 319.8814,351.2137 323.1734,351.5201 326.4654,351.8145 329.7574,352.0976 333.0495,352.3697 336.3415,352.6316 339.6335,352.8835 342.9255,353.1261 346.2176,353.3596 349.5096,353.5847 352.8016,353.8015 356.0936,354.0105 359.3856,354.2121 362.6777,354.4065 365.9697,354.5941 369.2617,354.7752 372.5537,354.95 375.8458,355.1188 379.1378,355.282 382.4298,355.4396 385.7218,355.592 389.0139,355.7393 392.3059,355.8818 395.5979,356.0196 398.8899,356.153 402.1819,356.2821 405.474,356.4071 408.766,356.5281 412.058,356.6454 415.35,356.759 418.6421,356.8691 421.9341,356.9759 425.2261,357.0794 428.5181,357.1798 431.8102,357.2771 435.1022,357.3716 438.3942,357.4633 441.6862,357.5523 444.9782,357.6387 448.2703,357.7227 451.5623,357.8042 454.8543,357.8834 458.1463,357.9603 461.4384,358.0351 464.7304,358.1078 468.0224,358.1785 471.3144,358.2473 474.6065,358.3142 477.8985,358.3792 481.1905,358.4426 484.4825,358.5042 487.7745,358.5641 491.0666,358.6225 494.3586,358.6794 497.6506,358.7348 500.9426,358.7887 504.2347,358.8413 507.5267,358.8925 510.8187,358.9424 514.1107,358.991 517.4028,359.0384 520.6948,359.0847 523.9868,359.1298 527.2788,359.1737 530.5708,359.2167 533.8629,359.2585 537.1549,359.2994 540.4469,359.3392 543.7389,359.3781 547.031,359.4161 550.323,359.4532 553.615,359.4894 556.907,359.5248 560.1991,359.5593 563.4911,359.5931 566.7831,359.6261 570.0751,359.6583 573.3671,359.6898 576.6592,359.7205 579.9512,359.7506 583.2432,359.78 586.5352,359.8088" style="fill:none;stroke:rgb(60,179,113);stroke-width:3;stroke-linejoin:bevel" />
  <polyline points="40.0594,361.505 43.3514,361.505 46.6435,361.5046 49.9355,361.4701 53.2275,361.0051 56.5195,358.8356 59.8115,353.284 63.1036,343.393 66.3956,329.3955 69.6876,312.4074 72.9796,293.8826 76.2717,275.1941 79.5637,257.4231 82.8557,241.3054 86.1477,227.2641 89.4398,215.4771 92.7318,205.9465 96.0238,198.5602 99.3158,193.1387 102.6078,189.4696 105.8999,187.3301 109.1919,186.5025 112.4839,186.7828 115.7759,187.9853 119.068,189.9444 122.36,192.5152 125.652,195.572 128.944,199.0072 132.2361,202.7293 135.5281,206.6613 138.8201,210.7386 142.1121,214.9077 145.4041,219.1241 148.6962,223.3516 151.9882,227.5606 155.2802,231.7274 158.5722,235.833 161.8643,239.8625 165.1563,243.8044 168.4483,247.65 171.7403,251.393 175.0324,255.0289 178.3244,258.5551 181.6164,261.9699 184.9084,265.273 188.2004,268.4648 191.4925,271.5465 194.7845,274.5197 198.0765,277.3866 201.3685,280.1495 204.6606,282.8112 207.9526,285.3745 211.2446,287.8425 214.5366,290.2182 217.8287,292.5047 221.1207,294.7052 224.4127,296.8228 227.7047,298.8604 230.9967,300.8213 234.2888,302.7083 237.5808,304.5243 240.8728,306.2721 244.1648,307.9545 247.4569,309.574 250.7489,311.1334 254.0409,312.6349 257.3329,314.081 260.625,315.4739 263.917,316.816 267.209,318.1091 270.501,319.3554 273.793,320.5568 277.0851,321.7152 280.3771,322.8322 283.6691,323.9097 286.9611,324.9492 290.2532,325.9524 293.5452,326.9205 296.8372,327.8552 300.1292,328.7578 303.4213,329.6295 306.7133,330.4715 310.0053,331.2852 313.2973,332.0716 316.5893,332.8318 319.8814,333.5668 323.1734,334.2776 326.4654,334.9652 329.7574,335.6305 333.0495,336.2743 336.3415,336.8975 339.6335,337.5008 342.9255,338.0851 346.2176,338.651 349.5096,339.1992 352.8016,339.7304 356.0936,340.2453 359.3856,340.7444 362.6777,341.2283 365.9697,341.6976 369.2617,342.1528 372.5537,342.5945 375.8458,343.023 379.1378,343.4389 382.4298,343.8427 385.7218,344.2348 389.0139,344.6155 392.3059,344.9853 395.5979,345.3445 398.8899,345.6936 402.1819,346.0328 405.474,346.3626 408.766,346.6832 412.058,346.9949 415.35,347.2981 418.6421,347.593 421.9341,347.8799 425.2261,348.1591 428.5181,348.4308 431.8102,348.6953 435.1022,348.9528 438.3942,349.2035 441.6862,349.4476 444.9782,349.6854 448.2703,349.9171 451.5623,350.1428 454.8543,350.3628 458.1463,350.5772 461.4384,350.7862 464.7304,350.9899 468.0224,351.1886 471.3144,351.3823 474.6065,351.5713 477.8985,351.7556 481.1905,351.9355 484.4825,352.111 487.7745,352.2822 491.0666,352.4494 494.3586,352.6126 497.6506,352.7719 500.9426,352.9275 504.2347,353.0794 507.5267,353.2278 510.8187,353.3728 514.1107,353.5144 517.4028,353.6528 520.6948,353.788 523.9868,353.9202 527.2788,354.0494 530.5708,354.1757 533.8629,354.2991 537.1549,354.4199 540.4469,354.5379 543.7389,354.6534 547.031,354.7664 550.323,354.8769 553.615,354.985 556.907,355.0908 560.1991,355.1944 563.4911,355.2957 566.7831,355.3949 570.0751,355.492 573.3671,355.587 576.6592,355.6801 579.9512,355.7713 583.2432,355.8606 586.5352,355.948" style="fill:none;stroke:rgb(30,144,255);stroke-width:3;stroke-linejoin:bevel" />
  <polygon points="34.54,8 592,8 592,365.04 34.54,365.04" style="fill:none;stroke:black;stroke-width:1" />
  <polygon points="399.7533,16 584,16 584,99.84 399.7533,99.84" style="fill:none;stroke:none;" />
  <text dominant-baseline="hanging" text-anchor="start" transform="translate(427.7533,24)" font-family="Segoe UI" font-size="12" font-weight="400" fill="black">InverseGamma(α = 1, β = 1)</text>
  <polyline points="407.7533,31.98 423.7533,31.98" style="fill:none;stroke:black;stroke-width:3" />
  <text dominant-baseline="hanging" text-anchor="start" transform="translate(427.7533,40.96)" font-family="Segoe UI" font-size="12" font-weight="400" fill="black">InverseGamma(α = 1, β = 2)</text>
  <polyline points="407.7533,48.94 423.7533,48.94" style="fill:none;stroke:rgb(255,69,0);stroke-width:3" />
  <text dominant-baseline="hanging" text-anchor="start" transform="translate(427.7533,57.92)" font-family="Segoe UI" font-size="12" font-weight="400" fill="black">InverseGamma(α = 2, β = 1)</text>
  <polyline points="407.7533,65.9 423.7533,65.9" style="fill:none;stroke:rgb(60,179,113);stroke-width:3" />
  <text dominant-baseline="hanging" text-anchor="start" transform="translate(427.7533,74.88)" font-family="Segoe UI" font-size="12" font-weight="400" fill="black">InverseGamma(α = 2, β = 2)</text>
  <polyline points="407.7533,82.86 423.7533,82.86" style="fill:none;stroke:rgb(30,144,255);stroke-width:3" />
</svg>