<?xml version="1.0" encoding="utf-8" standalone="no"?>
<!DOCTYPE svg PUBLIC "-//W3C//DTD SVG 1.1//EN" "http://www.w3.org/Graphics/SVG/1.1/DTD/svg11.dtd">
<svg width="600" height="400" version="1.1" xmlns:xlink="http://www.w3.org/1999/xlink" xmlns="http://www.w3.org/2000/svg">
  <polyline points="34.54,350.5687 30.54,350.5687" style="fill:none;stroke:black;stroke-width:1" />
  <polyline points="34.54,332.3415 30.54,332.3415" style="fill:none;stroke:black;stroke-width:1" />
  <polyline points="34.54,314.1144 30.54,314.1144" style="fill:none;stroke:black;stroke-width:1" />
  <polyline points="34.54,277.6602 30.54,277.6602" style="fill:none;stroke:black;stroke-width:1" />
  <polyline points="34.54,259.433 30.54,259.433" style="fill:none;stroke:black;stroke-width:1" />
  <polyline points="34.54,241.2059 30.54,241.2059" style="fill:none;stroke:black;stroke-width:1" />
  <polyline points="34.54,204.7517 30.54,204.7517" style="fill:none;stroke:black;stroke-width:1" />
  <polyline points="34.54,186.5245 30.54,186.5245" style="fill:none;stroke:black;stroke-width:1" />
  <polyline points="34.54,168.2974 30.54,168.2974" style="fill:none;stroke:black;stroke-width:1" />
  <polyline points="34.54,131.8431 30.54,131.8431" style="fill:none;stroke:black;stroke-width:1" />
  <polyline points="34.54,113.616 30.54,113.616" style="fill:none;stroke:black;stroke-width:1" />
  <polyline points="34.54,95.3889 30.54,95.3889" style="fill:none;stroke:black;stroke-width:1" />
  <polyline points="34.54,58.9346 30.54,58.9346" style="fill:none;stroke:black;stroke-width:1" />
  <polyline points="34.54,40.7075 30.54,40.7075" style="fill:none;stroke:black;stroke-width:1" />
  <polyline points="34.54,22.4804 30.54,22.4804" style="fill:none;stroke:black;stroke-width:1" />
  <polyline points="60.5022,365.04 60.5022,369.04" style="fill:none;stroke:black;stroke-width:1" />
  <polyline points="73.7985,365.04 73.7985,369.04" style="fill:none;stroke:black;stroke-width:1" />
  <polyline points="87.0947,365.04 87.0947,369.04" style="fill:none;stroke:black;stroke-width:1" />
  <polyline points="100.391,365.04 100.391,369.04" style="fill:none;stroke:black;stroke-width:1" />
  <polyline points="126.9835,365.04 126.9835,369.04" style="fill:none;stroke:black;stroke-width:1" />
  <polyline points="140.2797,365.04 140.2797,369.04" style="fill:none;stroke:black;stroke-width:1" />
  <polyline points="153.576,365.04 153.576,369.04" style="fill:none;stroke:black;stroke-width:1" />
  <polyline points="166.8722,365.04 166.8722,369.04" style="fill:none;stroke:black;stroke-width:1" />
  <polyline points="193.4647,365.04 193.4647,369.04" style="fill:none;stroke:black;stroke-width:1" />
  <polyline points="206.761,365.04 206.761,369.04" style="fill:none;stroke:black;stroke-width:1" />
  <polyline points="220.0572,365.04 220.0572,369.04" style="fill:none;stroke:black;stroke-width:1" />
  <polyline points="233.3535,365.04 233.3535,369.04" style="fill:none;stroke:black;stroke-width:1" />
  <polyline points="259.946,365.04 259.946,369.04" style="fill:none;stroke:black;stroke-width:1" />
  <polyline points="273.2422,365.04 273.2422,369.04" style="fill:none;stroke:black;stroke-width:1" />
  <polyline points="286.5385,365.04 286.5385,369.04" style="fill:none;stroke:black;stroke-width:1" />
  <polyline points="299.8347,365.04 299.8347,369.04" style="fill:none;stroke:black;stroke-width:1" />
  <polyline points="326.4272,365.04 326.4272,369.04" style="fill:none;stroke:black;stroke-width:1" />
  <polyline points="339.7235,365.04 339.7235,369.04" style="fill:none;stroke:black;stroke-width:1" />
  <polyline points="353.0197,365.04 353.0197,369.04" style="fill:none;stroke:black;stroke-width:1" />
  <polyline points="366.316,365.04 366.316,369.04" style="fill:none;stroke:black;stroke-width:1" />
  <polyline points="392.9085,365.04 392.9085,369.04" style="fill:none;stroke:black;stroke-width:1" />
  <polyline points="406.2047,365.04 406.2047,369.04" style="fill:none;stroke:black;stroke-width:1" />
  <polyline points="419.501,365.04 419.501,369.04" style="fill:none;stroke:black;stroke-width:1" />
  <polyline points="432.7972,365.04 432.7972,369.04" style="fill:none;stroke:black;stroke-width:1" />
  <polyline points="459.3897,365.04 459.3897,369.04" style="fill:none;stroke:black;stroke-width:1" />
  <polyline points="472.686,365.04 472.686,369.04" style="fill:none;stroke:black;stroke-width:1" />
  <polyline points="485.9822,365.04 485.9822,369.04" style="fill:none;stroke:black;stroke-width:1" />
  <polyline points="499.2785,365.04 499.2785,369.04" style="fill:none;stroke:black;stroke-width:1" />
  <polyline points="525.871,365.04 525.871,369.04" style="fill:none;stroke:black;stroke-width:1" />
  <polyline points="539.1672,365.04 539.1672,369.04" style="fill:none;stroke:black;stroke-width:1" />
  <polyline points="552.4635,365.04 552.4635,369.04" style="fill:none;stroke:black;stroke-width:1" />
  <polyline points="565.7597,365.04 565.7597,369.04" style="fill:none;stroke:black;stroke-width:1" />
  <text dominant-baseline="middle" text-anchor="end" transform="translate(23.54,295.8873)" font-family="Segoe UI" font-size="12" font-weight="400" fill="black">0.2</text>
  <text dominant-baseline="middle" text-anchor="end" transform="translate(23.54,222.9788)" font-family="Segoe UI" font-size="12" font-weight="400" fill="black">0.4</text>
  <text dominant-baseline="middle" text-anchor="end" transform="translate(23.54,150.0703)" font-family="Segoe UI" font-size="12" font-weight="400" fill="black">0.6</text>
  <text dominant-baseline="middle" text-anchor="end" transform="translate(23.54,77.1618)" font-family="Segoe UI" font-size="12" font-weight="400" fill="black">0.8</text>
  <polyline points="34.54,295.8873 27.54,295.8873" style="fill:none;stroke:black;stroke-width:1" />
  <polyline points="34.54,222.9788 27.54,222.9788" style="fill:none;stroke:black;stroke-width:1" />
  <polyline points="34.54,150.0703 27.54,150.0703" style="fill:none;stroke:black;stroke-width:1" />
  <polyline points="34.54,77.1618 27.54,77.1618" style="fill:none;stroke:black;stroke-width:1" />
  <text dominant-baseline="hanging" text-anchor="middle" transform="translate(47.206,376.04)" font-family="Segoe UI" font-size="12" font-weight="400" fill="black">-2</text>
  <text dominant-baseline="hanging" text-anchor="middle" transform="translate(113.6872,376.04)" font-family="Segoe UI" font-size="12" font-weight="400" fill="black">-1.5</text>
  <text dominant-baseline="hanging" text-anchor="middle" transform="translate(180.1685,376.04)" font-family="Segoe UI" font-size="12" font-weight="400" fill="black">-1</text>
  <text dominant-baseline="hanging" text-anchor="middle" transform="translate(246.6497,376.04)" font-family="Segoe UI" font-size="12" font-weight="400" fill="black">-0.5</text>
  <text dominant-baseline="hanging" text-anchor="middle" transform="translate(313.131,376.04)" font-family="Segoe UI" font-size="12" font-weight="400" fill="black">0</text>
  <text dominant-baseline="hanging" text-anchor="middle" transform="translate(379.6122,376.04)" font-family="Segoe UI" font-size="12" font-weight="400" fill="black">0.5</text>
  <text dominant-baseline="hanging" text-anchor="middle" transform="translate(446.0935,376.04)" font-family="Segoe UI" font-size="12" font-weight="400" fill="black">1</text>
  <text dominant-baseline="hanging" text-anchor="middle" transform="translate(512.5747,376.04)" font-family="Segoe UI" font-size="12" font-weight="400" fill="black">1.5</text>
  <text dominant-baseline="hanging" text-anchor="middle" transform="translate(579.056,376.04)" font-family="Segoe UI" font-size="12" font-weight="400" fill="black">2</text>
  <polyline points="47.206,365.04 47.206,372.04" style="fill:none;stroke:black;stroke-width:1" />
  <polyline points="113.6872,365.04 113.6872,372.04" style="fill:none;stroke:black;stroke-width:1" />
  <polyline points="180.1685,365.04 180.1685,372.04" style="fill:none;stroke:black;stroke-width:1" />
  <polyline points="246.6497,365.04 246.6497,372.04" style="fill:none;stroke:black;stroke-width:1" />
  <polyline points="313.131,365.04 313.131,372.04" style="fill:none;stroke:black;stroke-width:1" />
  <polyline points="379.6122,365.04 379.6122,372.04" style="fill:none;stroke:black;stroke-width:1" />
  <polyline points="446.0935,365.04 446.0935,372.04" style="fill:none;stroke:black;stroke-width:1" />
  <polyline points="512.5747,365.04 512.5747,372.04" style="fill:none;stroke:black;stroke-width:1" />
  <polyline points="579.056,365.04 579.056,372.04" style="fill:none;stroke:black;stroke-width:1" />
  <polyline points="40.0594,361.505 44.0483,360.9589 48.0372,360.3786 52.026,359.7626 56.0149,359.1092 60.0038,358.4167 63.9927,357.6836 67.9815,356.9081 71.9704,356.0885 75.9593,355.2231 79.9482,354.3101 83.937,353.3477 87.9259,352.3343 91.9148,351.2681 95.9037,350.1473 99.8925,348.9703 103.8814,347.7352 107.8703,346.4404 111.8592,345.0842 115.848,343.665 119.8369,342.1813 123.8258,340.6314 127.8146,339.0139 131.8035,337.3273 135.7924,335.5703 139.7813,333.7415 143.7701,331.8399 147.759,329.8641 151.7479,327.8133 155.7368,325.6864 159.7256,323.4826 163.7145,321.2012 167.7034,318.8416 171.6923,316.4033 175.6811,313.8859 179.67,311.2893 183.6589,308.6132 187.6478,305.8579 191.6366,303.0234 195.6255,300.1102 199.6144,297.1187 203.6033,294.0496 207.5921,290.9037 211.581,287.682 215.5699,284.3856 219.5588,281.0159 223.5476,277.5743 227.5365,274.0624 231.5254,270.4821 235.5143,266.8352 239.5031,263.1239 243.492,259.3504 247.4809,255.5172 251.4698,251.6268 255.4586,247.6819 259.4475,243.6853 263.4364,239.64 267.4253,235.5491 271.4141,231.4158 275.403,227.2434 279.3919,223.0354 283.3808,218.7952 287.3696,214.5264 291.3585,210.2328 295.3474,205.918 299.3363,201.5859 303.3251,197.2402 307.314,192.885 311.3029,188.524 315.2918,184.1612 319.2806,179.8006 323.2695,175.446 327.2584,171.1013 331.2473,166.7705 335.2361,162.4573 339.225,158.1656 343.2139,153.8991 347.2028,149.6614 351.1916,145.4562 355.1805,141.287 359.1694,137.1571 363.1583,133.0699 367.1471,129.0285 371.136,125.0361 375.1249,121.0957 379.1138,117.2099 383.1026,113.3816 387.0915,109.6132 391.0804,105.9072 395.0693,102.2658 399.0581,98.6911 403.047,95.185 407.0359,91.7493 411.0248,88.3856 415.0136,85.0955 419.0025,81.8801 422.9914,78.7405 426.9803,75.6779 430.9691,72.6929 434.958,69.7862 438.9469,66.9583 442.9358,64.2096 446.9246,61.5402 450.9135,58.9501 454.9024,56.4394 458.8913,54.0076 462.8801,51.6546 466.869,49.3797 470.8579,47.1824 474.8467,45.0618 478.8356,43.0173 482.8245,41.0478 486.8134,39.1522 490.8022,37.3295 494.7911,35.5784 498.78,33.8976 502.7689,32.2858 506.7577,30.7415 510.7466,29.2632 514.7355,27.8493 518.7244,26.4984 522.7132,25.2086 526.7021,23.9784 530.691,22.8061 534.6799,21.6899 538.6687,20.6282 542.6576,19.6191 546.6465,18.661 550.6354,17.752 554.6242,16.8905 558.6131,16.0746 562.602,15.3027 566.5909,14.573 570.5797,13.8839 574.5686,13.2337 578.5575,12.6207 582.5464,12.0434 586.5352,11.5" style="fill:none;stroke:rgb(255,0,255);stroke-width:5;stroke-linejoin:bevel" />
  <polyline points="40.0594,351.1453 44.0483,350.0321 48.0372,348.8666 52.026,347.6477 56.0149,346.3745 60.0038,345.046 63.9927,343.6614 67.9815,342.22 71.9704,340.7213 75.9593,339.1647 79.9482,337.5499 83.937,335.8768 87.9259,334.1453 91.9148,332.3555 95.9037,330.5078 99.8925,328.6025 103.8814,326.6404 107.8703,324.6223 111.8592,322.5493 115.848,320.4224 119.8369,318.2433 123.8258,316.0136 127.8146,313.7351 131.8035,311.4099 135.7924,309.0403 139.7813,306.6288 143.7701,304.1782 147.759,301.6914 151.7479,299.1716 155.7368,296.6222 159.7256,294.0468 163.7145,291.449 167.7034,288.833 171.6923,286.2029 175.6811,283.563 179.67,280.9179 183.6589,278.2721 187.6478,275.6306 191.6366,272.9983 195.6255,270.3803 199.6144,267.7816 203.6033,265.2076 207.5921,262.6635 211.581,260.1548 215.5699,257.6869 219.5588,255.2651 223.5476,252.8949 227.5365,250.5816 231.5254,248.3306 235.5143,246.1472 239.5031,244.0366 243.492,242.0038 247.4809,240.0538 251.4698,238.1914 255.4586,236.4212 259.4475,234.7478 263.4364,233.1753 267.4253,231.7078 271.4141,230.3491 275.403,229.1027 279.3919,227.9719 283.3808,226.9596 287.3696,226.0686 291.3585,225.3011 295.3474,224.6594 299.3363,224.145 303.3251,223.7593 307.314,223.5035 311.3029,223.3781 315.2918,223.3836 319.2806,223.5198 323.2695,223.7865 327.2584,224.183 331.2473,224.708 335.2361,225.3604 339.225,226.1382 343.2139,227.0394 347.2028,228.0617 351.1916,229.2023 355.1805,230.4582 359.1694,231.8261 363.1583,233.3025 367.1471,234.8835 371.136,236.5652 375.1249,238.3432 379.1138,240.2131 383.1026,242.1702 387.0915,244.2097 391.0804,246.3266 395.0693,248.5158 399.0581,250.7722 403.047,253.0904 407.0359,255.4652 411.0248,257.891 415.0136,260.3626 419.0025,262.8744 422.9914,265.4212 426.9803,267.9975 430.9691,270.598 434.958,273.2174 438.9469,275.8507 442.9358,278.4927 446.9246,281.1386 450.9135,283.7834 454.9024,286.4227 458.8913,289.0518 462.8801,291.6664 466.869,294.2625 470.8579,296.8359 474.8467,299.383 478.8356,301.9002 482.8245,304.384 486.8134,306.8315 490.8022,309.2396 494.7911,311.6055 498.78,313.9269 502.7689,316.2015 506.7577,318.427 510.7466,320.6018 514.7355,322.7242 518.7244,324.7928 522.7132,326.8062 526.7021,328.7636 530.691,330.6641 534.6799,332.507 538.6687,334.292 542.6576,336.0186 546.6465,337.6868 550.6354,339.2967 554.6242,340.8485 558.6131,342.3424 562.602,343.779 566.5909,345.1589 570.5797,346.4828 574.5686,347.7514 578.5575,348.9658 582.5464,350.1269 586.5352,351.2359" style="fill:none;stroke:black;stroke-width:1;stroke-linejoin:bevel" />
  <polygon points="34.54,8 592,8 592,365.04 34.54,365.04" style="fill:none;stroke:black;stroke-width:1" />
  <polygon points="42.54,16 212.5167,16 212.5167,69.92 42.54,69.92" style="fill:none;stroke:none;" />
  <text dominant-baseline="hanging" text-anchor="start" transform="translate(70.54,24)" font-family="Segoe UI" font-size="12" font-weight="400" fill="black">CDF Normal(μ = 0, σ = 1)</text>
  <polyline points="50.54,31.98 66.54,31.98" style="fill:none;stroke:rgb(255,0,255);stroke-width:5" />
  <text dominant-baseline="hanging" text-anchor="start" transform="translate(70.54,42.96)" font-family="Segoe UI" font-size="12" font-weight="400" fill="black">Normal(μ = 0, σ = 1)</text>
  <polyline points="50.54,50.94 66.54,50.94" style="fill:none;stroke:black;stroke-width:1" />
</svg>