<?xml version="1.0" encoding="utf-8" standalone="no"?>
<!DOCTYPE svg PUBLIC "-//W3C//DTD SVG 1.1//EN" "http://www.w3.org/Graphics/SVG/1.1/DTD/svg11.dtd">
<svg width="600" height="400" version="1.1" xmlns:xlink="http://www.w3.org/1999/xlink" xmlns="http://www.w3.org/2000/svg">
  <polyline points="34.54,343.9581 30.54,343.9581" style="fill:none;stroke:black;stroke-width:1" />
  <polyline points="34.54,326.4112 30.54,326.4112" style="fill:none;stroke:black;stroke-width:1" />
  <polyline points="34.54,308.8644 30.54,308.8644" style="fill:none;stroke:black;stroke-width:1" />
  <polyline points="34.54,291.3175 30.54,291.3175" style="fill:none;stroke:black;stroke-width:1" />
  <polyline points="34.54,256.2238 30.54,256.2238" style="fill:none;stroke:black;stroke-width:1" />
  <polyline points="34.54,238.677 30.54,238.677" style="fill:none;stroke:black;stroke-width:1" />
  <polyline points="34.54,221.1301 30.54,221.1301" style="fill:none;stroke:black;stroke-width:1" />
  <polyline points="34.54,203.5833 30.54,203.5833" style="fill:none;stroke:black;stroke-width:1" />
  <polyline points="34.54,168.4896 30.54,168.4896" style="fill:none;stroke:black;stroke-width:1" />
  <polyline points="34.54,150.9427 30.54,150.9427" style="fill:none;stroke:black;stroke-width:1" />
  <polyline points="34.54,133.3959 30.54,133.3959" style="fill:none;stroke:black;stroke-width:1" />
  <polyline points="34.54,115.849 30.54,115.849" style="fill:none;stroke:black;stroke-width:1" />
  <polyline points="34.54,98.3022 30.54,98.3022" style="fill:none;stroke:black;stroke-width:1" />
  <polyline points="34.54,80.7553 30.54,80.7553" style="fill:none;stroke:black;stroke-width:1" />
  <polyline points="34.54,63.2085 30.54,63.2085" style="fill:none;stroke:black;stroke-width:1" />
  <polyline points="34.54,45.6616 30.54,45.6616" style="fill:none;stroke:black;stroke-width:1" />
  <polyline points="34.54,28.1148 30.54,28.1148" style="fill:none;stroke:black;stroke-width:1" />
  <polyline points="60.5022,365.04 60.5022,369.04" style="fill:none;stroke:black;stroke-width:1" />
  <polyline points="73.7985,365.04 73.7985,369.04" style="fill:none;stroke:black;stroke-width:1" />
  <polyline points="87.0947,365.04 87.0947,369.04" style="fill:none;stroke:black;stroke-width:1" />
  <polyline points="100.391,365.04 100.391,369.04" style="fill:none;stroke:black;stroke-width:1" />
  <polyline points="126.9835,365.04 126.9835,369.04" style="fill:none;stroke:black;stroke-width:1" />
  <polyline points="140.2797,365.04 140.2797,369.04" style="fill:none;stroke:black;stroke-width:1" />
  <polyline points="153.576,365.04 153.576,369.04" style="fill:none;stroke:black;stroke-width:1" />
  <polyline points="166.8722,365.04 166.8722,369.04" style="fill:none;stroke:black;stroke-width:1" />
  <polyline points="193.4647,365.04 193.4647,369.04" style="fill:none;stroke:black;stroke-width:1" />
  <polyline points="206.761,365.04 206.761,369.04" style="fill:none;stroke:black;stroke-width:1" />
  <polyline points="220.0572,365.04 220.0572,369.04" style="fill:none;stroke:black;stroke-width:1" />
  <polyline points="233.3535,365.04 233.3535,369.04" style="fill:none;stroke:black;stroke-width:1" />
  <polyline points="259.946,365.04 259.946,369.04" style="fill:none;stroke:black;stroke-width:1" />
  <polyline points="273.2422,365.04 273.2422,369.04" style="fill:none;stroke:black;stroke-width:1" />
  <polyline points="286.5385,365.04 286.5385,369.04" style="fill:none;stroke:black;stroke-width:1" />
  <polyline points="299.8347,365.04 299.8347,369.04" style="fill:none;stroke:black;stroke-width:1" />
  <polyline points="326.4272,365.04 326.4272,369.04" style="fill:none;stroke:black;stroke-width:1" />
  <polyline points="339.7235,365.04 339.7235,369.04" style="fill:none;stroke:black;stroke-width:1" />
  <polyline points="353.0197,365.04 353.0197,369.04" style="fill:none;stroke:black;stroke-width:1" />
  <polyline points="366.316,365.04 366.316,369.04" style="fill:none;stroke:black;stroke-width:1" />
  <polyline points="392.9085,365.04 392.9085,369.04" style="fill:none;stroke:black;stroke-width:1" />
  <polyline points="406.2047,365.04 406.2047,369.04" style="fill:none;stroke:black;stroke-width:1" />
  <polyline points="419.501,365.04 419.501,369.04" style="fill:none;stroke:black;stroke-width:1" />
  <polyline points="432.7972,365.04 432.7972,369.04" style="fill:none;stroke:black;stroke-width:1" />
  <polyline points="459.3897,365.04 459.3897,369.04" style="fill:none;stroke:black;stroke-width:1" />
  <polyline points="472.686,365.04 472.686,369.04" style="fill:none;stroke:black;stroke-width:1" />
  <polyline points="485.9822,365.04 485.9822,369.04" style="fill:none;stroke:black;stroke-width:1" />
  <polyline points="499.2785,365.04 499.2785,369.04" style="fill:none;stroke:black;stroke-width:1" />
  <polyline points="525.871,365.04 525.871,369.04" style="fill:none;stroke:black;stroke-width:1" />
  <polyline points="539.1672,365.04 539.1672,369.04" style="fill:none;stroke:black;stroke-width:1" />
  <polyline points="552.4635,365.04 552.4635,369.04" style="fill:none;stroke:black;stroke-width:1" />
  <polyline points="565.7597,365.04 565.7597,369.04" style="fill:none;stroke:black;stroke-width:1" />
  <text dominant-baseline="middle" text-anchor="end" transform="translate(23.54,361.505)" font-family="Segoe UI" font-size="12" font-weight="400" fill="black">0</text>
  <text dominant-baseline="middle" text-anchor="end" transform="translate(23.54,273.7707)" font-family="Segoe UI" font-size="12" font-weight="400" fill="black">0.1</text>
  <text dominant-baseline="middle" text-anchor="end" transform="translate(23.54,186.0364)" font-family="Segoe UI" font-size="12" font-weight="400" fill="black">0.2</text>
  <text dominant-baseline="middle" text-anchor="end" transform="translate(23.54,98.3022)" font-family="Segoe UI" font-size="12" font-weight="400" fill="black">0.3</text>
  <text dominant-baseline="middle" text-anchor="end" transform="translate(23.54,10.5679)" font-family="Segoe UI" font-size="12" font-weight="400" fill="black">0.4</text>
  <polyline points="34.54,361.505 27.54,361.505" style="fill:none;stroke:black;stroke-width:1" />
  <polyline points="34.54,273.7707 27.54,273.7707" style="fill:none;stroke:black;stroke-width:1" />
  <polyline points="34.54,186.0364 27.54,186.0364" style="fill:none;stroke:black;stroke-width:1" />
  <polyline points="34.54,98.3022 27.54,98.3022" style="fill:none;stroke:black;stroke-width:1" />
  <polyline points="34.54,10.5679 27.54,10.5679" style="fill:none;stroke:black;stroke-width:1" />
  <text dominant-baseline="hanging" text-anchor="middle" transform="translate(47.206,376.04)" font-family="Segoe UI" font-size="12" font-weight="400" fill="black">-4</text>
  <text dominant-baseline="hanging" text-anchor="middle" transform="translate(113.6872,376.04)" font-family="Segoe UI" font-size="12" font-weight="400" fill="black">-3</text>
  <text dominant-baseline="hanging" text-anchor="middle" transform="translate(180.1685,376.04)" font-family="Segoe UI" font-size="12" font-weight="400" fill="black">-2</text>
  <text dominant-baseline="hanging" text-anchor="middle" transform="translate(246.6497,376.04)" font-family="Segoe UI" font-size="12" font-weight="400" fill="black">-1</text>
  <text dominant-baseline="hanging" text-anchor="middle" transform="translate(313.131,376.04)" font-family="Segoe UI" font-size="12" font-weight="400" fill="black">0</text>
  <text dominant-baseline="hanging" text-anchor="middle" transform="translate(379.6122,376.04)" font-family="Segoe UI" font-size="12" font-weight="400" fill="black">1</text>
  <text dominant-baseline="hanging" text-anchor="middle" transform="translate(446.0935,376.04)" font-family="Segoe UI" font-size="12" font-weight="400" fill="black">2</text>
  <text dominant-baseline="hanging" text-anchor="middle" transform="translate(512.5747,376.04)" font-family="Segoe UI" font-size="12" font-weight="400" fill="black">3</text>
  <text dominant-baseline="hanging" text-anchor="middle" transform="translate(579.056,376.04)" font-family="Segoe UI" font-size="12" font-weight="400" fill="black">4</text>
  <polyline points="47.206,365.04 47.206,372.04" style="fill:none;stroke:black;stroke-width:1" />
  <polyline points="113.6872,365.04 113.6872,372.04" style="fill:none;stroke:black;stroke-width:1" />
  <polyline points="180.1685,365.04 180.1685,372.04" style="fill:none;stroke:black;stroke-width:1" />
  <polyline points="246.6497,365.04 246.6497,372.04" style="fill:none;stroke:black;stroke-width:1" />
  <polyline points="313.131,365.04 313.131,372.04" style="fill:none;stroke:black;stroke-width:1" />
  <polyline points="379.6122,365.04 379.6122,372.04" style="fill:none;stroke:black;stroke-width:1" />
  <polyline points="446.0935,365.04 446.0935,372.04" style="fill:none;stroke:black;stroke-width:1" />
  <polyline points="512.5747,365.04 512.5747,372.04" style="fill:none;stroke:black;stroke-width:1" />
  <polyline points="579.056,365.04 579.056,372.04" style="fill:none;stroke:black;stroke-width:1" />
  <polyline points="40.0594,361.429 41.389,361.4225 42.7187,361.4155 44.0483,361.408 45.3779,361.3998 46.7075,361.391 48.0372,361.3815 49.3668,361.3713 50.6964,361.3603 52.026,361.3484 53.3557,361.3357 54.6853,361.322 56.0149,361.3072 57.3445,361.2914 58.6742,361.2743 60.0038,361.256 61.3334,361.2364 62.663,361.2153 63.9927,361.1927 65.3223,361.1685 66.6519,361.1425 67.9815,361.1147 69.3112,361.0849 70.6408,361.053 71.9704,361.0189 73.3,360.9824 74.6297,360.9434 75.9593,360.9018 77.2889,360.8573 78.6185,360.8098 79.9482,360.7592 81.2778,360.7051 82.6074,360.6475 83.937,360.5861 85.2667,360.5207 86.5963,360.4511 87.9259,360.377 89.2555,360.2982 90.5852,360.2144 91.9148,360.1253 93.2444,360.0306 94.574,359.9301 95.9037,359.8234 97.2333,359.7103 98.5629,359.5902 99.8925,359.4629 101.2222,359.3281 102.5518,359.1853 103.8814,359.034 105.211,358.874 106.5407,358.7048 107.8703,358.5258 109.1999,358.3367 110.5295,358.1369 111.8592,357.9259 113.1888,357.7033 114.5184,357.4684 115.848,357.2207 117.1777,356.9597 118.5073,356.6846 119.8369,356.395 121.1665,356.0901 122.4962,355.7694 123.8258,355.432 125.1554,355.0774 126.485,354.7049 127.8146,354.3135 129.1443,353.9028 130.4739,353.4717 131.8035,353.0196 133.1331,352.5457 134.4628,352.0491 135.7924,351.5289 137.122,350.9843 138.4516,350.4145 139.7813,349.8184 141.1109,349.1953 142.4405,348.5441 143.7701,347.8639 145.0998,347.1537 146.4294,346.4126 147.759,345.6396 149.0886,344.8337 150.4183,343.9938 151.7479,343.119 153.0775,342.2082 154.4071,341.2604 155.7368,340.2745 157.0664,339.2495 158.396,338.1844 159.7256,337.078 161.0553,335.9294 162.3849,334.7375 163.7145,333.5013 165.0441,332.2197 166.3738,330.8916 167.7034,329.5162 169.033,328.0923 170.3626,326.619 171.6923,325.0952 173.0219,323.5202 174.3515,321.8928 175.6811,320.2123 177.0108,318.4776 178.3404,316.6881 179.67,314.8427 180.9996,312.9408 182.3293,310.9816 183.6589,308.9644 184.9885,306.8885 186.3181,304.7533 187.6478,302.5582 188.9774,300.3026 190.307,297.9862 191.6366,295.6085 192.9663,293.1691 194.2959,290.6677 195.6255,288.1042 196.9551,285.4782 198.2848,282.7899 199.6144,280.0391 200.944,277.2258 202.2736,274.3503 203.6033,271.4127 204.9329,268.4133 206.2625,265.3526 207.5921,262.2309 208.9218,259.0489 210.2514,255.8071 211.581,252.5064 212.9106,249.1476 214.2403,245.7316 215.5699,242.2595 216.8995,238.7323 218.2291,235.1514 219.5588,231.518 220.8884,227.8336 222.218,224.0998 223.5476,220.3182 224.8773,216.4905 226.2069,212.6185 227.5365,208.7044 228.8661,204.75 230.1958,200.7577 231.5254,196.7295 232.855,192.668 234.1846,188.5756 235.5143,184.4547 236.8439,180.3082 238.1735,176.1388 239.5031,171.9492 240.8328,167.7425 242.1624,163.5216 243.492,159.2896 244.8216,155.0498 246.1513,150.8054 247.4809,146.5598 248.8105,142.3163 250.1401,138.0784 251.4698,133.8496 252.7994,129.6336 254.129,125.4339 255.4586,121.2543 256.7883,117.0985 258.1179,112.9702 259.4475,108.8733 260.7771,104.8115 262.1068,100.7887 263.4364,96.8088 264.766,92.8756 266.0956,88.993 267.4253,85.1649 268.7549,81.395 270.0845,77.6872 271.4141,74.0454 272.7438,70.4733 274.0734,66.9746 275.403,63.5531 276.7326,60.2123 278.0623,56.956 279.3919,53.7875 280.7215,50.7105 282.0511,47.7282 283.3808,44.844 284.7104,42.061 286.04,39.3825 287.3696,36.8115 288.6993,34.3508 290.0289,32.0032 291.3585,29.7716 292.6881,27.6584 294.0178,25.6661 295.3474,23.797 296.677,22.0534 298.0066,20.4371 299.3363,18.9503 300.6659,17.5945 301.9955,16.3715 303.3251,15.2826 304.6548,14.3292 305.9844,13.5124 307.314,12.8332 308.6436,12.2923 309.9733,11.8905 311.3029,11.6282 312.6325,11.5058 313.9621,11.5233 315.2918,11.6808 316.6214,11.978 317.951,12.4146 319.2806,12.9902 320.6103,13.7039 321.9399,14.555 323.2695,15.5424 324.5991,16.665 325.9288,17.9214 327.2584,19.3101 328.588,20.8295 329.9176,22.4778 331.2473,24.253 332.5769,26.1531 333.9065,28.1759 335.2361,30.319 336.5658,32.5799 337.8954,34.956 339.225,37.4445 340.5546,40.0428 341.8843,42.7477 343.2139,45.5563 344.5435,48.4653 345.8731,51.4716 347.2028,54.5719 348.5324,57.7626 349.862,61.0405 351.1916,64.4017 352.5213,67.8429 353.8509,71.3603 355.1805,74.9503 356.5101,78.6089 357.8398,82.3326 359.1694,86.1174 360.499,89.9596 361.8286,93.8552 363.1583,97.8004 364.4879,101.7914 365.8175,105.8243 367.1471,109.8953 368.4768,114.0004 369.8064,118.1359 371.136,122.298 372.4656,126.483 373.7953,130.6871 375.1249,134.9067 376.4545,139.138 377.7841,143.3777 379.1138,147.6221 380.4434,151.8677 381.773,156.1113 383.1026,160.3494 384.4323,164.5789 385.7619,168.7965 387.0915,172.9992 388.4211,177.184 389.7508,181.348 391.0804,185.4884 392.41,189.6023 393.7396,193.6873 395.0693,197.7407 396.3989,201.7601 397.7285,205.7431 399.0581,209.6876 400.3878,213.5914 401.7174,217.4524 403.047,221.2688 404.3766,225.0386 405.7063,228.7602 407.0359,232.432 408.3655,236.0524 409.6951,239.62 411.0248,243.1335 412.3544,246.5917 413.684,249.9935 415.0136,253.3378 416.3433,256.6238 417.6729,259.8507 419.0025,263.0177 420.3321,266.1242 421.6618,269.1696 422.9914,272.1535 424.321,275.0756 425.6506,277.9356 426.9803,280.7332 428.3099,283.4684 429.6395,286.1412 430.9691,288.7515 432.2988,291.2994 433.6284,293.7853 434.958,296.2092 436.2876,298.5716 437.6173,300.8727 438.9469,303.1131 440.2765,305.2932 441.6061,307.4135 442.9358,309.4746 444.2654,311.4773 445.595,313.4221 446.9246,315.3097 448.2543,317.141 449.5839,318.9168 450.9135,320.6378 452.2431,322.305 453.5728,323.9192 454.9024,325.4813 456.232,326.9923 457.5616,328.4531 458.8913,329.8648 460.2209,331.2283 461.5505,332.5446 462.8801,333.8148 464.2098,335.0399 465.5394,336.2208 466.869,337.3588 468.1986,338.4547 469.5283,339.5097 470.8579,340.5248 472.1875,341.5011 473.5171,342.4395 474.8467,343.3412 476.1764,344.2072 477.506,345.0385 478.8356,345.8361 480.1652,346.601 481.4949,347.3343 482.8245,348.0368 484.1541,348.7097 485.4837,349.3538 486.8134,349.9701 488.143,350.5595 489.4726,351.1229 490.8022,351.6613 492.1319,352.1755 493.4615,352.6664 494.7911,353.1348 496.1207,353.5815 497.4504,354.0074 498.78,354.4133 500.1096,354.7998 501.4392,355.1678 502.7689,355.518 504.0985,355.8512 505.4281,356.1679 506.7577,356.4689 508.0874,356.7548 509.417,357.0263 510.7466,357.2839 512.0762,357.5284 513.4059,357.7601 514.7355,357.9798 516.0651,358.1879 517.3947,358.385 518.7244,358.5715 520.054,358.748 521.3836,358.9149 522.7132,359.0727 524.0429,359.2218 525.3725,359.3626 526.7021,359.4955 528.0317,359.6209 529.3614,359.7392 530.691,359.8507 532.0206,359.9559 533.3502,360.0549 534.6799,360.1481 536.0095,360.2358 537.3391,360.3184 538.6687,360.396 539.9984,360.4689 541.328,360.5375 542.6576,360.6019 543.9872,360.6623 545.3169,360.719 546.6465,360.7721 547.9761,360.822 549.3057,360.8687 550.6354,360.9125 551.965,360.9534 553.2946,360.9918 554.6242,361.0276 555.9539,361.0612 557.2835,361.0925 558.6131,361.1218 559.9427,361.1491 561.2724,361.1747 562.602,361.1985 563.9316,361.2207 565.2612,361.2414 566.5909,361.2607 567.9205,361.2787 569.2501,361.2954 570.5797,361.311 571.9094,361.3255 573.239,361.339 574.5686,361.3515 575.8982,361.3631 577.2279,361.3739 578.5575,361.384 579.8871,361.3933 581.2167,361.4019 582.5464,361.4099 583.876,361.4173 585.2056,361.4242 586.5352,361.4306" style="fill:none;stroke:black;stroke-width:3;stroke-linejoin:bevel" />
  <polyline points="40.0594,361.429 41.389,361.4225 42.7187,361.4155 44.0483,361.408 45.3779,361.3998 46.7075,361.391 48.0372,361.3815 49.3668,361.3713 50.6964,361.3603 52.026,361.3484 53.3557,361.3357 54.6853,361.322 56.0149,361.3072 57.3445,361.2914 58.6742,361.2743 60.0038,361.256 61.3334,361.2364 62.663,361.2153 63.9927,361.1927 65.3223,361.1685 66.6519,361.1425 67.9815,361.1147 69.3112,361.0849 70.6408,361.053 71.9704,361.0189 73.3,360.9824 74.6297,360.9434 75.9593,360.9018 77.2889,360.8573 78.6185,360.8098 79.9482,360.7592 81.2778,360.7051 82.6074,360.6475 83.937,360.5861 85.2667,360.5207 86.5963,360.4511 87.9259,360.377 89.2555,360.2982 90.5852,360.2144 91.9148,360.1253 93.2444,360.0306 94.574,359.9301 95.9037,359.8234 97.2333,359.7103 98.5629,359.5902 99.8925,359.4629 101.2222,359.3281 102.5518,359.1853 103.8814,359.034 105.211,358.874 106.5407,358.7048 107.8703,358.5258 109.1999,358.3367 110.5295,358.1369 111.8592,357.9259 113.1888,357.7033 114.5184,357.4684 115.848,357.2207 117.1777,356.9597 118.5073,356.6846 119.8369,356.395 121.1665,356.0901 122.4962,355.7694 123.8258,355.432 125.1554,355.0774 126.485,354.7049 127.8146,354.3135 129.1443,353.9028 130.4739,353.4717 131.8035,353.0196 133.1331,352.5457 134.4628,352.0491 135.7924,351.5289 137.122,350.9843 138.4516,350.4145 139.7813,349.8184 141.1109,349.1953 142.4405,348.5441 143.7701,347.8639 145.0998,347.1537 146.4294,346.4126 147.759,345.6396 149.0886,344.8337 150.4183,343.9938 151.7479,343.119 153.0775,342.2082 154.4071,341.2604 155.7368,340.2745 157.0664,339.2495 158.396,338.1844 159.7256,337.078 161.0553,335.9294 162.3849,334.7375 163.7145,333.5013 165.0441,332.2197 166.3738,330.8916 167.7034,329.5162 169.033,328.0923 170.3626,326.619 171.6923,325.0952 173.0219,323.5202 174.3515,321.8928 175.6811,320.2123 177.0108,318.4776 178.3404,316.6881 179.67,314.8427 180.9996,312.9408 182.3293,310.9816 183.6589,308.9644 184.9885,306.8885 186.3181,304.7533 187.6478,302.5582 188.9774,300.3026 190.307,297.9862 191.6366,295.6085 192.9663,293.1691 194.2959,290.6677 195.6255,288.1042 196.9551,285.4782 198.2848,282.7899 199.6144,280.0391 200.944,277.2258 202.2736,274.3503 203.6033,271.4127 203.7791,271.0197" style="fill:none;stroke:none;" />
  <polyline points="203.7791,361.505 40.0594,361.505" style="fill:none;stroke:none;" />
  <polygon points="203.7791,361.505 40.0594,361.505 40.0594,361.429 41.389,361.4225 42.7187,361.4155 44.0483,361.408 45.3779,361.3998 46.7075,361.391 48.0372,361.3815 49.3668,361.3713 50.6964,361.3603 52.026,361.3484 53.3557,361.3357 54.6853,361.322 56.0149,361.3072 57.3445,361.2914 58.6742,361.2743 60.0038,361.256 61.3334,361.2364 62.663,361.2153 63.9927,361.1927 65.3223,361.1685 66.6519,361.1425 67.9815,361.1147 69.3112,361.0849 70.6408,361.053 71.9704,361.0189 73.3,360.9824 74.6297,360.9434 75.9593,360.9018 77.2889,360.8573 78.6185,360.8098 79.9482,360.7592 81.2778,360.7051 82.6074,360.6475 83.937,360.5861 85.2667,360.5207 86.5963,360.4511 87.9259,360.377 89.2555,360.2982 90.5852,360.2144 91.9148,360.1253 93.2444,360.0306 94.574,359.9301 95.9037,359.8234 97.2333,359.7103 98.5629,359.5902 99.8925,359.4629 101.2222,359.3281 102.5518,359.1853 103.8814,359.034 105.211,358.874 106.5407,358.7048 107.8703,358.5258 109.1999,358.3367 110.5295,358.1369 111.8592,357.9259 113.1888,357.7033 114.5184,357.4684 115.848,357.2207 117.1777,356.9597 118.5073,356.6846 119.8369,356.395 121.1665,356.0901 122.4962,355.7694 123.8258,355.432 125.1554,355.0774 126.485,354.7049 127.8146,354.3135 129.1443,353.9028 130.4739,353.4717 131.8035,353.0196 133.1331,352.5457 134.4628,352.0491 135.7924,351.5289 137.122,350.9843 138.4516,350.4145 139.7813,349.8184 141.1109,349.1953 142.4405,348.5441 143.7701,347.8639 145.0998,347.1537 146.4294,346.4126 147.759,345.6396 149.0886,344.8337 150.4183,343.9938 151.7479,343.119 153.0775,342.2082 154.4071,341.2604 155.7368,340.2745 157.0664,339.2495 158.396,338.1844 159.7256,337.078 161.0553,335.9294 162.3849,334.7375 163.7145,333.5013 165.0441,332.2197 166.3738,330.8916 167.7034,329.5162 169.033,328.0923 170.3626,326.619 171.6923,325.0952 173.0219,323.5202 174.3515,321.8928 175.6811,320.2123 177.0108,318.4776 178.3404,316.6881 179.67,314.8427 180.9996,312.9408 182.3293,310.9816 183.6589,308.9644 184.9885,306.8885 186.3181,304.7533 187.6478,302.5582 188.9774,300.3026 190.307,297.9862 191.6366,295.6085 192.9663,293.1691 194.2959,290.6677 195.6255,288.1042 196.9551,285.4782 198.2848,282.7899 199.6144,280.0391 200.944,277.2258 202.2736,274.3503 203.6033,271.4127 203.7791,271.0197" style="fill:rgb(123,104,238);stroke:none;" />
  <polyline points="203.7791,271.0197 205.1087,268.0122 206.4383,264.9433 207.7679,261.8136 209.0976,258.6237 210.4272,255.3741 211.7568,252.0657 213.0864,248.6993 214.4161,245.2758 215.7457,241.7963 217.0753,238.262 218.4049,234.674 219.7346,231.0338 221.0642,227.3428 222.3938,223.6025 223.7234,219.8147 225.0531,215.981 226.3827,212.1034 227.7123,208.1838 229.0419,204.2243 230.3716,200.2271 231.7012,196.1944 233.0308,192.1287 234.3604,188.0323 235.6901,183.9079 237.0197,179.7582 238.3493,175.586 239.6789,171.3939 241.0086,167.1852 242.3382,162.9626 243.6678,158.7295 244.9974,154.4889 246.3271,150.2441 247.6567,145.9986 248.9863,141.7556 250.3159,137.5187 251.6456,133.2914 252.9752,129.0773 254.3048,124.8801 255.6344,120.7034 256.9641,116.551 258.2937,112.4267 259.6233,108.3342 260.9529,104.2773 262.2826,100.26 263.6122,96.2861 264.9418,92.3593 266.2714,88.4837 267.6011,84.663 268.9307,80.9011 270.2603,77.2019 271.5899,73.569 272.9196,70.0064 274.2492,66.5177 275.5788,63.1067 276.9084,59.7769 278.2381,56.5319 279.5677,53.3754 280.8973,50.3107 282.2269,47.3412 283.5566,44.4701 284.8862,41.7008 286.2158,39.0364 287.5454,36.4797 288.8751,34.0338 290.2047,31.7015 291.5343,29.4854 292.8639,27.388 294.1936,25.4119 295.5232,23.5593 296.8528,21.8323 298.1824,20.2331 299.5121,18.7635 300.8417,17.4252 302.1713,16.2198 303.5009,15.1488 304.8306,14.2134 306.1602,13.4147 307.4898,12.7537 308.8194,12.2312 310.1491,11.8478 311.4787,11.604 312.8083,11.5 314.1379,11.5361 315.4676,11.712 316.7972,12.0277 318.1268,12.4828 319.4564,13.0766 320.7861,13.8086 322.1157,14.6778 323.4453,15.6831 324.7749,16.8234 326.1045,18.0974 327.4342,19.5035 328.7638,21.0401 330.0934,22.7052 331.423,24.4971 332.7527,26.4136 334.0823,28.4524 335.4119,30.6112 336.7415,32.8874 338.0712,35.2786 339.4008,37.7818 340.7304,40.3943 342.06,43.1131 343.3897,45.9352 344.7193,48.8573 346.0489,51.8762 347.3785,54.9886 348.7082,58.1911 350.0378,61.4801 351.3674,64.8522 352.697,68.3037 354.0267,71.8309 355.3563,75.4301 356.6859,79.0976 358.0155,82.8296 359.3452,86.6222 360.6748,90.4716 362.0044,94.374 363.334,98.3256 364.6637,102.3223 365.9933,106.3604 367.3229,110.4361 368.6525,114.5455 369.9822,118.6847 371.3118,122.8501 372.6414,127.0378 373.971,131.2442 375.3007,135.4655 376.6303,139.6982 377.9599,143.9386 379.2895,148.1834 380.6192,152.4289 381.9488,156.672 383.2784,160.9091 384.608,165.1372 385.9377,169.3531 387.2673,173.5536 388.5969,177.7358 389.9265,181.8968 391.2562,186.0338 392.5858,190.1441 393.9154,194.225 395.245,198.2741 396.5747,202.2888 397.9043,206.2669 399.2339,210.2061 400.5635,214.1044 401.8932,217.9596 403.2228,221.7699 404.5524,225.5335 405.882,229.2486 407.2117,232.9136 408.5413,236.5271 409.8709,240.0876 411.2005,243.5939 412.5302,247.0447 413.8598,250.4389 415.1894,253.7756 416.519,257.0539 417.8487,260.2729 419.1783,263.4319 420.5079,266.5303 421.8375,269.5676 422.4829,271.0197" style="fill:none;stroke:none;" />
  <polyline points="422.4829,361.505 203.7791,361.505" style="fill:none;stroke:none;" />
  <polygon points="422.4829,361.505 203.7791,361.505 203.7791,271.0197 205.1087,268.0122 206.4383,264.9433 207.7679,261.8136 209.0976,258.6237 210.4272,255.3741 211.7568,252.0657 213.0864,248.6993 214.4161,245.2758 215.7457,241.7963 217.0753,238.262 218.4049,234.674 219.7346,231.0338 221.0642,227.3428 222.3938,223.6025 223.7234,219.8147 225.0531,215.981 226.3827,212.1034 227.7123,208.1838 229.0419,204.2243 230.3716,200.2271 231.7012,196.1944 233.0308,192.1287 234.3604,188.0323 235.6901,183.9079 237.0197,179.7582 238.3493,175.586 239.6789,171.3939 241.0086,167.1852 242.3382,162.9626 243.6678,158.7295 244.9974,154.4889 246.3271,150.2441 247.6567,145.9986 248.9863,141.7556 250.3159,137.5187 251.6456,133.2914 252.9752,129.0773 254.3048,124.8801 255.6344,120.7034 256.9641,116.551 258.2937,112.4267 259.6233,108.3342 260.9529,104.2773 262.2826,100.26 263.6122,96.2861 264.9418,92.3593 266.2714,88.4837 267.6011,84.663 268.9307,80.9011 270.2603,77.2019 271.5899,73.569 272.9196,70.0064 274.2492,66.5177 275.5788,63.1067 276.9084,59.7769 278.2381,56.5319 279.5677,53.3754 280.8973,50.3107 282.2269,47.3412 283.5566,44.4701 284.8862,41.7008 286.2158,39.0364 287.5454,36.4797 288.8751,34.0338 290.2047,31.7015 291.5343,29.4854 292.8639,27.388 294.1936,25.4119 295.5232,23.5593 296.8528,21.8323 298.1824,20.2331 299.5121,18.7635 300.8417,17.4252 302.1713,16.2198 303.5009,15.1488 304.8306,14.2134 306.1602,13.4147 307.4898,12.7537 308.8194,12.2312 310.1491,11.8478 311.4787,11.604 312.8083,11.5 314.1379,11.5361 315.4676,11.712 316.7972,12.0277 318.1268,12.4828 319.4564,13.0766 320.7861,13.8086 322.1157,14.6778 323.4453,15.6831 324.7749,16.8234 326.1045,18.0974 327.4342,19.5035 328.7638,21.0401 330.0934,22.7052 331.423,24.4971 332.7527,26.4136 334.0823,28.4524 335.4119,30.6112 336.7415,32.8874 338.0712,35.2786 339.4008,37.7818 340.7304,40.3943 342.06,43.1131 343.3897,45.9352 344.7193,48.8573 346.0489,51.8762 347.3785,54.9886 348.7082,58.1911 350.0378,61.4801 351.3674,64.8522 352.697,68.3037 354.0267,71.8309 355.3563,75.4301 356.6859,79.0976 358.0155,82.8296 359.3452,86.6222 360.6748,90.4716 362.0044,94.374 363.334,98.3256 364.6637,102.3223 365.9933,106.3604 367.3229,110.4361 368.6525,114.5455 369.9822,118.6847 371.3118,122.8501 372.6414,127.0378 373.971,131.2442 375.3007,135.4655 376.6303,139.6982 377.9599,143.9386 379.2895,148.1834 380.6192,152.4289 381.9488,156.672 383.2784,160.9091 384.608,165.1372 385.9377,169.3531 387.2673,173.5536 388.5969,177.7358 389.9265,181.8968 391.2562,186.0338 392.5858,190.1441 393.9154,194.225 395.245,198.2741 396.5747,202.2888 397.9043,206.2669 399.2339,210.2061 400.5635,214.1044 401.8932,217.9596 403.2228,221.7699 404.5524,225.5335 405.882,229.2486 407.2117,232.9136 408.5413,236.5271 409.8709,240.0876 411.2005,243.5939 412.5302,247.0447 413.8598,250.4389 415.1894,253.7756 416.519,257.0539 417.8487,260.2729 419.1783,263.4319 420.5079,266.5303 421.8375,269.5676 422.4829,271.0197" style="fill:none;stroke:none;" />
  <polyline points="422.4829,271.0197 423.8125,273.9654 425.1421,276.8492 426.4718,279.6707 427.8014,282.4298 429.131,285.1264 430.4606,287.7606 431.7903,290.3324 433.1199,292.8419 434.4495,295.2895 435.7791,297.6754 437.1088,299.9999 438.4384,302.2634 439.768,304.4665 441.0976,306.6096 442.4273,308.6933 443.7569,310.7183 445.0865,312.6851 446.4161,314.5945 447.7458,316.4473 449.0754,318.2442 450.405,319.9861 451.7346,321.6737 453.0643,323.308 454.3939,324.89 455.7235,326.4204 457.0531,327.9003 458.3828,329.3307 459.7124,330.7125 461.042,332.0468 462.3716,333.3345 463.7013,334.5766 465.0309,335.7744 466.3605,336.9286 467.6901,338.0405 469.0198,339.111 470.3494,340.1413 471.679,341.1323 473.0086,342.085 474.3383,343.0007 475.6679,343.8802 476.9975,344.7246 478.3271,345.535 479.6568,346.3123 480.9864,347.0575 482.316,347.7717 483.6456,348.4558 484.9753,349.1108 486.3049,349.7376 487.6345,350.3372 488.9641,350.9105 490.2938,351.4583 491.6234,351.9817 492.953,352.4814 494.2826,352.9583 495.6123,353.4132 496.9419,353.8469 498.2715,354.2604 499.6011,354.6542 500.9308,355.0292 502.2604,355.3862 503.59,355.7257 504.9196,356.0487 506.2493,356.3556 507.5789,356.6472 508.9085,356.9241 510.2381,357.187 511.5678,357.4364 512.8974,357.673 514.227,357.8972 515.5566,358.1097 516.8863,358.3109 518.2159,358.5014 519.5455,358.6817 520.8751,358.8522 522.2048,359.0134 523.5344,359.1657 524.864,359.3097 526.1936,359.4455 527.5233,359.5738 528.8529,359.6948 530.1825,359.8089 531.5121,359.9164 532.8418,360.0177 534.1714,360.1131 535.501,360.2029 536.8306,360.2874 538.1603,360.3669 539.4899,360.4416 540.8195,360.5118 542.1491,360.5777 543.4788,360.6396 544.8084,360.6977 546.138,360.7522 547.4676,360.8033 548.7973,360.8512 550.1269,360.8961 551.4565,360.9381 552.7861,360.9774 554.1158,361.0142 555.4454,361.0486 556.775,361.0808 558.1046,361.1108 559.4343,361.1389 560.7639,361.1651 562.0935,361.1896 563.4231,361.2124 564.7528,361.2337 566.0824,361.2535 567.412,361.272 568.7416,361.2892 570.0713,361.3052 571.4009,361.3201 572.7305,361.3339 574.0601,361.3468 575.3898,361.3588 576.7194,361.3699 578.049,361.3802 579.3786,361.3898 580.7083,361.3987 582.0379,361.4069 583.3675,361.4146 584.6971,361.4216 586.0268,361.4282 586.2025,361.429" style="fill:none;stroke:none;" />
  <polyline points="586.2025,361.505 422.4829,361.505" style="fill:none;stroke:none;" />
  <polygon points="586.2025,361.505 422.4829,361.505 422.4829,271.0197 423.8125,273.9654 425.1421,276.8492 426.4718,279.6707 427.8014,282.4298 429.131,285.1264 430.4606,287.7606 431.7903,290.3324 433.1199,292.8419 434.4495,295.2895 435.7791,297.6754 437.1088,299.9999 438.4384,302.2634 439.768,304.4665 441.0976,306.6096 442.4273,308.6933 443.7569,310.7183 445.0865,312.6851 446.4161,314.5945 447.7458,316.4473 449.0754,318.2442 450.405,319.9861 451.7346,321.6737 453.0643,323.308 454.3939,324.89 455.7235,326.4204 457.0531,327.9003 458.3828,329.3307 459.7124,330.7125 461.042,332.0468 462.3716,333.3345 463.7013,334.5766 465.0309,335.7744 466.3605,336.9286 467.6901,338.0405 469.0198,339.111 470.3494,340.1413 471.679,341.1323 473.0086,342.085 474.3383,343.0007 475.6679,343.8802 476.9975,344.7246 478.3271,345.535 479.6568,346.3123 480.9864,347.0575 482.316,347.7717 483.6456,348.4558 484.9753,349.1108 486.3049,349.7376 487.6345,350.3372 488.9641,350.9105 490.2938,351.4583 491.6234,351.9817 492.953,352.4814 494.2826,352.9583 495.6123,353.4132 496.9419,353.8469 498.2715,354.2604 499.6011,354.6542 500.9308,355.0292 502.2604,355.3862 503.59,355.7257 504.9196,356.0487 506.2493,356.3556 507.5789,356.6472 508.9085,356.9241 510.2381,357.187 511.5678,357.4364 512.8974,357.673 514.227,357.8972 515.5566,358.1097 516.8863,358.3109 518.2159,358.5014 519.5455,358.6817 520.8751,358.8522 522.2048,359.0134 523.5344,359.1657 524.864,359.3097 526.1936,359.4455 527.5233,359.5738 528.8529,359.6948 530.1825,359.8089 531.5121,359.9164 532.8418,360.0177 534.1714,360.1131 535.501,360.2029 536.8306,360.2874 538.1603,360.3669 539.4899,360.4416 540.8195,360.5118 542.1491,360.5777 543.4788,360.6396 544.8084,360.6977 546.138,360.7522 547.4676,360.8033 548.7973,360.8512 550.1269,360.8961 551.4565,360.9381 552.7861,360.9774 554.1158,361.0142 555.4454,361.0486 556.775,361.0808 558.1046,361.1108 559.4343,361.1389 560.7639,361.1651 562.0935,361.1896 563.4231,361.2124 564.7528,361.2337 566.0824,361.2535 567.412,361.272 568.7416,361.2892 570.0713,361.3052 571.4009,361.3201 572.7305,361.3339 574.0601,361.3468 575.3898,361.3588 576.7194,361.3699 578.049,361.3802 579.3786,361.3898 580.7083,361.3987 582.0379,361.4069 583.3675,361.4146 584.6971,361.4216 586.0268,361.4282 586.2025,361.429" style="fill:rgb(123,104,238);stroke:none;" />
  <polyline points="40.0594,340.2653 41.389,339.8257 42.7187,339.3791 44.0483,338.9257 45.3779,338.4652 46.7075,337.9977 48.0372,337.5232 49.3668,337.0415 50.6964,336.5526 52.026,336.0564 53.3557,335.5531 54.6853,335.0424 56.0149,334.5243 57.3445,333.9989 58.6742,333.466 60.0038,332.9257 61.3334,332.3778 62.663,331.8225 63.9927,331.2595 65.3223,330.689 66.6519,330.1109 67.9815,329.5251 69.3112,328.9316 70.6408,328.3304 71.9704,327.7216 73.3,327.1049 74.6297,326.4806 75.9593,325.8484 77.2889,325.2085 78.6185,324.5608 79.9482,323.9053 81.2778,323.242 82.6074,322.5709 83.937,321.892 85.2667,321.2052 86.5963,320.5107 87.9259,319.8084 89.2555,319.0982 90.5852,318.3803 91.9148,317.6547 93.2444,316.9212 94.574,316.1801 95.9037,315.4312 97.2333,314.6746 98.5629,313.9104 99.8925,313.1385 101.2222,312.359 102.5518,311.572 103.8814,310.7774 105.211,309.9753 106.5407,309.1658 107.8703,308.3489 109.1999,307.5247 110.5295,306.6931 111.8592,305.8543 113.1888,305.0083 114.5184,304.1552 115.848,303.295 117.1777,302.4278 118.5073,301.5537 119.8369,300.6728 121.1665,299.7851 122.4962,298.8906 123.8258,297.9896 125.1554,297.0821 126.485,296.1681 127.8146,295.2478 129.1443,294.3212 130.4739,293.3885 131.8035,292.4497 133.1331,291.5051 134.4628,290.5545 135.7924,289.5983 137.122,288.6365 138.4516,287.6692 139.7813,286.6965 141.1109,285.7186 142.4405,284.7356 143.7701,283.7476 145.0998,282.7547 146.4294,281.7572 147.759,280.7551 149.0886,279.7486 150.4183,278.7378 151.7479,277.7229 153.0775,276.7041 154.4071,275.6814 155.7368,274.6551 157.0664,273.6253 158.396,272.5922 159.7256,271.5559 161.0553,270.5166 162.3849,269.4746 163.7145,268.4299 165.0441,267.3828 166.3738,266.3334 167.7034,265.282 169.033,264.2286 170.3626,263.1736 171.6923,262.117 173.0219,261.0591 174.3515,260.0002 175.6811,258.9403 177.0108,257.8797 178.3404,256.8186 179.67,255.7573 180.9996,254.6958 182.3293,253.6345 183.6589,252.5736 184.9885,251.5132 186.3181,250.4535 187.6478,249.3949 188.9774,248.3375 190.307,247.2816 191.6366,246.2273 192.9663,245.175 194.2959,244.1248 195.6255,243.0769 196.9551,242.0316 198.2848,240.9892 199.6144,239.9498 200.944,238.9137 202.2736,237.8811 203.6033,236.8524 204.9329,235.8276 206.2625,234.807 207.5921,233.791 208.9218,232.7797 210.2514,231.7733 211.581,230.7721 212.9106,229.7764 214.2403,228.7864 215.5699,227.8023 216.8995,226.8244 218.2291,225.8529 219.5588,224.8881 220.8884,223.9301 222.218,222.9793 223.5476,222.0359 224.8773,221.1 226.2069,220.1721 227.5365,219.2522 228.8661,218.3407 230.1958,217.4377 231.5254,216.5435 232.855,215.6584 234.1846,214.7825 235.5143,213.9161 236.8439,213.0595 238.1735,212.2128 239.5031,211.3763 240.8328,210.5502 242.1624,209.7347 243.492,208.9301 244.8216,208.1366 246.1513,207.3543 247.4809,206.5836 248.8105,205.8245 250.1401,205.0774 251.4698,204.3425 252.7994,203.6198 254.129,202.9097 255.4586,202.2124 256.7883,201.5279 258.1179,200.8566 259.4475,200.1986 260.7771,199.5541 262.1068,198.9233 263.4364,198.3064 264.766,197.7035 266.0956,197.1148 267.4253,196.5405 268.7549,195.9807 270.0845,195.4357 271.4141,194.9055 272.7438,194.3903 274.0734,193.8903 275.403,193.4056 276.7326,192.9364 278.0623,192.4828 279.3919,192.0449 280.7215,191.6228 282.0511,191.2167 283.3808,190.8267 284.7104,190.453 286.04,190.0955 287.3696,189.7545 288.6993,189.43 290.0289,189.1222 291.3585,188.831 292.6881,188.5567 294.0178,188.2993 295.3474,188.0588 296.677,187.8353 298.0066,187.629 299.3363,187.4398 300.6659,187.2678 301.9955,187.1131 303.3251,186.9757 304.6548,186.8557 305.9844,186.753 307.314,186.6678 308.6436,186.6001 309.9733,186.5498 311.3029,186.517 312.6325,186.5017 313.9621,186.5039 315.2918,186.5235 316.6214,186.5607 317.951,186.6154 319.2806,186.6875 320.6103,186.7771 321.9399,186.8841 323.2695,187.0085 324.5991,187.1502 325.9288,187.3092 327.2584,187.4855 328.588,187.679 329.9176,187.8896 331.2473,188.1173 332.5769,188.3621 333.9065,188.6238 335.2361,188.9023 336.5658,189.1976 337.8954,189.5097 339.225,189.8383 340.5546,190.1834 341.8843,190.545 343.2139,190.9228 344.5435,191.3168 345.8731,191.7269 347.2028,192.1529 348.5324,192.5948 349.862,193.0523 351.1916,193.5255 352.5213,194.014 353.8509,194.5178 355.1805,195.0367 356.5101,195.5707 357.8398,196.1194 359.1694,196.6828 360.499,197.2608 361.8286,197.853 363.1583,198.4594 364.4879,199.0799 365.8175,199.7141 367.1471,200.362 368.4768,201.0234 369.8064,201.698 371.136,202.3856 372.4656,203.0862 373.7953,203.7995 375.1249,204.5252 376.4545,205.2632 377.7841,206.0134 379.1138,206.7753 380.4434,207.549 381.773,208.3341 383.1026,209.1304 384.4323,209.9377 385.7619,210.7559 387.0915,211.5846 388.4211,212.4237 389.7508,213.2729 391.0804,214.132 392.41,215.0008 393.7396,215.879 395.0693,216.7664 396.3989,217.6628 397.7285,218.5679 399.0581,219.4816 400.3878,220.4035 401.7174,221.3335 403.047,222.2712 404.3766,223.2165 405.7063,224.1692 407.0359,225.1289 408.3655,226.0954 409.6951,227.0685 411.0248,228.048 412.3544,229.0336 413.684,230.0251 415.0136,231.0222 416.3433,232.0246 417.6729,233.0323 419.0025,234.0448 420.3321,235.062 421.6618,236.0836 422.9914,237.1094 424.321,238.1392 425.6506,239.1726 426.9803,240.2096 428.3099,241.2497 429.6395,242.2929 430.9691,243.3389 432.2988,244.3873 433.6284,245.4381 434.958,246.491 436.2876,247.5457 437.6173,248.602 438.9469,249.6597 440.2765,250.7186 441.6061,251.7784 442.9358,252.839 444.2654,253.9001 445.595,254.9614 446.9246,256.0229 448.2543,257.0842 449.5839,258.1452 450.9135,259.2056 452.2431,260.2652 453.5728,261.3239 454.9024,262.3815 456.232,263.4377 457.5616,264.4923 458.8913,265.5452 460.2209,266.5962 461.5505,267.645 462.8801,268.6916 464.2098,269.7356 465.5394,270.777 466.869,271.8155 468.1986,272.851 469.5283,273.8833 470.8579,274.9122 472.1875,275.9376 473.5171,276.9594 474.8467,277.9772 476.1764,278.9911 477.506,280.0008 478.8356,281.0063 480.1652,282.0072 481.4949,283.0036 482.8245,283.9952 484.1541,284.982 485.4837,285.9637 486.8134,286.9404 488.143,287.9117 489.4726,288.8777 490.8022,289.8381 492.1319,290.7929 493.4615,291.742 494.7911,292.6852 496.1207,293.6225 497.4504,294.5536 498.78,295.4786 500.1096,296.3974 501.4392,297.3098 502.7689,298.2157 504.0985,299.1151 505.4281,300.0078 506.7577,300.8938 508.0874,301.7731 509.417,302.6455 510.7466,303.5109 512.0762,304.3693 513.4059,305.2207 514.7355,306.0649 516.0651,306.9019 517.3947,307.7316 518.7244,308.554 520.054,309.3691 521.3836,310.1767 522.7132,310.9769 524.0429,311.7696 525.3725,312.5548 526.7021,313.3323 528.0317,314.1023 529.3614,314.8646 530.691,315.6193 532.0206,316.3662 533.3502,317.1055 534.6799,317.837 536.0095,318.5607 537.3391,319.2767 538.6687,319.9848 539.9984,320.6852 541.328,321.3778 542.6576,322.0626 543.9872,322.7396 545.3169,323.4087 546.6465,324.0701 547.9761,324.7236 549.3057,325.3694 550.6354,326.0073 551.965,326.6375 553.2946,327.26 554.6242,327.8746 555.9539,328.4816 557.2835,329.0808 558.6131,329.6724 559.9427,330.2563 561.2724,330.8325 562.602,331.4011 563.9316,331.9621 565.2612,332.5156 566.5909,333.0616 567.9205,333.6 569.2501,334.131 570.5797,334.6546 571.9094,335.1708 573.239,335.6797 574.5686,336.1813 575.8982,336.6756 577.2279,337.1627 578.5575,337.6426 579.8871,338.1154 581.2167,338.5811 582.5464,339.0398 583.876,339.4915 585.2056,339.9363 586.5352,340.3742" style="fill:none;stroke:black;stroke-width:3;stroke-linejoin:bevel" />
  <polyline points="40.0594,340.2653 41.389,339.8257 42.7187,339.3791 44.0483,338.9257 45.3779,338.4652 46.7075,337.9977 48.0372,337.5232 49.3668,337.0415 50.6964,336.5526 52.026,336.0564 53.3557,335.5531 54.6853,335.0424 56.0149,334.5243 57.3445,333.9989 58.6742,333.466 60.0038,332.9257 61.3334,332.3778 62.663,331.8225 63.9927,331.2595 65.3223,330.689 66.6519,330.1109 67.9815,329.5251 69.3112,328.9316 70.6408,328.3304 71.9704,327.7216 73.3,327.1049 74.6297,326.4806 75.9593,325.8484 77.2889,325.2085 78.6185,324.5608 79.9482,323.9053 81.2778,323.242 82.6074,322.5709 83.937,321.892 85.2667,321.2052 86.5963,320.5107 87.9259,319.8084 89.2555,319.0982 90.5852,318.3803 91.9148,317.6547 93.2444,316.9212 94.4271,316.2623" style="fill:none;stroke:none;" />
  <polyline points="94.4271,361.505 40.0594,361.505" style="fill:none;stroke:none;" />
  <polygon points="94.4271,361.505 40.0594,361.505 40.0594,340.2653 41.389,339.8257 42.7187,339.3791 44.0483,338.9257 45.3779,338.4652 46.7075,337.9977 48.0372,337.5232 49.3668,337.0415 50.6964,336.5526 52.026,336.0564 53.3557,335.5531 54.6853,335.0424 56.0149,334.5243 57.3445,333.9989 58.6742,333.466 60.0038,332.9257 61.3334,332.3778 62.663,331.8225 63.9927,331.2595 65.3223,330.689 66.6519,330.1109 67.9815,329.5251 69.3112,328.9316 70.6408,328.3304 71.9704,327.7216 73.3,327.1049 74.6297,326.4806 75.9593,325.8484 77.2889,325.2085 78.6185,324.5608 79.9482,323.9053 81.2778,323.242 82.6074,322.5709 83.937,321.892 85.2667,321.2052 86.5963,320.5107 87.9259,319.8084 89.2555,319.0982 90.5852,318.3803 91.9148,317.6547 93.2444,316.9212 94.4271,316.2623" style="fill:rgb(123,104,238);stroke:none;" />
  <polyline points="94.4271,316.2623 95.7568,315.5143 97.0864,314.7586 98.416,313.9952 99.7456,313.2241 101.0753,312.4455 102.4049,311.6593 103.7345,310.8656 105.0641,310.0643 106.3938,309.2556 107.7234,308.4395 109.053,307.6161 110.3826,306.7853 111.7123,305.9473 113.0419,305.1021 114.3715,304.2498 115.7011,303.3904 117.0308,302.524 118.3604,301.6506 119.69,300.7704 121.0196,299.8835 122.3493,298.9898 123.6789,298.0895 125.0085,297.1827 126.3381,296.2694 127.6678,295.3498 128.9974,294.4239 130.327,293.4918 131.6566,292.5537 132.9863,291.6097 134.3159,290.6598 135.6455,289.7042 136.9751,288.743 138.3048,287.7763 139.6344,286.8042 140.964,285.8269 142.2936,284.8444 143.6233,283.8569 144.9529,282.8646 146.2825,281.8676 147.6121,280.866 148.9418,279.86 150.2714,278.8497 151.601,277.8352 152.9306,276.8168 154.2603,275.7946 155.5899,274.7686 156.9195,273.7392 158.2491,272.7064 159.5788,271.6705 160.9084,270.6316 162.238,269.5898 163.5676,268.5455 164.8973,267.4986 166.2269,266.4494 167.5565,265.3982 168.8861,264.3451 170.2158,263.2902 171.5454,262.2338 172.875,261.1761 174.2046,260.1172 175.5343,259.0574 176.8639,257.9969 178.1935,256.9359 179.5231,255.8745 180.8528,254.8131 182.1824,253.7518 183.512,252.6907 184.8416,251.6303 186.1713,250.5706 187.5009,249.5118 188.8305,248.4543 190.1601,247.3982 191.4898,246.3437 192.8194,245.2911 194.149,244.2407 195.4786,243.1925 196.8083,242.147 198.1379,241.1042 199.4675,240.0645 200.7971,239.028 202.1268,237.995 203.4564,236.9658 204.786,235.9406 206.1156,234.9196 207.4453,233.903 208.7749,232.8911 210.1045,231.8842 211.4341,230.8825 212.7638,229.8862 214.0934,228.8955 215.423,227.9108 216.7526,226.9321 218.0823,225.9599 219.4119,224.9943 220.7415,224.0356 222.0711,223.084 223.4008,222.1397 224.7304,221.203 226.06,220.2742 227.3896,219.3534 228.7193,218.4409 230.0489,217.537 231.3785,216.6418 232.7081,215.7557 234.0378,214.8788 235.3674,214.0113 236.697,213.1536 238.0266,212.3058 239.3563,211.4682 240.6859,210.6409 242.0155,209.8243 243.3451,209.0184 244.6748,208.2237 246.0044,207.4402 247.334,206.6681 248.6636,205.9078 249.9933,205.1594 251.3229,204.4231 252.6525,203.699 253.9821,202.9875 255.3118,202.2888 256.6414,201.6029 257.971,200.9301 259.3006,200.2707 260.6303,199.6247 261.9599,198.9923 263.2895,198.3739 264.6191,197.7694 265.9488,197.1791 267.2784,196.6032 268.608,196.0418 269.9376,195.4952 271.2673,194.9633 272.5969,194.4465 273.9265,193.9448 275.2561,193.4584 276.5858,192.9875 277.9154,192.5321 279.245,192.0925 280.5746,191.6686 281.9043,191.2608 283.2339,190.869 284.5635,190.4935 285.8931,190.1342 287.2228,189.7914 288.5524,189.4651 289.882,189.1554 291.2116,188.8624 292.5413,188.5862 293.8709,188.3269 295.2005,188.0845 296.5301,187.8592 297.8598,187.6509 299.1894,187.4598 300.519,187.2859 301.8486,187.1293 303.1783,186.99 304.5079,186.8681 305.8375,186.7635 307.1671,186.6764 308.4968,186.6067 309.8264,186.5545 311.156,186.5197 312.4856,186.5025 313.8153,186.5028 315.1449,186.5205 316.4745,186.5558 317.8041,186.6085 319.1338,186.6787 320.4634,186.7663 321.793,186.8714 323.1226,186.9939 324.4522,187.1337 325.7819,187.2908 327.1115,187.4652 328.4411,187.6568 329.7707,187.8655 331.1004,188.0914 332.43,188.3342 333.7596,188.594 335.0892,188.8707 336.4189,189.1642 337.7485,189.4744 339.0781,189.8012 340.4077,190.1445 341.7374,190.5042 343.067,190.8803 344.3966,191.2725 345.7262,191.6808 347.0559,192.1051 348.3855,192.5452 349.7151,193.001 351.0447,193.4724 352.3744,193.9593 353.704,194.4614 355.0336,194.9787 356.3632,195.5109 357.6929,196.0581 359.0225,196.6199 360.3521,197.1962 361.6817,197.7869 363.0114,198.3918 364.341,199.0107 365.6706,199.6434 367.0002,200.2898 368.3299,200.9496 369.6595,201.6228 370.9891,202.309 372.3187,203.0082 373.6484,203.7201 374.978,204.4444 376.3076,205.1811 377.6372,205.9299 378.9669,206.6906 380.2965,207.4629 381.6261,208.2468 382.9557,209.0419 384.2854,209.848 385.615,210.665 386.9446,211.4925 388.2742,212.3305 389.6039,213.1786 390.9335,214.0366 392.2631,214.9043 393.5927,215.7815 394.9224,216.6679 396.252,217.5633 397.5816,218.4675 398.9112,219.3803 400.2409,220.3013 401.5705,221.2304 402.9001,222.1673 404.2297,223.1117 405.5594,224.0636 406.889,225.0225 408.2186,225.9883 409.5482,226.9607 410.8779,227.9395 412.2075,228.9244 413.5371,229.9153 414.8667,230.9117 416.1964,231.9136 417.526,232.9207 418.8556,233.9327 420.1852,234.9494 421.5149,235.9705 422.8445,236.9959 424.1741,238.0252 425.5037,239.0583 426.8334,240.0948 428.163,241.1347 429.4926,242.1775 430.8222,243.2232 432.1519,244.2714 433.4815,245.3219 434.8111,246.3746 436.1407,247.4291 437.4704,248.4852 438.8,249.5428 440.1296,250.6016 441.4592,251.6613 442.7889,252.7218 444.1185,253.7828 445.4481,254.8442 446.7777,255.9056 448.1074,256.9669 449.437,258.028 450.7666,259.0885 452.0962,260.1482 453.4259,261.207 454.7555,262.2647 456.0851,263.3211 457.4147,264.3759 458.7444,265.429 460.074,266.4802 461.4036,267.5293 462.7332,268.5761 464.0629,269.6204 465.3925,270.662 466.7221,271.7009 468.0517,272.7367 469.3814,273.7694 470.711,274.7987 472.0406,275.8245 473.3702,276.8467 474.6999,277.865 476.0295,278.8793 477.3591,279.8895 478.6887,280.8954 480.0184,281.8969 481.348,282.8938 482.6776,283.8859 484.0072,284.8732 485.3369,285.8555 486.6665,286.8327 487.9961,287.8047 489.3257,288.7712 490.6554,289.7323 491.985,290.6877 493.3146,291.6374 494.6442,292.5813 495.9739,293.5192 497.3035,294.4511 498.6331,295.3768 499.9627,296.2962 501.2924,297.2093 502.622,298.1159 503.9516,299.016 505.2812,299.9095 506.6109,300.7963 507.9405,301.6763 509.2701,302.5494 510.5997,303.4156 511.9294,304.2748 513.259,305.127 514.5886,305.9719 515.9182,306.8097 517.2479,307.6403 518.5775,308.4635 519.9071,309.2794 521.2367,310.0879 522.5664,310.8889 523.896,311.6824 525.2256,312.4684 526.5552,313.2468 527.8849,314.0176 529.2145,314.7808 530.5441,315.5363 531.8348,316.2623" style="fill:none;stroke:none;" />
  <polyline points="531.8348,361.505 94.4271,361.505" style="fill:none;stroke:none;" />
  <polygon points="531.8348,361.505 94.4271,361.505 94.4271,316.2623 95.7568,315.5143 97.0864,314.7586 98.416,313.9952 99.7456,313.2241 101.0753,312.4455 102.4049,311.6593 103.7345,310.8656 105.0641,310.0643 106.3938,309.2556 107.7234,308.4395 109.053,307.6161 110.3826,306.7853 111.7123,305.9473 113.0419,305.1021 114.3715,304.2498 115.7011,303.3904 117.0308,302.524 118.3604,301.6506 119.69,300.7704 121.0196,299.8835 122.3493,298.9898 123.6789,298.0895 125.0085,297.1827 126.3381,296.2694 127.6678,295.3498 128.9974,294.4239 130.327,293.4918 131.6566,292.5537 132.9863,291.6097 134.3159,290.6598 135.6455,289.7042 136.9751,288.743 138.3048,287.7763 139.6344,286.8042 140.964,285.8269 142.2936,284.8444 143.6233,283.8569 144.9529,282.8646 146.2825,281.8676 147.6121,280.866 148.9418,279.86 150.2714,278.8497 151.601,277.8352 152.9306,276.8168 154.2603,275.7946 155.5899,274.7686 156.9195,273.7392 158.2491,272.7064 159.5788,271.6705 160.9084,270.6316 162.238,269.5898 163.5676,268.5455 164.8973,267.4986 166.2269,266.4494 167.5565,265.3982 168.8861,264.3451 170.2158,263.2902 171.5454,262.2338 172.875,261.1761 174.2046,260.1172 175.5343,259.0574 176.8639,257.9969 178.1935,256.9359 179.5231,255.8745 180.8528,254.8131 182.1824,253.7518 183.512,252.6907 184.8416,251.6303 186.1713,250.5706 187.5009,249.5118 188.8305,248.4543 190.1601,247.3982 191.4898,246.3437 192.8194,245.2911 194.149,244.2407 195.4786,243.1925 196.8083,242.147 198.1379,241.1042 199.4675,240.0645 200.7971,239.028 202.1268,237.995 203.4564,236.9658 204.786,235.9406 206.1156,234.9196 207.4453,233.903 208.7749,232.8911 210.1045,231.8842 211.4341,230.8825 212.7638,229.8862 214.0934,228.8955 215.423,227.9108 216.7526,226.9321 218.0823,225.9599 219.4119,224.9943 220.7415,224.0356 222.0711,223.084 223.4008,222.1397 224.7304,221.203 226.06,220.2742 227.3896,219.3534 228.7193,218.4409 230.0489,217.537 231.3785,216.6418 232.7081,215.7557 234.0378,214.8788 235.3674,214.0113 236.697,213.1536 238.0266,212.3058 239.3563,211.4682 240.6859,210.6409 242.0155,209.8243 243.3451,209.0184 244.6748,208.2237 246.0044,207.4402 247.334,206.6681 248.6636,205.9078 249.9933,205.1594 251.3229,204.4231 252.6525,203.699 253.9821,202.9875 255.3118,202.2888 256.6414,201.6029 257.971,200.9301 259.3006,200.2707 260.6303,199.6247 261.9599,198.9923 263.2895,198.3739 264.6191,197.7694 265.9488,197.1791 267.2784,196.6032 268.608,196.0418 269.9376,195.4952 271.2673,194.9633 272.5969,194.4465 273.9265,193.9448 275.2561,193.4584 276.5858,192.9875 277.9154,192.5321 279.245,192.0925 280.5746,191.6686 281.9043,191.2608 283.2339,190.869 284.5635,190.4935 285.8931,190.1342 287.2228,189.7914 288.5524,189.4651 289.882,189.1554 291.2116,188.8624 292.5413,188.5862 293.8709,188.3269 295.2005,188.0845 296.5301,187.8592 297.8598,187.6509 299.1894,187.4598 300.519,187.2859 301.8486,187.1293 303.1783,186.99 304.5079,186.8681 305.8375,186.7635 307.1671,186.6764 308.4968,186.6067 309.8264,186.5545 311.156,186.5197 312.4856,186.5025 313.8153,186.5028 315.1449,186.5205 316.4745,186.5558 317.8041,186.6085 319.1338,186.6787 320.4634,186.7663 321.793,186.8714 323.1226,186.9939 324.4522,187.1337 325.7819,187.2908 327.1115,187.4652 328.4411,187.6568 329.7707,187.8655 331.1004,188.0914 332.43,188.3342 333.7596,188.594 335.0892,188.8707 336.4189,189.1642 337.7485,189.4744 339.0781,189.8012 340.4077,190.1445 341.7374,190.5042 343.067,190.8803 344.3966,191.2725 345.7262,191.6808 347.0559,192.1051 348.3855,192.5452 349.7151,193.001 351.0447,193.4724 352.3744,193.9593 353.704,194.4614 355.0336,194.9787 356.3632,195.5109 357.6929,196.0581 359.0225,196.6199 360.3521,197.1962 361.6817,197.7869 363.0114,198.3918 364.341,199.0107 365.6706,199.6434 367.0002,200.2898 368.3299,200.9496 369.6595,201.6228 370.9891,202.309 372.3187,203.0082 373.6484,203.7201 374.978,204.4444 376.3076,205.1811 377.6372,205.9299 378.9669,206.6906 380.2965,207.4629 381.6261,208.2468 382.9557,209.0419 384.2854,209.848 385.615,210.665 386.9446,211.4925 388.2742,212.3305 389.6039,213.1786 390.9335,214.0366 392.2631,214.9043 393.5927,215.7815 394.9224,216.6679 396.252,217.5633 397.5816,218.4675 398.9112,219.3803 400.2409,220.3013 401.5705,221.2304 402.9001,222.1673 404.2297,223.1117 405.5594,224.0636 406.889,225.0225 408.2186,225.9883 409.5482,226.9607 410.8779,227.9395 412.2075,228.9244 413.5371,229.9153 414.8667,230.9117 416.1964,231.9136 417.526,232.9207 418.8556,233.9327 420.1852,234.9494 421.5149,235.9705 422.8445,236.9959 424.1741,238.0252 425.5037,239.0583 426.8334,240.0948 428.163,241.1347 429.4926,242.1775 430.8222,243.2232 432.1519,244.2714 433.4815,245.3219 434.8111,246.3746 436.1407,247.4291 437.4704,248.4852 438.8,249.5428 440.1296,250.6016 441.4592,251.6613 442.7889,252.7218 444.1185,253.7828 445.4481,254.8442 446.7777,255.9056 448.1074,256.9669 449.437,258.028 450.7666,259.0885 452.0962,260.1482 453.4259,261.207 454.7555,262.2647 456.0851,263.3211 457.4147,264.3759 458.7444,265.429 460.074,266.4802 461.4036,267.5293 462.7332,268.5761 464.0629,269.6204 465.3925,270.662 466.7221,271.7009 468.0517,272.7367 469.3814,273.7694 470.711,274.7987 472.0406,275.8245 473.3702,276.8467 474.6999,277.865 476.0295,278.8793 477.3591,279.8895 478.6887,280.8954 480.0184,281.8969 481.348,282.8938 482.6776,283.8859 484.0072,284.8732 485.3369,285.8555 486.6665,286.8327 487.9961,287.8047 489.3257,288.7712 490.6554,289.7323 491.985,290.6877 493.3146,291.6374 494.6442,292.5813 495.9739,293.5192 497.3035,294.4511 498.6331,295.3768 499.9627,296.2962 501.2924,297.2093 502.622,298.1159 503.9516,299.016 505.2812,299.9095 506.6109,300.7963 507.9405,301.6763 509.2701,302.5494 510.5997,303.4156 511.9294,304.2748 513.259,305.127 514.5886,305.9719 515.9182,306.8097 517.2479,307.6403 518.5775,308.4635 519.9071,309.2794 521.2367,310.0879 522.5664,310.8889 523.896,311.6824 525.2256,312.4684 526.5552,313.2468 527.8849,314.0176 529.2145,314.7808 530.5441,315.5363 531.8348,316.2623" style="fill:none;stroke:none;" />
  <polyline points="531.8348,316.2623 533.1644,317.0026 534.4941,317.7352 535.8237,318.46 537.1533,319.1771 538.4829,319.8863 539.8126,320.5878 541.1422,321.2815 542.4718,321.9674 543.8014,322.6454 545.1311,323.3157 546.4607,323.9781 547.7903,324.6328 549.1199,325.2796 550.4496,325.9187 551.7792,326.5499 553.1088,327.1734 554.4384,327.7892 555.7681,328.3972 557.0977,328.9975 558.4273,329.5902 559.7569,330.1751 561.0866,330.7524 562.4162,331.3221 563.7458,331.8842 565.0754,332.4387 566.4051,332.9857 567.7347,333.5252 569.0643,334.0573 570.3939,334.5819 571.7236,335.0991 573.0532,335.609 574.3828,336.1116 575.7124,336.6069 577.0421,337.095 578.3717,337.5759 579.7013,338.0497 581.0309,338.5164 582.3606,338.9761 583.6902,339.4288 585.0198,339.8746 586.2025,340.2653" style="fill:none;stroke:none;" />
  <polyline points="586.2025,361.505 531.8348,361.505" style="fill:none;stroke:none;" />
  <polygon points="586.2025,361.505 531.8348,361.505 531.8348,316.2623 533.1644,317.0026 534.4941,317.7352 535.8237,318.46 537.1533,319.1771 538.4829,319.8863 539.8126,320.5878 541.1422,321.2815 542.4718,321.9674 543.8014,322.6454 545.1311,323.3157 546.4607,323.9781 547.7903,324.6328 549.1199,325.2796 550.4496,325.9187 551.7792,326.5499 553.1088,327.1734 554.4384,327.7892 555.7681,328.3972 557.0977,328.9975 558.4273,329.5902 559.7569,330.1751 561.0866,330.7524 562.4162,331.3221 563.7458,331.8842 565.0754,332.4387 566.4051,332.9857 567.7347,333.5252 569.0643,334.0573 570.3939,334.5819 571.7236,335.0991 573.0532,335.609 574.3828,336.1116 575.7124,336.6069 577.0421,337.095 578.3717,337.5759 579.7013,338.0497 581.0309,338.5164 582.3606,338.9761 583.6902,339.4288 585.0198,339.8746 586.2025,340.2653" style="fill:rgb(123,104,238);stroke:none;" />
  <polygon points="34.54,8 592,8 592,365.04 34.54,365.04" style="fill:none;stroke:black;stroke-width:1" />
  <polygon points="439.0133,16 584,16 584,111.8 439.0133,111.8" style="fill:none;stroke:none;" />
  <text dominant-baseline="hanging" text-anchor="start" transform="translate(467.0133,24)" font-family="Segoe UI" font-size="12" font-weight="400" fill="black">Normal(μ = 0, σ = 1)</text>
  <polyline points="447.0133,31.98 463.0133,31.98" style="fill:none;stroke:black;stroke-width:3" />
  <text dominant-baseline="hanging" text-anchor="start" transform="translate(467.0133,39.96)" font-family="Segoe UI" font-size="12" font-weight="400" fill="black">Normal(μ = 0, σ = 2)</text>
  <polyline points="447.0133,47.94 463.0133,47.94" style="fill:none;stroke:black;stroke-width:3" />
  <text dominant-baseline="hanging" text-anchor="start" transform="translate(467.0133,55.92)" font-family="Segoe UI" font-size="12" font-weight="400" fill="black">Q=(0-5)%</text>
  <polyline points="447.0133,68.688 463.0133,68.688" style="fill:none;stroke:none;" />
  <polyline points="463.0133,59.112 447.0133,65.496" style="fill:none;stroke:none;" />
  <polygon points="447.0133,68.688 463.0133,68.688 463.0133,59.112 447.0133,65.496" style="fill:rgb(123,104,238);stroke:none;" />
  <text dominant-baseline="hanging" text-anchor="start" transform="translate(467.0133,71.88)" font-family="Segoe UI" font-size="12" font-weight="400" fill="black">Q=(5-95)%</text>
  <polyline points="447.0133,84.648 463.0133,84.648" style="fill:none;stroke:none;" />
  <polyline points="463.0133,75.072 447.0133,81.456" style="fill:none;stroke:none;" />
  <polygon points="447.0133,84.648 463.0133,84.648 463.0133,75.072 447.0133,81.456" style="fill:none;stroke:none;" />
  <text dominant-baseline="hanging" text-anchor="start" transform="translate(467.0133,87.84)" font-family="Segoe UI" font-size="12" font-weight="400" fill="black">Q=(95-100)%</text>
  <polyline points="447.0133,100.608 463.0133,100.608" style="fill:none;stroke:none;" />
  <polyline points="463.0133,91.032 447.0133,97.416" style="fill:none;stroke:none;" />
  <polygon points="447.0133,100.608 463.0133,100.608 463.0133,91.032 447.0133,97.416" style="fill:rgb(123,104,238);stroke:none;" />
</svg>
 
