<?xml version="1.0" encoding="utf-8" standalone="no"?>
<!DOCTYPE svg PUBLIC "-//W3C//DTD SVG 1.1//EN" "http://www.w3.org/Graphics/SVG/1.1/DTD/svg11.dtd">
<svg width="600" height="400" version="1.1" xmlns:xlink="http://www.w3.org/1999/xlink" xmlns="http://www.w3.org/2000/svg">
  <polyline points="34.54,350.5687 30.54,350.5687" style="fill:none;stroke:black;stroke-width:1" />
  <polyline points="34.54,332.3415 30.54,332.3415" style="fill:none;stroke:black;stroke-width:1" />
  <polyline points="34.54,314.1144 30.54,314.1144" style="fill:none;stroke:black;stroke-width:1" />
  <polyline points="34.54,277.6602 30.54,277.6602" style="fill:none;stroke:black;stroke-width:1" />
  <polyline points="34.54,259.433 30.54,259.433" style="fill:none;stroke:black;stroke-width:1" />
  <polyline points="34.54,241.2059 30.54,241.2059" style="fill:none;stroke:black;stroke-width:1" />
  <polyline points="34.54,204.7517 30.54,204.7517" style="fill:none;stroke:black;stroke-width:1" />
  <polyline points="34.54,186.5245 30.54,186.5245" style="fill:none;stroke:black;stroke-width:1" />
  <polyline points="34.54,168.2974 30.54,168.2974" style="fill:none;stroke:black;stroke-width:1" />
  <polyline points="34.54,131.8431 30.54,131.8431" style="fill:none;stroke:black;stroke-width:1" />
  <polyline points="34.54,113.616 30.54,113.616" style="fill:none;stroke:black;stroke-width:1" />
  <polyline points="34.54,95.3889 30.54,95.3889" style="fill:none;stroke:black;stroke-width:1" />
  <polyline points="34.54,58.9346 30.54,58.9346" style="fill:none;stroke:black;stroke-width:1" />
  <polyline points="34.54,40.7075 30.54,40.7075" style="fill:none;stroke:black;stroke-width:1" />
  <polyline points="34.54,22.4804 30.54,22.4804" style="fill:none;stroke:black;stroke-width:1" />
  <polyline points="63.8263,365.04 63.8263,369.04" style="fill:none;stroke:black;stroke-width:1" />
  <polyline points="80.4466,365.04 80.4466,369.04" style="fill:none;stroke:black;stroke-width:1" />
  <polyline points="97.0669,365.04 97.0669,369.04" style="fill:none;stroke:black;stroke-width:1" />
  <polyline points="130.3076,365.04 130.3076,369.04" style="fill:none;stroke:black;stroke-width:1" />
  <polyline points="146.9279,365.04 146.9279,369.04" style="fill:none;stroke:black;stroke-width:1" />
  <polyline points="163.5482,365.04 163.5482,369.04" style="fill:none;stroke:black;stroke-width:1" />
  <polyline points="196.7888,365.04 196.7888,369.04" style="fill:none;stroke:black;stroke-width:1" />
  <polyline points="213.4091,365.04 213.4091,369.04" style="fill:none;stroke:black;stroke-width:1" />
  <polyline points="230.0294,365.04 230.0294,369.04" style="fill:none;stroke:black;stroke-width:1" />
  <polyline points="263.27,365.04 263.27,369.04" style="fill:none;stroke:black;stroke-width:1" />
  <polyline points="279.8904,365.04 279.8904,369.04" style="fill:none;stroke:black;stroke-width:1" />
  <polyline points="296.5107,365.04 296.5107,369.04" style="fill:none;stroke:black;stroke-width:1" />
  <polyline points="329.7513,365.04 329.7513,369.04" style="fill:none;stroke:black;stroke-width:1" />
  <polyline points="346.3716,365.04 346.3716,369.04" style="fill:none;stroke:black;stroke-width:1" />
  <polyline points="362.9919,365.04 362.9919,369.04" style="fill:none;stroke:black;stroke-width:1" />
  <polyline points="396.2325,365.04 396.2325,369.04" style="fill:none;stroke:black;stroke-width:1" />
  <polyline points="412.8528,365.04 412.8528,369.04" style="fill:none;stroke:black;stroke-width:1" />
  <polyline points="429.4732,365.04 429.4732,369.04" style="fill:none;stroke:black;stroke-width:1" />
  <polyline points="462.7138,365.04 462.7138,369.04" style="fill:none;stroke:black;stroke-width:1" />
  <polyline points="479.3341,365.04 479.3341,369.04" style="fill:none;stroke:black;stroke-width:1" />
  <polyline points="495.9544,365.04 495.9544,369.04" style="fill:none;stroke:black;stroke-width:1" />
  <polyline points="529.195,365.04 529.195,369.04" style="fill:none;stroke:black;stroke-width:1" />
  <polyline points="545.8153,365.04 545.8153,369.04" style="fill:none;stroke:black;stroke-width:1" />
  <polyline points="562.4356,365.04 562.4356,369.04" style="fill:none;stroke:black;stroke-width:1" />
  <text dominant-baseline="middle" text-anchor="end" transform="translate(23.54,295.8873)" font-family="Segoe UI" font-size="12" font-weight="400" fill="black">0.2</text>
  <text dominant-baseline="middle" text-anchor="end" transform="translate(23.54,222.9788)" font-family="Segoe UI" font-size="12" font-weight="400" fill="black">0.4</text>
  <text dominant-baseline="middle" text-anchor="end" transform="translate(23.54,150.0703)" font-family="Segoe UI" font-size="12" font-weight="400" fill="black">0.6</text>
  <text dominant-baseline="middle" text-anchor="end" transform="translate(23.54,77.1618)" font-family="Segoe UI" font-size="12" font-weight="400" fill="black">0.8</text>
  <polyline points="34.54,295.8873 27.54,295.8873" style="fill:none;stroke:black;stroke-width:1" />
  <polyline points="34.54,222.9788 27.54,222.9788" style="fill:none;stroke:black;stroke-width:1" />
  <polyline points="34.54,150.0703 27.54,150.0703" style="fill:none;stroke:black;stroke-width:1" />
  <polyline points="34.54,77.1618 27.54,77.1618" style="fill:none;stroke:black;stroke-width:1" />
  <text dominant-baseline="hanging" text-anchor="middle" transform="translate(47.206,376.04)" font-family="Segoe UI" font-size="12" font-weight="400" fill="black">-8</text>
  <text dominant-baseline="hanging" text-anchor="middle" transform="translate(113.6872,376.04)" font-family="Segoe UI" font-size="12" font-weight="400" fill="black">-6</text>
  <text dominant-baseline="hanging" text-anchor="middle" transform="translate(180.1685,376.04)" font-family="Segoe UI" font-size="12" font-weight="400" fill="black">-4</text>
  <text dominant-baseline="hanging" text-anchor="middle" transform="translate(246.6497,376.04)" font-family="Segoe UI" font-size="12" font-weight="400" fill="black">-2</text>
  <text dominant-baseline="hanging" text-anchor="middle" transform="translate(313.131,376.04)" font-family="Segoe UI" font-size="12" font-weight="400" fill="black">0</text>
  <text dominant-baseline="hanging" text-anchor="middle" transform="translate(379.6122,376.04)" font-family="Segoe UI" font-size="12" font-weight="400" fill="black">2</text>
  <text dominant-baseline="hanging" text-anchor="middle" transform="translate(446.0935,376.04)" font-family="Segoe UI" font-size="12" font-weight="400" fill="black">4</text>
  <text dominant-baseline="hanging" text-anchor="middle" transform="translate(512.5747,376.04)" font-family="Segoe UI" font-size="12" font-weight="400" fill="black">6</text>
  <text dominant-baseline="hanging" text-anchor="middle" transform="translate(579.056,376.04)" font-family="Segoe UI" font-size="12" font-weight="400" fill="black">8</text>
  <polyline points="47.206,365.04 47.206,372.04" style="fill:none;stroke:black;stroke-width:1" />
  <polyline points="113.6872,365.04 113.6872,372.04" style="fill:none;stroke:black;stroke-width:1" />
  <polyline points="180.1685,365.04 180.1685,372.04" style="fill:none;stroke:black;stroke-width:1" />
  <polyline points="246.6497,365.04 246.6497,372.04" style="fill:none;stroke:black;stroke-width:1" />
  <polyline points="313.131,365.04 313.131,372.04" style="fill:none;stroke:black;stroke-width:1" />
  <polyline points="379.6122,365.04 379.6122,372.04" style="fill:none;stroke:black;stroke-width:1" />
  <polyline points="446.0935,365.04 446.0935,372.04" style="fill:none;stroke:black;stroke-width:1" />
  <polyline points="512.5747,365.04 512.5747,372.04" style="fill:none;stroke:black;stroke-width:1" />
  <polyline points="579.056,365.04 579.056,372.04" style="fill:none;stroke:black;stroke-width:1" />
  <polyline points="236.1667,365.04 236.5115,364.9377 237.5087,364.6207 238.5059,364.2812 239.5031,363.9182 240.5004,363.5301 241.4976,363.1158 242.4948,362.6739 243.492,362.2028 244.4892,361.7012 245.4865,361.1675 246.4837,360.6002 247.4809,359.9978 248.4781,359.3586 249.4753,358.681 250.4725,357.9633 251.4698,357.2039 252.467,356.401 253.4642,355.553 254.4614,354.658 255.4586,353.7144 256.4559,352.7203 257.4531,351.6741 258.4503,350.574 259.4475,349.4182 260.4447,348.2051 261.442,346.9329 262.4392,345.5999 263.4364,344.2046 264.4336,342.7452 265.4308,341.2203 266.428,339.6283 267.4253,337.9678 268.4225,336.2373 269.4197,334.4356 270.4169,332.5614 271.4141,330.6136 272.4114,328.591 273.4086,326.4927 274.4058,324.3178 275.403,322.0656 276.4002,319.7354 277.3975,317.3266 278.3947,314.839 279.3919,312.272 280.3891,309.6258 281.3863,306.9001 282.3835,304.0953 283.3808,301.2115 284.378,298.2493 285.3752,295.2092 286.3724,292.092 287.3696,288.8986 288.3669,285.6301 289.3641,282.2877 290.3613,278.8729 291.3585,275.3871 292.3557,271.8322 293.353,268.2101 294.3502,264.5226 295.3474,260.7722 296.3446,256.9611 297.3418,253.0918 298.339,249.167 299.3363,245.1894 300.3335,241.162 301.3307,237.0879 302.3279,232.9701 303.3251,228.812 304.3224,224.6169 305.3196,220.3883 306.3168,216.1298 307.314,211.8451 308.3112,207.5378 309.3084,203.2117 310.3057,198.8707 311.3029,194.5186 312.3001,190.1593 313.2973,185.7967 314.2945,181.4348 315.2918,177.0775 316.289,172.7287 317.2862,168.3922 318.2834,164.072 319.2806,159.7718 320.2779,155.4954 321.2751,151.2465 322.2723,147.0287 323.2695,142.8456 324.2667,138.7005 325.2639,134.5969 326.2612,130.538 327.2584,126.5269 328.2556,122.5666 329.2528,118.6601 330.25,114.8099 331.2473,111.0187 332.2445,107.2891 333.2417,103.6232 334.2389,100.0232 335.2361,96.4912 336.2334,93.0289 337.2306,89.6381 338.2278,86.3202 339.225,83.0766 340.2222,79.9086 341.2194,76.817 342.2167,73.8028 343.2139,70.8667 344.2111,68.0092 345.2083,65.2308 346.2055,62.5316 347.2028,59.9118 348.2,57.3714 349.1972,54.91 350.1944,52.5275 351.1916,50.2234 352.1889,47.9971 353.1861,45.8478 354.1833,43.7749 355.1805,41.7774 356.1777,39.8542 357.1749,38.0044 358.1722,36.2266 359.1694,34.5196 360.1666,32.8821 361.1638,31.3126 362.161,29.8098 363.1583,28.3719 364.1555,26.9976 365.1527,25.685 366.1499,24.4327 367.1471,23.2389 368.1444,22.1019 369.1416,21.02 370.1388,19.9914 371.136,19.0143 372.1332,18.0871 373.1304,17.208 374.1277,16.3752 375.1249,15.587 376.1221,14.8417 377.1193,14.1376 378.1165,13.473 379.1138,12.8462 380.111,12.2557 381.1082,11.6998 382.1054,11.177 383.1026,10.6858 384.0998,10.2246 385.0971,9.792 386.0943,9.3866 387.0915,9.0071 388.0887,8.652 389.0859,8.3202 390.0832,8.0104" style="fill:none;stroke:rgb(255,0,255);stroke-width:5;stroke-linejoin:bevel" />
  <polyline points="159.2136,365.04 159.7256,364.9632 160.7229,364.8083 161.7201,364.6479 162.7173,364.482 163.7145,364.3104 164.7117,364.1329 165.709,363.9494 166.7062,363.7596 167.7034,363.5635 168.7006,363.3608 169.6978,363.1514 170.6951,362.9352 171.6923,362.7118 172.6895,362.4812 173.6867,362.2432 174.6839,361.9976 175.6811,361.7442 176.6784,361.4828 177.6756,361.2133 178.6728,360.9354 179.67,360.6489 180.6672,360.3536 181.6645,360.0494 182.6617,359.7361 183.6589,359.4134 184.6561,359.0811 185.6533,358.739 186.6506,358.387 187.6478,358.0248 188.645,357.6521 189.6422,357.2689 190.6394,356.8748 191.6366,356.4697 192.6339,356.0533 193.6311,355.6255 194.6283,355.186 195.6255,354.7345 196.6227,354.2709 197.62,353.795 198.6172,353.3065 199.6144,352.8052 200.6116,352.2909 201.6088,351.7634 202.6061,351.2225 203.6033,350.6679 204.6005,350.0994 205.5977,349.5168 206.5949,348.9199 207.5921,348.3085 208.5894,347.6824 209.5866,347.0413 210.5838,346.3851 211.581,345.7135 212.5782,345.0263 213.5755,344.3234 214.5727,343.6045 215.5699,342.8694 216.5671,342.118 217.5643,341.35 218.5615,340.5653 219.5588,339.7637 220.556,338.9449 221.5532,338.1089 222.5504,337.2554 223.5476,336.3843 224.5449,335.4954 225.5421,334.5886 226.5393,333.6637 227.5365,332.7205 228.5337,331.759 229.531,330.7789 230.5282,329.7801 231.5254,328.7626 232.5226,327.7261 233.5198,326.6706 234.517,325.596 235.5143,324.5022 236.5115,323.389 237.5087,322.2564 238.5059,321.1044 239.5031,319.9327 240.5004,318.7415 241.4976,317.5306 242.4948,316.2999 243.492,315.0495 244.4892,313.7792 245.4865,312.4892 246.4837,311.1793 247.4809,309.8495 248.4781,308.4999 249.4753,307.1305 250.4725,305.7413 251.4698,304.3323 252.467,302.9035 253.4642,301.4551 254.4614,299.987 255.4586,298.4994 256.4559,296.9922 257.4531,295.4657 258.4503,293.9199 259.4475,292.3549 260.4447,290.7709 261.442,289.1678 262.4392,287.546 263.4364,285.9055 264.4336,284.2466 265.4308,282.5693 266.428,280.8738 267.4253,279.1604 268.4225,277.4293 269.4197,275.6805 270.4169,273.9145 271.4141,272.1313 272.4114,270.3313 273.4086,268.5147 274.4058,266.6817 275.403,264.8326 276.4002,262.9678 277.3975,261.0874 278.3947,259.1918 279.3919,257.2812 280.3891,255.3561 281.3863,253.4167 282.3835,251.4633 283.3808,249.4964 284.378,247.5162 285.3752,245.5231 286.3724,243.5175 287.3696,241.4998 288.3669,239.4703 289.3641,237.4294 290.3613,235.3776 291.3585,233.3151 292.3557,231.2426 293.353,229.1602 294.3502,227.0686 295.3474,224.9681 296.3446,222.8592 297.3418,220.7422 298.339,218.6177 299.3363,216.4861 300.3335,214.3478 301.3307,212.2034 302.3279,210.0532 303.3251,207.8978 304.3224,205.7376 305.3196,203.5732 306.3168,201.4049 307.314,199.2332 308.3112,197.0588 309.3084,194.8819 310.3057,192.7032 311.3029,190.5231 312.3001,188.3421 313.2973,186.1606 314.2945,183.9793 315.2918,181.7985 316.289,179.6188 317.2862,177.4407 318.2834,175.2645 319.2806,173.091 320.2779,170.9204 321.2751,168.7533 322.2723,166.5902 323.2695,164.4316 324.2667,162.2779 325.2639,160.1296 326.2612,157.9871 327.2584,155.8511 328.2556,153.7218 329.2528,151.5997 330.25,149.4854 331.2473,147.3792 332.2445,145.2816 333.2417,143.193 334.2389,141.1139 335.2361,139.0447 336.2334,136.9858 337.2306,134.9375 338.2278,132.9004 339.225,130.8748 340.2222,128.861 341.2194,126.8596 342.2167,124.8708 343.2139,122.8949 344.2111,120.9325 345.2083,118.9838 346.2055,117.0491 347.2028,115.1288 348.2,113.2232 349.1972,111.3326 350.1944,109.4574 351.1916,107.5977 352.1889,105.754 353.1861,103.9265 354.1833,102.1153 355.1805,100.3209 356.1777,98.5435 357.1749,96.7832 358.1722,95.0403 359.1694,93.315 360.1666,91.6076 361.1638,89.9182 362.161,88.247 363.1583,86.5941 364.1555,84.9599 365.1527,83.3443 366.1499,81.7476 367.1471,80.1699 368.1444,78.6113 369.1416,77.0719 370.1388,75.5518 371.136,74.0512 372.1332,72.5701 373.1304,71.1086 374.1277,69.6667 375.1249,68.2445 376.1221,66.8421 377.1193,65.4595 378.1165,64.0967 379.1138,62.7537 380.111,61.4306 381.1082,60.1273 382.1054,58.8438 383.1026,57.5802 384.0998,56.3364 385.0971,55.1123 386.0943,53.9079 387.0915,52.7232 388.0887,51.5582 389.0859,50.4126 390.0832,49.2865 391.0804,48.1798 392.0776,47.0924 393.0748,46.0242 394.072,44.9751 395.0693,43.9449 396.0665,42.9337 397.0637,41.9411 398.0609,40.9672 399.0581,40.0118 400.0553,39.0748 401.0526,38.1559 402.0498,37.2551 403.047,36.3721 404.0442,35.5069 405.0414,34.6593 406.0387,33.8291 407.0359,33.016 408.0331,32.2201 409.0303,31.441 410.0275,30.6785 411.0248,29.9326 412.022,29.2029 413.0192,28.4894 414.0164,27.7918 415.0136,27.1098 416.0108,26.4434 417.0081,25.7922 418.0053,25.1561 419.0025,24.5349 419.9997,23.9284 420.9969,23.3363 421.9942,22.7584 422.9914,22.1946 423.9886,21.6446 424.9858,21.1081 425.983,20.5851 426.9803,20.0752 427.9775,19.5782 428.9747,19.0939 429.9719,18.6221 430.9691,18.1626 431.9663,17.7151 432.9636,17.2795 433.9608,16.8555 434.958,16.4429 435.9552,16.0415 436.9524,15.6511 437.9497,15.2714 438.9469,14.9023 439.9441,14.5435 440.9413,14.1948 441.9385,13.856 442.9358,13.527 443.933,13.2074 444.9302,12.8971 445.9274,12.5959 446.9246,12.3036 447.9218,12.02 448.9191,11.7449 449.9163,11.4781 450.9135,11.2194 451.9107,10.9686 452.9079,10.7256 453.9052,10.4901 454.9024,10.2619 455.8996,10.041 456.8968,9.827 457.894,9.6199 458.8913,9.4194 459.8885,9.2254 460.8857,9.0378 461.8829,8.8562 462.8801,8.6807 463.8773,8.511 464.8746,8.347 465.8718,8.1885" style="fill:none;stroke:black;stroke-width:5;stroke-linejoin:bevel" />
  <polyline points="82.2589,365.04 82.9398,364.9716 83.937,364.8691 84.9342,364.7643 85.9315,364.657 86.9287,364.5472 87.9259,364.435 88.9231,364.3201 89.9203,364.2027 90.9176,364.0826 91.9148,363.9597 92.912,363.8342 93.9092,363.7058 94.9064,363.5746 95.9037,363.4404 96.9009,363.3033 97.8981,363.1632 98.8953,363.0201 99.8925,362.8738 100.8897,362.7244 101.887,362.5718 102.8842,362.4159 103.8814,362.2567 104.8786,362.0941 105.8758,361.928 106.8731,361.7585 107.8703,361.5855 108.8675,361.4088 109.8647,361.2285 110.8619,361.0445 111.8592,360.8567 112.8564,360.665 113.8536,360.4695 114.8508,360.2701 115.848,360.0666 116.8452,359.8591 117.8425,359.6474 118.8397,359.4316 119.8369,359.2115 120.8341,358.9871 121.8313,358.7583 122.8286,358.5251 123.8258,358.2874 124.823,358.0452 125.8202,357.7983 126.8174,357.5468 127.8146,357.2905 128.8119,357.0294 129.8091,356.7634 130.8063,356.4925 131.8035,356.2166 132.8007,355.9357 133.798,355.6496 134.7952,355.3583 135.7924,355.0618 136.7896,354.7599 137.7868,354.4527 138.7841,354.14 139.7813,353.8218 140.7785,353.498 141.7757,353.1686 142.7729,352.8334 143.7701,352.4925 144.7674,352.1458 145.7646,351.7931 146.7618,351.4345 147.759,351.0698 148.7562,350.6991 149.7535,350.3222 150.7507,349.939 151.7479,349.5496 152.7451,349.1538 153.7423,348.7516 154.7396,348.3429 155.7368,347.9277 156.734,347.5058 157.7312,347.0773 158.7284,346.6421 159.7256,346.2001 160.7229,345.7512 161.7201,345.2954 162.7173,344.8327 163.7145,344.3629 164.7117,343.886 165.709,343.402 166.7062,342.9107 167.7034,342.4122 168.7006,341.9064 169.6978,341.3932 170.6951,340.8725 171.6923,340.3444 172.6895,339.8087 173.6867,339.2654 174.6839,338.7145 175.6811,338.1558 176.6784,337.5895 177.6756,337.0153 178.6728,336.4332 179.67,335.8433 180.6672,335.2454 181.6645,334.6395 182.6617,334.0256 183.6589,333.4036 184.6561,332.7734 185.6533,332.1351 186.6506,331.4886 187.6478,330.8338 188.645,330.1708 189.6422,329.4994 190.6394,328.8196 191.6366,328.1315 192.6339,327.4349 193.6311,326.7298 194.6283,326.0162 195.6255,325.2942 196.6227,324.5635 197.62,323.8243 198.6172,323.0764 199.6144,322.3199 200.6116,321.5548 201.6088,320.7809 202.6061,319.9984 203.6033,319.2072 204.6005,318.4072 205.5977,317.5984 206.5949,316.7809 207.5921,315.9546 208.5894,315.1195 209.5866,314.2756 210.5838,313.4229 211.581,312.5614 212.5782,311.6911 213.5755,310.8119 214.5727,309.924 215.5699,309.0272 216.5671,308.1216 217.5643,307.2072 218.5615,306.2839 219.5588,305.3519 220.556,304.4111 221.5532,303.4615 222.5504,302.5032 223.5476,301.5361 224.5449,300.5603 225.5421,299.5758 226.5393,298.5826 227.5365,297.5807 228.5337,296.5702 229.531,295.5511 230.5282,294.5234 231.5254,293.4872 232.5226,292.4424 233.5198,291.3892 234.517,290.3275 235.5143,289.2575 236.5115,288.179 237.5087,287.0923 238.5059,285.9973 239.5031,284.894 240.5004,283.7826 241.4976,282.663 242.4948,281.5354 243.492,280.3998 244.4892,279.2562 245.4865,278.1047 246.4837,276.9453 247.4809,275.7782 248.4781,274.6034 249.4753,273.421 250.4725,272.2309 251.4698,271.0334 252.467,269.8284 253.4642,268.6161 254.4614,267.3965 255.4586,266.1698 256.4559,264.9359 257.4531,263.6949 258.4503,262.4471 259.4475,261.1923 260.4447,259.9308 261.442,258.6626 262.4392,257.3878 263.4364,256.1066 264.4336,254.8189 265.4308,253.5249 266.428,252.2247 267.4253,250.9184 268.4225,249.6061 269.4197,248.2879 270.4169,246.9639 271.4141,245.6343 272.4114,244.299 273.4086,242.9583 274.4058,241.6123 275.403,240.261 276.4002,238.9046 277.3975,237.5432 278.3947,236.1769 279.3919,234.8058 280.3891,233.4301 281.3863,232.0498 282.3835,230.6652 283.3808,229.2763 284.378,227.8832 285.3752,226.4861 286.3724,225.0851 287.3696,223.6804 288.3669,222.272 289.3641,220.8601 290.3613,219.4449 291.3585,218.0264 292.3557,216.6048 293.353,215.1802 294.3502,213.7528 295.3474,212.3228 296.3446,210.8901 297.3418,209.4551 298.339,208.0178 299.3363,206.5784 300.3335,205.1369 301.3307,203.6936 302.3279,202.2486 303.3251,200.8021 304.3224,199.3541 305.3196,197.9048 306.3168,196.4544 307.314,195.003 308.3112,193.5508 309.3084,192.0978 310.3057,190.6443 311.3029,189.1904 312.3001,187.7362 313.2973,186.2819 314.2945,184.8277 315.2918,183.3735 316.289,181.9198 317.2862,180.4664 318.2834,179.0137 319.2806,177.5617 320.2779,176.1106 321.2751,174.6606 322.2723,173.2117 323.2695,171.7642 324.2667,170.3182 325.2639,168.8737 326.2612,167.431 327.2584,165.9902 328.2556,164.5515 329.2528,163.1149 330.25,161.6807 331.2473,160.2489 332.2445,158.8197 333.2417,157.3932 334.2389,155.9697 335.2361,154.5491 336.2334,153.1317 337.2306,151.7175 338.2278,150.3068 339.225,148.8996 340.2222,147.4961 341.2194,146.0964 342.2167,144.7006 343.2139,143.3089 344.2111,141.9214 345.2083,140.5382 346.2055,139.1595 347.2028,137.7853 348.2,136.4158 349.1972,135.0511 350.1944,133.6914 351.1916,132.3367 352.1889,130.9871 353.1861,129.6428 354.1833,128.3039 355.1805,126.9705 356.1777,125.6428 357.1749,124.3207 358.1722,123.0045 359.1694,121.6942 360.1666,120.3899 361.1638,119.0918 362.161,117.7999 363.1583,116.5143 364.1555,115.2352 365.1527,113.9626 366.1499,112.6966 367.1471,111.4374 368.1444,110.1849 369.1416,108.9393 370.1388,107.7007 371.136,106.4692 372.1332,105.2448 373.1304,104.0276 374.1277,102.8178 375.1249,101.6153 376.1221,100.4203 377.1193,99.2328 378.1165,98.0528 379.1138,96.8806 380.111,95.7161 381.1082,94.5593 382.1054,93.4105 383.1026,92.2695 384.0998,91.1366 385.0971,90.0116 386.0943,88.8948 387.0915,87.7861 388.0887,86.6856 389.0859,85.5933 390.0832,84.5093 391.0804,83.4336 392.0776,82.3664 393.0748,81.3075 394.072,80.2571 395.0693,79.2152 396.0665,78.1818 397.0637,77.157 398.0609,76.1407 399.0581,75.1331 400.0553,74.1341 401.0526,73.1438 402.0498,72.1622 403.047,71.1893 404.0442,70.2251 405.0414,69.2697 406.0387,68.3231 407.0359,67.3852 408.0331,66.4561 409.0303,65.5358 410.0275,64.6244 411.0248,63.7217 412.022,62.8278 413.0192,61.9428 414.0164,61.0666 415.0136,60.1992 416.0108,59.3407 417.0081,58.4909 418.0053,57.65 419.0025,56.8178 419.9997,55.9944 420.9969,55.1798 421.9942,54.374 422.9914,53.5769 423.9886,52.7886 424.9858,52.009 425.983,51.238 426.9803,50.4758 427.9775,49.7222 428.9747,48.9772 429.9719,48.2408 430.9691,47.513 431.9663,46.7938 432.9636,46.0831 433.9608,45.3808 434.958,44.6871 435.9552,44.0017 436.9524,43.3247 437.9497,42.6561 438.9469,41.9958 439.9441,41.3438 440.9413,40.7 441.9385,40.0645 442.9358,39.437 443.933,38.8177 444.9302,38.2065 445.9274,37.6033 446.9246,37.0081 447.9218,36.4208 448.9191,35.8413 449.9163,35.2698 450.9135,34.706 451.9107,34.1499 452.9079,33.6015 453.9052,33.0608 454.9024,32.5276 455.8996,32.002 456.8968,31.4839 457.894,30.9731 458.8913,30.4697 459.8885,29.9736 460.8857,29.4848 461.8829,29.0032 462.8801,28.5287 463.8773,28.0612 464.8746,27.6008 465.8718,27.1473 466.869,26.7007 467.8662,26.261 468.8634,25.828 469.8607,25.4017 470.8579,24.9821 471.8551,24.5691 472.8523,24.1626 473.8495,23.7625 474.8467,23.3688 475.844,22.9815 476.8412,22.6005 477.8384,22.2256 478.8356,21.8569 479.8328,21.4942 480.8301,21.1376 481.8273,20.7869 482.8245,20.4421 483.8217,20.1032 484.8189,19.7699 485.8162,19.4424 486.8134,19.1205 487.8106,18.8041 488.8078,18.4933 489.805,18.1878 490.8022,17.8878 491.7995,17.593 492.7967,17.3034 493.7939,17.0191 494.7911,16.7398 495.7883,16.4656 496.7856,16.1963 497.7828,15.932 498.78,15.6725 499.7772,15.4178 500.7744,15.1679 501.7717,14.9225 502.7689,14.6818 503.7661,14.4456 504.7633,14.2139 505.7605,13.9866 506.7577,13.7637 507.755,13.545 508.7522,13.3306 509.7494,13.1203 510.7466,12.9141 511.7438,12.712 512.7411,12.5139 513.7383,12.3197 514.7355,12.1293 515.7327,11.9428 516.7299,11.76 517.7272,11.5809 518.7244,11.4055 519.7216,11.2336 520.7188,11.0652 521.716,10.9004 522.7132,10.7389 523.7105,10.5808 524.7077,10.426 525.7049,10.2744 526.7021,10.1261 527.6993,9.9809 528.6966,9.8387 529.6938,9.6996 530.691,9.5635 531.6882,9.4304 532.6854,9.3001 533.6827,9.1727 534.6799,9.048 535.6771,8.9261 536.6743,8.8069 537.6715,8.6903 538.6687,8.5763 539.666,8.4649 540.6632,8.356 541.6604,8.2495 542.6576,8.1455 543.6548,8.0438" style="fill:none;stroke:rgb(30,144,255);stroke-width:5;stroke-linejoin:bevel" />
  <polyline points="40.0594,361.505 41.0566,361.3715 42.0538,361.2361 43.0511,361.0985 44.0483,360.9589 45.0455,360.8171 46.0427,360.6731 47.0399,360.527 48.0372,360.3786 49.0344,360.228 50.0316,360.0752 51.0288,359.92 52.026,359.7626 53.0232,359.6028 54.0205,359.4407 55.0177,359.2761 56.0149,359.1092 57.0121,358.9398 58.0093,358.7679 59.0066,358.5936 60.0038,358.4167 61.001,358.2373 61.9982,358.0554 62.9954,357.8708 63.9927,357.6836 64.9899,357.4938 65.9871,357.3013 66.9843,357.1061 67.9815,356.9081 68.9787,356.7074 69.976,356.5039 70.9732,356.2976 71.9704,356.0885 72.9676,355.8765 73.9648,355.6616 74.9621,355.4438 75.9593,355.2231 76.9565,354.9993 77.9537,354.7726 78.9509,354.5429 79.9482,354.3101 80.9454,354.0742 81.9426,353.8352 82.9398,353.593 83.937,353.3477 84.9342,353.0992 85.9315,352.8475 86.9287,352.5926 87.9259,352.3343 88.9231,352.0728 89.9203,351.8079 90.9176,351.5397 91.9148,351.2681 92.912,350.9931 93.9092,350.7147 94.9064,350.4327 95.9037,350.1473 96.9009,349.8584 97.8981,349.5659 98.8953,349.2699 99.8925,348.9703 100.8897,348.667 101.887,348.3601 102.8842,348.0495 103.8814,347.7352 104.8786,347.4171 105.8758,347.0953 106.8731,346.7698 107.8703,346.4404 108.8675,346.1072 109.8647,345.7701 110.8619,345.4291 111.8592,345.0842 112.8564,344.7354 113.8536,344.3826 114.8508,344.0258 115.848,343.665 116.8452,343.3002 117.8425,342.9313 118.8397,342.5584 119.8369,342.1813 120.8341,341.8001 121.8313,341.4147 122.8286,341.0252 123.8258,340.6314 124.823,340.2334 125.8202,339.8312 126.8174,339.4247 127.8146,339.0139 128.8119,338.5988 129.8091,338.1793 130.8063,337.7555 131.8035,337.3273 132.8007,336.8947 133.798,336.4577 134.7952,336.0162 135.7924,335.5703 136.7896,335.1199 137.7868,334.6649 138.7841,334.2055 139.7813,333.7415 140.7785,333.273 141.7757,332.7999 142.7729,332.3222 143.7701,331.8399 144.7674,331.3529 145.7646,330.8613 146.7618,330.3651 147.759,329.8641 148.7562,329.3585 149.7535,328.8481 150.7507,328.3331 151.7479,327.8133 152.7451,327.2887 153.7423,326.7594 154.7396,326.2253 155.7368,325.6864 156.734,325.1427 157.7312,324.5941 158.7284,324.0408 159.7256,323.4826 160.7229,322.9195 161.7201,322.3516 162.7173,321.7789 163.7145,321.2012 164.7117,320.6187 165.709,320.0312 166.7062,319.4389 167.7034,318.8416 168.7006,318.2394 169.6978,317.6323 170.6951,317.0203 171.6923,316.4033 172.6895,315.7814 173.6867,315.1545 174.6839,314.5227 175.6811,313.8859 176.6784,313.2442 177.6756,312.5975 178.6728,311.9459 179.67,311.2893 180.6672,310.6277 181.6645,309.9612 182.6617,309.2897 183.6589,308.6132 184.6561,307.9318 185.6533,307.2455 186.6506,306.5542 187.6478,305.8579 188.645,305.1567 189.6422,304.4505 190.6394,303.7394 191.6366,303.0234 192.6339,302.3025 193.6311,301.5766 194.6283,300.8459 195.6255,300.1102 196.6227,299.3696 197.62,298.6242 198.6172,297.8739 199.6144,297.1187 200.6116,296.3587 201.6088,295.5938 202.6061,294.8241 203.6033,294.0496 204.6005,293.2703 205.5977,292.4862 206.5949,291.6973 207.5921,290.9037 208.5894,290.1053 209.5866,289.3023 210.5838,288.4945 211.581,287.682 212.5782,286.8649 213.5755,286.0431 214.5727,285.2167 215.5699,284.3856 216.5671,283.55 217.5643,282.7099 218.5615,281.8652 219.5588,281.0159 220.556,280.1622 221.5532,279.304 222.5504,278.4414 223.5476,277.5743 224.5449,276.7029 225.5421,275.8271 226.5393,274.9469 227.5365,274.0624 228.5337,273.1737 229.531,272.2807 230.5282,271.3835 231.5254,270.4821 232.5226,269.5765 233.5198,268.6668 234.517,267.7531 235.5143,266.8352 236.5115,265.9133 237.5087,264.9875 238.5059,264.0576 239.5031,263.1239 240.5004,262.1863 241.4976,261.2448 242.4948,260.2995 243.492,259.3504 244.4892,258.3976 245.4865,257.4411 246.4837,256.481 247.4809,255.5172 248.4781,254.5499 249.4753,253.579 250.4725,252.6046 251.4698,251.6268 252.467,250.6456 253.4642,249.661 254.4614,248.6731 255.4586,247.6819 256.4559,246.6874 257.4531,245.6898 258.4503,244.6891 259.4475,243.6853 260.4447,242.6784 261.442,241.6685 262.4392,240.6557 263.4364,239.64 264.4336,238.6214 265.4308,237.6 266.428,236.5759 267.4253,235.5491 268.4225,234.5196 269.4197,233.4875 270.4169,232.4529 271.4141,231.4158 272.4114,230.3762 273.4086,229.3343 274.4058,228.29 275.403,227.2434 276.4002,226.1946 277.3975,225.1436 278.3947,224.0905 279.3919,223.0354 280.3891,221.9782 281.3863,220.9191 282.3835,219.858 283.3808,218.7952 284.378,217.7305 285.3752,216.6641 286.3724,215.5961 287.3696,214.5264 288.3669,213.4552 289.3641,212.3825 290.3613,211.3083 291.3585,210.2328 292.3557,209.1559 293.353,208.0778 294.3502,206.9985 295.3474,205.918 296.3446,204.8364 297.3418,203.7538 298.339,202.6703 299.3363,201.5859 300.3335,200.5006 301.3307,199.4145 302.3279,198.3277 303.3251,197.2402 304.3224,196.1522 305.3196,195.0636 306.3168,193.9745 307.314,192.885 308.3112,191.7951 309.3084,190.7049 310.3057,189.6146 311.3029,188.524 312.3001,187.4333 313.2973,186.3426 314.2945,185.2519 315.2918,184.1612 316.289,183.0707 317.2862,181.9804 318.2834,180.8903 319.2806,179.8006 320.2779,178.7112 321.2751,177.6223 322.2723,176.5338 323.2695,175.446 324.2667,174.3587 325.2639,173.2721 326.2612,172.1863 327.2584,171.1013 328.2556,170.0171 329.2528,168.9339 330.25,167.8517 331.2473,166.7705 332.2445,165.6904 333.2417,164.6114 334.2389,163.5337 335.2361,162.4573 336.2334,161.3822 337.2306,160.3085 338.2278,159.2363 339.225,158.1656 340.2222,157.0965 341.2194,156.029 342.2167,154.9632 343.2139,153.8991 344.2111,152.8368 345.2083,151.7764 346.2055,150.7179 347.2028,149.6614 348.2,148.6069 349.1972,147.5545 350.1944,146.5043 351.1916,145.4562 352.1889,144.4104 353.1861,143.3669 354.1833,142.3257 355.1805,141.287 356.1777,140.2507 357.1749,139.2169 358.1722,138.1857 359.1694,137.1571 360.1666,136.1312 361.1638,135.1079 362.161,134.0875 363.1583,133.0699 364.1555,132.0551 365.1527,131.0433 366.1499,130.0344 367.1471,129.0285 368.1444,128.0257 369.1416,127.026 370.1388,126.0295 371.136,125.0361 372.1332,124.046 373.1304,123.0592 374.1277,122.0758 375.1249,121.0957 376.1221,120.119 377.1193,119.1458 378.1165,118.1761 379.1138,117.2099 380.111,116.2473 381.1082,115.2884 382.1054,114.3331 383.1026,113.3816 384.0998,112.4338 385.0971,111.4897 386.0943,110.5495 387.0915,109.6132 388.0887,108.6808 389.0859,107.7522 390.0832,106.8277 391.0804,105.9072 392.0776,104.9907 393.0748,104.0783 394.072,103.1699 395.0693,102.2658 396.0665,101.3658 397.0637,100.4699 398.0609,99.5784 399.0581,98.6911 400.0553,97.808 401.0526,96.9293 402.0498,96.055 403.047,95.185 404.0442,94.3194 405.0414,93.4582 406.0387,92.6015 407.0359,91.7493 408.0331,90.9016 409.0303,90.0584 410.0275,89.2197 411.0248,88.3856 412.022,87.5562 413.0192,86.7313 414.0164,85.911 415.0136,85.0955 416.0108,84.2846 417.0081,83.4783 418.0053,82.6768 419.0025,81.8801 419.9997,81.088 420.9969,80.3007 421.9942,79.5182 422.9914,78.7405 423.9886,77.9676 424.9858,77.1995 425.983,76.4363 426.9803,75.6779 427.9775,74.9243 428.9747,74.1756 429.9719,73.4318 430.9691,72.6929 431.9663,71.9588 432.9636,71.2297 433.9608,70.5055 434.958,69.7862 435.9552,69.0718 436.9524,68.3624 437.9497,67.6579 438.9469,66.9583 439.9441,66.2637 440.9413,65.574 441.9385,64.8893 442.9358,64.2096 443.933,63.5348 444.9302,62.8649 445.9274,62.2001 446.9246,61.5402 447.9218,60.8852 448.9191,60.2352 449.9163,59.5902 450.9135,58.9501 451.9107,58.315 452.9079,57.6848 453.9052,57.0596 454.9024,56.4394 455.8996,55.824 456.8968,55.2136 457.894,54.6082 458.8913,54.0076 459.8885,53.412 460.8857,52.8213 461.8829,52.2355 462.8801,51.6546 463.8773,51.0786 464.8746,50.5074 465.8718,49.9411 466.869,49.3797 467.8662,48.8231 468.8634,48.2714 469.8607,47.7245 470.8579,47.1824 471.8551,46.6451 472.8523,46.1125 473.8495,45.5848 474.8467,45.0618 475.844,44.5436 476.8412,44.0301 477.8384,43.5214 478.8356,43.0173 479.8328,42.5179 480.8301,42.0232 481.8273,41.5332 482.8245,41.0478 483.8217,40.567 484.8189,40.0908 485.8162,39.6192 486.8134,39.1522 487.8106,38.6898 488.8078,38.2318 489.805,37.7784 490.8022,37.3295 491.7995,36.8851 492.7967,36.4451 493.7939,36.0095 494.7911,35.5784 495.7883,35.1517 496.7856,34.7293 497.7828,34.3113 498.78,33.8976 499.7772,33.4883 500.7744,33.0832 501.7717,32.6824 502.7689,32.2858 503.7661,31.8935 504.7633,31.5053 505.7605,31.1213 506.7577,30.7415 507.755,30.3658 508.7522,29.9942 509.7494,29.6267 510.7466,29.2632 511.7438,28.9037 512.7411,28.5483 513.7383,28.1968 514.7355,27.8493 515.7327,27.5058 516.7299,27.1661 517.7272,26.8303 518.7244,26.4984 519.7216,26.1702 520.7188,25.8459 521.716,25.5254 522.7132,25.2086 523.7105,24.8955 524.7077,24.5862 525.7049,24.2805 526.7021,23.9784 527.6993,23.68 528.6966,23.3851 529.6938,23.0939 530.691,22.8061 531.6882,22.5219 532.6854,22.2411 533.6827,21.9638 534.6799,21.6899 535.6771,21.4195 536.6743,21.1524 537.6715,20.8886 538.6687,20.6282 539.666,20.3711 540.6632,20.1172 541.6604,19.8666 542.6576,19.6191 543.6548,19.3749 544.6521,19.1338 545.6493,18.8958 546.6465,18.661 547.6437,18.4292 548.6409,18.2005 549.6382,17.9747 550.6354,17.752 551.6326,17.5322 552.6298,17.3154 553.627,17.1015 554.6242,16.8905 555.6215,16.6823 556.6187,16.4769 557.6159,16.2744 558.6131,16.0746 559.6103,15.8776 560.6076,15.6832 561.6048,15.4916 562.602,15.3027 563.5992,15.1164 564.5964,14.9327 565.5936,14.7516 566.5909,14.573 567.5881,14.397 568.5853,14.2235 569.5825,14.0525 570.5797,13.8839 571.577,13.7178 572.5742,13.554 573.5714,13.3927 574.5686,13.2337 575.5658,13.077 576.5631,12.9226 577.5603,12.7705 578.5575,12.6207 579.5547,12.4731 580.5519,12.3277 581.5491,12.1844 582.5464,12.0434 583.5436,11.9044 584.5408,11.7675 585.538,11.6328 586.5352,11.5" style="fill:none;stroke:rgb(173,255,47);stroke-width:5;stroke-linejoin:bevel" />
  <polygon points="34.54,8 592,8 592,365.04 34.54,365.04" style="fill:none;stroke:black;stroke-width:1" />
  <polygon points="42.54,16 187.5267,16 187.5267,95.84 42.54,95.84" style="fill:none;stroke:none;" />
  <text dominant-baseline="hanging" text-anchor="start" transform="translate(70.54,24)" font-family="Segoe UI" font-size="12" font-weight="400" fill="black">Normal(μ = 0, σ = 1)</text>
  <polyline points="50.54,31.98 66.54,31.98" style="fill:none;stroke:rgb(255,0,255);stroke-width:5" />
  <text dominant-baseline="hanging" text-anchor="start" transform="translate(70.54,39.96)" font-family="Segoe UI" font-size="12" font-weight="400" fill="black">Normal(μ = 0, σ = 2)</text>
  <polyline points="50.54,47.94 66.54,47.94" style="fill:none;stroke:black;stroke-width:5" />
  <text dominant-baseline="hanging" text-anchor="start" transform="translate(70.54,55.92)" font-family="Segoe UI" font-size="12" font-weight="400" fill="black">Normal(μ = 0, σ = 3)</text>
  <polyline points="50.54,63.9 66.54,63.9" style="fill:none;stroke:rgb(30,144,255);stroke-width:5" />
  <text dominant-baseline="hanging" text-anchor="start" transform="translate(70.54,71.88)" font-family="Segoe UI" font-size="12" font-weight="400" fill="black">Normal(μ = 0, σ = 4)</text>
  <polyline points="50.54,79.86 66.54,79.86" style="fill:none;stroke:rgb(173,255,47);stroke-width:5" />
</svg>