<?xml version="1.0" encoding="utf-8" standalone="no"?>
<!DOCTYPE svg PUBLIC "-//W3C//DTD SVG 1.1//EN" "http://www.w3.org/Graphics/SVG/1.1/DTD/svg11.dtd">
<svg width="600" height="400" version="1.1" xmlns:xlink="http://www.w3.org/1999/xlink" xmlns="http://www.w3.org/2000/svg">
  <polyline points="34.54,343.9581 30.54,343.9581" style="fill:none;stroke:black;stroke-width:1" />
  <polyline points="34.54,326.4112 30.54,326.4112" style="fill:none;stroke:black;stroke-width:1" />
  <polyline points="34.54,308.8643 30.54,308.8643" style="fill:none;stroke:black;stroke-width:1" />
  <polyline points="34.54,291.3174 30.54,291.3174" style="fill:none;stroke:black;stroke-width:1" />
  <polyline points="34.54,256.2237 30.54,256.2237" style="fill:none;stroke:black;stroke-width:1" />
  <polyline points="34.54,238.6768 30.54,238.6768" style="fill:none;stroke:black;stroke-width:1" />
  <polyline points="34.54,221.1299 30.54,221.1299" style="fill:none;stroke:black;stroke-width:1" />
  <polyline points="34.54,203.5831 30.54,203.5831" style="fill:none;stroke:black;stroke-width:1" />
  <polyline points="34.54,168.4893 30.54,168.4893" style="fill:none;stroke:black;stroke-width:1" />
  <polyline points="34.54,150.9424 30.54,150.9424" style="fill:none;stroke:black;stroke-width:1" />
  <polyline points="34.54,133.3956 30.54,133.3956" style="fill:none;stroke:black;stroke-width:1" />
  <polyline points="34.54,115.8487 30.54,115.8487" style="fill:none;stroke:black;stroke-width:1" />
  <polyline points="34.54,98.3018 30.54,98.3018" style="fill:none;stroke:black;stroke-width:1" />
  <polyline points="34.54,80.7549 30.54,80.7549" style="fill:none;stroke:black;stroke-width:1" />
  <polyline points="34.54,63.2081 30.54,63.2081" style="fill:none;stroke:black;stroke-width:1" />
  <polyline points="34.54,45.6612 30.54,45.6612" style="fill:none;stroke:black;stroke-width:1" />
  <polyline points="34.54,28.1143 30.54,28.1143" style="fill:none;stroke:black;stroke-width:1" />
  <polyline points="60.5022,365.04 60.5022,369.04" style="fill:none;stroke:black;stroke-width:1" />
  <polyline points="73.7985,365.04 73.7985,369.04" style="fill:none;stroke:black;stroke-width:1" />
  <polyline points="87.0947,365.04 87.0947,369.04" style="fill:none;stroke:black;stroke-width:1" />
  <polyline points="100.391,365.04 100.391,369.04" style="fill:none;stroke:black;stroke-width:1" />
  <polyline points="126.9835,365.04 126.9835,369.04" style="fill:none;stroke:black;stroke-width:1" />
  <polyline points="140.2797,365.04 140.2797,369.04" style="fill:none;stroke:black;stroke-width:1" />
  <polyline points="153.576,365.04 153.576,369.04" style="fill:none;stroke:black;stroke-width:1" />
  <polyline points="166.8722,365.04 166.8722,369.04" style="fill:none;stroke:black;stroke-width:1" />
  <polyline points="193.4647,365.04 193.4647,369.04" style="fill:none;stroke:black;stroke-width:1" />
  <polyline points="206.761,365.04 206.761,369.04" style="fill:none;stroke:black;stroke-width:1" />
  <polyline points="220.0572,365.04 220.0572,369.04" style="fill:none;stroke:black;stroke-width:1" />
  <polyline points="233.3535,365.04 233.3535,369.04" style="fill:none;stroke:black;stroke-width:1" />
  <polyline points="259.946,365.04 259.946,369.04" style="fill:none;stroke:black;stroke-width:1" />
  <polyline points="273.2422,365.04 273.2422,369.04" style="fill:none;stroke:black;stroke-width:1" />
  <polyline points="286.5385,365.04 286.5385,369.04" style="fill:none;stroke:black;stroke-width:1" />
  <polyline points="299.8347,365.04 299.8347,369.04" style="fill:none;stroke:black;stroke-width:1" />
  <polyline points="326.4272,365.04 326.4272,369.04" style="fill:none;stroke:black;stroke-width:1" />
  <polyline points="339.7235,365.04 339.7235,369.04" style="fill:none;stroke:black;stroke-width:1" />
  <polyline points="353.0197,365.04 353.0197,369.04" style="fill:none;stroke:black;stroke-width:1" />
  <polyline points="366.316,365.04 366.316,369.04" style="fill:none;stroke:black;stroke-width:1" />
  <polyline points="392.9085,365.04 392.9085,369.04" style="fill:none;stroke:black;stroke-width:1" />
  <polyline points="406.2047,365.04 406.2047,369.04" style="fill:none;stroke:black;stroke-width:1" />
  <polyline points="419.501,365.04 419.501,369.04" style="fill:none;stroke:black;stroke-width:1" />
  <polyline points="432.7972,365.04 432.7972,369.04" style="fill:none;stroke:black;stroke-width:1" />
  <polyline points="459.3897,365.04 459.3897,369.04" style="fill:none;stroke:black;stroke-width:1" />
  <polyline points="472.686,365.04 472.686,369.04" style="fill:none;stroke:black;stroke-width:1" />
  <polyline points="485.9822,365.04 485.9822,369.04" style="fill:none;stroke:black;stroke-width:1" />
  <polyline points="499.2785,365.04 499.2785,369.04" style="fill:none;stroke:black;stroke-width:1" />
  <polyline points="525.871,365.04 525.871,369.04" style="fill:none;stroke:black;stroke-width:1" />
  <polyline points="539.1672,365.04 539.1672,369.04" style="fill:none;stroke:black;stroke-width:1" />
  <polyline points="552.4635,365.04 552.4635,369.04" style="fill:none;stroke:black;stroke-width:1" />
  <polyline points="565.7597,365.04 565.7597,369.04" style="fill:none;stroke:black;stroke-width:1" />
  <text dominant-baseline="middle" text-anchor="end" transform="translate(23.54,361.505)" font-family="Segoe UI" font-size="12" font-weight="400" fill="black">0</text>
  <text dominant-baseline="middle" text-anchor="end" transform="translate(23.54,273.7706)" font-family="Segoe UI" font-size="12" font-weight="400" fill="black">0.1</text>
  <text dominant-baseline="middle" text-anchor="end" transform="translate(23.54,186.0362)" font-family="Segoe UI" font-size="12" font-weight="400" fill="black">0.2</text>
  <text dominant-baseline="middle" text-anchor="end" transform="translate(23.54,98.3018)" font-family="Segoe UI" font-size="12" font-weight="400" fill="black">0.3</text>
  <text dominant-baseline="middle" text-anchor="end" transform="translate(23.54,10.5674)" font-family="Segoe UI" font-size="12" font-weight="400" fill="black">0.4</text>
  <polyline points="34.54,361.505 27.54,361.505" style="fill:none;stroke:black;stroke-width:1" />
  <polyline points="34.54,273.7706 27.54,273.7706" style="fill:none;stroke:black;stroke-width:1" />
  <polyline points="34.54,186.0362 27.54,186.0362" style="fill:none;stroke:black;stroke-width:1" />
  <polyline points="34.54,98.3018 27.54,98.3018" style="fill:none;stroke:black;stroke-width:1" />
  <polyline points="34.54,10.5674 27.54,10.5674" style="fill:none;stroke:black;stroke-width:1" />
  <text dominant-baseline="hanging" text-anchor="middle" transform="translate(47.206,376.04)" font-family="Segoe UI" font-size="12" font-weight="400" fill="black">-2</text>
  <text dominant-baseline="hanging" text-anchor="middle" transform="translate(113.6872,376.04)" font-family="Segoe UI" font-size="12" font-weight="400" fill="black">-1.5</text>
  <text dominant-baseline="hanging" text-anchor="middle" transform="translate(180.1685,376.04)" font-family="Segoe UI" font-size="12" font-weight="400" fill="black">-1</text>
  <text dominant-baseline="hanging" text-anchor="middle" transform="translate(246.6497,376.04)" font-family="Segoe UI" font-size="12" font-weight="400" fill="black">-0.5</text>
  <text dominant-baseline="hanging" text-anchor="middle" transform="translate(313.131,376.04)" font-family="Segoe UI" font-size="12" font-weight="400" fill="black">0</text>
  <text dominant-baseline="hanging" text-anchor="middle" transform="translate(379.6122,376.04)" font-family="Segoe UI" font-size="12" font-weight="400" fill="black">0.5</text>
  <text dominant-baseline="hanging" text-anchor="middle" transform="translate(446.0935,376.04)" font-family="Segoe UI" font-size="12" font-weight="400" fill="black">1</text>
  <text dominant-baseline="hanging" text-anchor="middle" transform="translate(512.5747,376.04)" font-family="Segoe UI" font-size="12" font-weight="400" fill="black">1.5</text>
  <text dominant-baseline="hanging" text-anchor="middle" transform="translate(579.056,376.04)" font-family="Segoe UI" font-size="12" font-weight="400" fill="black">2</text>
  <polyline points="47.206,365.04 47.206,372.04" style="fill:none;stroke:black;stroke-width:1" />
  <polyline points="113.6872,365.04 113.6872,372.04" style="fill:none;stroke:black;stroke-width:1" />
  <polyline points="180.1685,365.04 180.1685,372.04" style="fill:none;stroke:black;stroke-width:1" />
  <polyline points="246.6497,365.04 246.6497,372.04" style="fill:none;stroke:black;stroke-width:1" />
  <polyline points="313.131,365.04 313.131,372.04" style="fill:none;stroke:black;stroke-width:1" />
  <polyline points="379.6122,365.04 379.6122,372.04" style="fill:none;stroke:black;stroke-width:1" />
  <polyline points="446.0935,365.04 446.0935,372.04" style="fill:none;stroke:black;stroke-width:1" />
  <polyline points="512.5747,365.04 512.5747,372.04" style="fill:none;stroke:black;stroke-width:1" />
  <polyline points="579.056,365.04 579.056,372.04" style="fill:none;stroke:black;stroke-width:1" />
  <polyline points="40.0594,319.0256 44.0483,316.3464 48.0372,313.5413 52.026,310.6079 56.0149,307.5436 60.0038,304.3463 63.9927,301.0141 67.9815,297.5451 71.9704,293.9381 75.9593,290.1918 79.9482,286.3056 83.937,282.2789 87.9259,278.1117 91.9148,273.8042 95.9037,269.3573 99.8925,264.7719 103.8814,260.0497 107.8703,255.1928 111.8592,250.2035 115.848,245.0849 119.8369,239.8404 123.8258,234.4741 127.8146,228.9904 131.8035,223.3943 135.7924,217.6915 139.7813,211.8878 143.7701,205.9899 147.759,200.005 151.7479,193.9406 155.7368,187.805 159.7256,181.6066 163.7145,175.3546 167.7034,169.0587 171.6923,162.7288 175.6811,156.3753 179.67,150.0093 183.6589,143.6418 187.6478,137.2846 191.6366,130.9494 195.6255,124.6485 199.6144,118.3943 203.6033,112.1994 207.5921,106.0767 211.581,100.039 215.5699,94.0993 219.5588,88.2708 223.5476,82.5664 227.5365,76.999 231.5254,71.5816 235.5143,66.3268 239.5031,61.2471 243.492,56.3548 247.4809,51.6617 251.4698,47.1795 255.4586,42.9193 259.4475,38.8918 263.4364,35.1073 267.4253,31.5755 271.4141,28.3055 275.403,25.3058 279.3919,22.5843 283.3808,20.148 287.3696,18.0036 291.3585,16.1566 295.3474,14.6121 299.3363,13.3741 303.3251,12.446 307.314,11.8302 311.3029,11.5285 315.2918,11.5416 319.2806,11.8696 323.2695,12.5115 327.2584,13.4655 331.2473,14.7292 335.2361,16.2992 339.225,18.1711 343.2139,20.3402 347.2028,22.8004 351.1916,25.5455 355.1805,28.568 359.1694,31.8602 363.1583,35.4135 367.1471,39.2186 371.136,43.2659 375.1249,47.545 379.1138,52.0453 383.1026,56.7554 387.0915,61.6638 391.0804,66.7586 395.0693,72.0274 399.0581,77.4578 403.047,83.0371 407.0359,88.7524 411.0248,94.5907 415.0136,100.539 419.0025,106.5843 422.9914,112.7135 426.9803,118.9138 430.9691,125.1724 434.958,131.4766 438.9469,137.8141 442.9358,144.1727 446.9246,150.5405 450.9135,156.9059 454.9024,163.2578 458.8913,169.5852 462.8801,175.8779 466.869,182.1257 470.8579,188.3192 474.8467,194.4493 478.8356,200.5073 482.8245,206.4853 486.8134,212.3755 490.8022,218.171 494.7911,223.8653 498.78,229.4521 502.7689,234.9262 506.7577,240.2826 510.7466,245.5167 514.7355,250.6246 518.7244,255.6029 522.7132,260.4488 526.7021,265.1596 530.691,269.7335 534.6799,274.1688 538.6687,278.4646 542.6576,282.6201 546.6465,286.6351 550.6354,290.5096 554.6242,294.2442 558.6131,297.8397 562.602,301.2972 566.5909,304.6181 570.5797,307.8042 574.5686,310.8575 578.5575,313.7801 582.5464,316.5746 586.5352,319.2435" style="fill:none;stroke:black;stroke-width:1;stroke-linejoin:bevel" />
  <polyline points="40.0594,319.0256 44.0483,316.3464 48.0372,313.5413 52.026,310.6079 56.0149,307.5436 60.0038,304.3463 63.9927,301.0141 67.9815,297.5451 71.9704,293.9381 75.9593,290.1918 79.9482,286.3056 83.937,282.2789 87.9259,278.1117 91.9148,273.8042 94.4271,271.0195" style="fill:none;stroke:none;" />
  <polyline points="94.4271,361.505 40.0594,361.505" style="fill:none;stroke:none;" />
  <polygon points="94.4271,361.505 40.0594,361.505 40.0594,319.0256 44.0483,316.3464 48.0372,313.5413 52.026,310.6079 56.0149,307.5436 60.0038,304.3463 63.9927,301.0141 67.9815,297.5451 71.9704,293.9381 75.9593,290.1918 79.9482,286.3056 83.937,282.2789 87.9259,278.1117 91.9148,273.8042 94.4271,271.0195" style="fill:rgb(123,104,238);stroke:none;" />
  <polyline points="94.4271,271.0195 98.416,266.4852 102.4049,261.8135 106.3938,257.0062 110.3826,252.0655 114.3715,246.9944 118.3604,241.7961 122.3493,236.4744 126.3381,231.0336 130.327,225.4785 134.3159,219.8145 138.3048,214.0474 142.2936,208.1836 146.2825,202.2301 150.2714,196.1942 154.2603,190.0839 158.2491,183.9077 162.238,177.6745 166.2269,171.3937 170.2158,165.0751 174.2046,158.7292 178.1935,152.3665 182.1824,145.9982 186.1713,139.6358 190.1601,133.2911 194.149,126.976 198.1379,120.7031 202.1268,114.4848 206.1156,108.3338 210.1045,102.2631 214.0934,96.2857 218.0823,90.4145 222.0711,84.6626 226.06,79.043 230.0489,73.5686 234.0378,68.2522 238.0266,63.1062 242.0155,58.1431 246.0044,53.3749 249.9933,48.8133 253.9821,44.4697 257.971,40.3548 261.9599,36.4793 265.9488,32.8528 269.9376,29.4849 273.9265,26.3841 277.9154,23.5588 281.9043,21.0161 285.8931,18.763 289.882,16.8053 293.8709,15.1483 297.8598,13.7964 301.8486,12.7532 305.8375,12.0216 309.8264,11.6035 313.8153,11.5 317.8041,11.7115 321.793,12.2374 325.7819,13.0761 329.7707,14.2256 333.7596,15.6826 337.7485,17.4433 341.7374,19.503 345.7262,21.8562 349.7151,24.4966 353.704,27.4173 357.6929,30.6107 361.6817,34.0683 365.6706,37.7813 369.6595,41.7402 373.6484,45.9347 377.6372,50.3544 381.6261,54.9882 385.615,59.8246 389.6039,64.8518 393.5927,70.0576 397.5816,75.4297 401.5705,80.9553 405.5594,86.6218 409.5482,92.4161 413.5371,98.3252 417.526,104.3361 421.5149,110.4358 425.5037,116.6113 429.4926,122.8498 433.4815,129.1386 437.4704,135.4652 441.4592,141.8173 445.4481,148.1831 449.437,154.5507 453.4259,160.9088 457.4147,167.2466 461.4036,173.5533 465.3925,179.8189 469.3814,186.0336 473.3702,192.1882 477.3591,198.2738 481.348,204.2823 485.3369,210.2059 489.3257,216.0373 493.3146,221.7697 497.3035,227.397 501.2924,232.9134 505.2812,238.3139 509.2701,243.5937 513.259,248.7488 517.2479,253.7755 521.2367,258.6707 525.2256,263.4317 529.2145,268.0565 531.8348,271.0195" style="fill:none;stroke:none;" />
  <polyline points="531.8348,361.505 94.4271,361.505" style="fill:none;stroke:rgb(255,255,255);stroke-width:2;stroke-linejoin:bevel" />
  <polygon points="531.8348,361.505 94.4271,361.505 94.4271,271.0195 98.416,266.4852 102.4049,261.8135 106.3938,257.0062 110.3826,252.0655 114.3715,246.9944 118.3604,241.7961 122.3493,236.4744 126.3381,231.0336 130.327,225.4785 134.3159,219.8145 138.3048,214.0474 142.2936,208.1836 146.2825,202.2301 150.2714,196.1942 154.2603,190.0839 158.2491,183.9077 162.238,177.6745 166.2269,171.3937 170.2158,165.0751 174.2046,158.7292 178.1935,152.3665 182.1824,145.9982 186.1713,139.6358 190.1601,133.2911 194.149,126.976 198.1379,120.7031 202.1268,114.4848 206.1156,108.3338 210.1045,102.2631 214.0934,96.2857 218.0823,90.4145 222.0711,84.6626 226.06,79.043 230.0489,73.5686 234.0378,68.2522 238.0266,63.1062 242.0155,58.1431 246.0044,53.3749 249.9933,48.8133 253.9821,44.4697 257.971,40.3548 261.9599,36.4793 265.9488,32.8528 269.9376,29.4849 273.9265,26.3841 277.9154,23.5588 281.9043,21.0161 285.8931,18.763 289.882,16.8053 293.8709,15.1483 297.8598,13.7964 301.8486,12.7532 305.8375,12.0216 309.8264,11.6035 313.8153,11.5 317.8041,11.7115 321.793,12.2374 325.7819,13.0761 329.7707,14.2256 333.7596,15.6826 337.7485,17.4433 341.7374,19.503 345.7262,21.8562 349.7151,24.4966 353.704,27.4173 357.6929,30.6107 361.6817,34.0683 365.6706,37.7813 369.6595,41.7402 373.6484,45.9347 377.6372,50.3544 381.6261,54.9882 385.615,59.8246 389.6039,64.8518 393.5927,70.0576 397.5816,75.4297 401.5705,80.9553 405.5594,86.6218 409.5482,92.4161 413.5371,98.3252 417.526,104.3361 421.5149,110.4358 425.5037,116.6113 429.4926,122.8498 433.4815,129.1386 437.4704,135.4652 441.4592,141.8173 445.4481,148.1831 449.437,154.5507 453.4259,160.9088 457.4147,167.2466 461.4036,173.5533 465.3925,179.8189 469.3814,186.0336 473.3702,192.1882 477.3591,198.2738 481.348,204.2823 485.3369,210.2059 489.3257,216.0373 493.3146,221.7697 497.3035,227.397 501.2924,232.9134 505.2812,238.3139 509.2701,243.5937 513.259,248.7488 517.2479,253.7755 521.2367,258.6707 525.2256,263.4317 529.2145,268.0565 531.8348,271.0195" style="fill:rgb(255,255,255);stroke:none;" />
  <polyline points="531.8348,271.0195 535.8237,275.415 539.8126,279.6706 543.8014,283.7858 547.7903,287.7605 551.7792,291.5948 555.7681,295.2894 559.7569,298.8452 563.7458,302.2634 567.7347,305.5455 571.7236,308.6933 575.7124,311.7088 579.7013,314.5945 583.6902,317.3526 586.2025,319.0256" style="fill:none;stroke:none;" />
  <polyline points="586.2025,361.505 531.8348,361.505" style="fill:none;stroke:none;" />
  <polygon points="586.2025,361.505 531.8348,361.505 531.8348,271.0195 535.8237,275.415 539.8126,279.6706 543.8014,283.7858 547.7903,287.7605 551.7792,291.5948 555.7681,295.2894 559.7569,298.8452 563.7458,302.2634 567.7347,305.5455 571.7236,308.6933 575.7124,311.7088 579.7013,314.5945 583.6902,317.3526 586.2025,319.0256" style="fill:rgb(123,104,238);stroke:none;" />
  <polygon points="34.54,8 592,8 592,365.04 34.54,365.04" style="fill:none;stroke:black;stroke-width:1" />
  <polygon points="439.0133,16 584,16 584,95.84 439.0133,95.84" style="fill:none;stroke:none;" />
  <text dominant-baseline="hanging" text-anchor="start" transform="translate(467.0133,24)" font-family="Segoe UI" font-size="12" font-weight="400" fill="black">Normal(μ = 0, σ = 1)</text>
  <polyline points="447.0133,31.98 463.0133,31.98" style="fill:none;stroke:black;stroke-width:1" />
  <text dominant-baseline="hanging" text-anchor="start" transform="translate(467.0133,39.96)" font-family="Segoe UI" font-size="12" font-weight="400" fill="black">Q=(0-5)%</text>
  <polyline points="447.0133,52.728 463.0133,52.728" style="fill:none;stroke:none;" />
  <polyline points="463.0133,43.152 447.0133,49.536" style="fill:none;stroke:none;" />
  <polygon points="447.0133,52.728 463.0133,52.728 463.0133,43.152 447.0133,49.536" style="fill:rgb(123,104,238);stroke:none;" />
  <text dominant-baseline="hanging" text-anchor="start" transform="translate(467.0133,55.92)" font-family="Segoe UI" font-size="12" font-weight="400" fill="black">Q=(5-95)%</text>
  <polyline points="447.0133,68.688 463.0133,68.688" style="fill:none;stroke:none;" />
  <polyline points="463.0133,59.112 447.0133,65.496" style="fill:none;stroke:rgb(255,255,255);stroke-width:2" />
  <polygon points="447.0133,68.688 463.0133,68.688 463.0133,59.112 447.0133,65.496" style="fill:rgb(255,255,255);stroke:none;" />
  <text dominant-baseline="hanging" text-anchor="start" transform="translate(467.0133,71.88)" font-family="Segoe UI" font-size="12" font-weight="400" fill="black">Q=(95-100)%</text>
  <polyline points="447.0133,84.648 463.0133,84.648" style="fill:none;stroke:none;" />
  <polyline points="463.0133,75.072 447.0133,81.456" style="fill:none;stroke:none;" />
  <polygon points="447.0133,84.648 463.0133,84.648 463.0133,75.072 447.0133,81.456" style="fill:rgb(123,104,238);stroke:none;" />
</svg>
